<svg width="32" height="32" viewBox="0 0 32 32" fill="none" xmlns="http://www.w3.org/2000/svg">
<path d="M4.00033 4H28.0003C28.7367 4 29.3337 4.59696 29.3337 5.33333V26.6667C29.3337 27.4031 28.7367 28 28.0003 28H4.00033C3.26395 28 2.66699 27.4031 2.66699 26.6667V5.33333C2.66699 4.59696 3.26395 4 4.00033 4ZM6.66699 9.33333V12H9.33366V9.33333H6.66699ZM6.66699 14.6667V17.3333H9.33366V14.6667H6.66699ZM6.66699 20V22.6667H25.3337V20H6.66699ZM12.0003 14.6667V17.3333H14.667V14.6667H12.0003ZM12.0003 9.33333V12H14.667V9.33333H12.0003ZM17.3337 9.33333V12H20.0003V9.33333H17.3337ZM22.667 9.33333V12H25.3337V9.33333H22.667ZM17.3337 14.6667V17.3333H20.0003V14.6667H17.3337ZM22.667 14.6667V17.3333H25.3337V14.6667H22.667Z" fill="#182BFF"/>
</svg>
