<svg width="32" height="32" viewBox="0 0 32 32" fill="none" xmlns="http://www.w3.org/2000/svg">
<path d="M15.9997 2.66797C21.1543 2.66797 25.333 6.84665 25.333 12.0013C25.333 12.1526 25.3294 12.3032 25.3223 12.4527C28.435 13.548 30.6663 16.5141 30.6663 20.0013C30.6663 24.4196 27.0846 28.0013 22.6663 28.0013H9.33301C4.91473 28.0013 1.33301 24.4196 1.33301 20.0013C1.33301 16.5141 3.56429 13.548 6.67706 12.4527C6.66994 12.3032 6.66634 12.1526 6.66634 12.0013C6.66634 6.84665 10.845 2.66797 15.9997 2.66797ZM15.9997 5.33464C12.3178 5.33464 9.33301 8.31941 9.33301 12.0013C9.33301 12.1099 9.33558 12.2181 9.34071 12.3259L9.43517 14.3092L7.56211 14.9682C5.44554 15.7129 3.99967 17.7198 3.99967 20.0013C3.99967 22.9468 6.38749 25.3346 9.33301 25.3346H22.6663C25.6118 25.3346 27.9997 22.9468 27.9997 20.0013C27.9997 17.0546 25.613 14.668 22.6663 14.668C20.3103 14.668 18.3113 16.1956 17.6053 18.3142L15.0749 17.4708C16.1337 14.2926 19.133 12.0013 22.6663 12.0013C22.6663 8.31941 19.6815 5.33464 15.9997 5.33464Z" fill="#F5FF0A"/>
</svg>
