<svg width="32" height="32" viewBox="0 0 32 32" fill="none" xmlns="http://www.w3.org/2000/svg">
<path d="M20 6.66797H22.6667C24.1395 6.66797 25.3333 7.86188 25.3333 9.33464V20.2289C26.8869 20.778 28 22.2597 28 24.0013C28 26.2105 26.2092 28.0013 24 28.0013C21.7908 28.0013 20 26.2105 20 24.0013C20 22.2597 21.1131 20.778 22.6667 20.2289V9.33464H20V13.3346L14 8.0013L20 2.66797V6.66797ZM6.66667 11.7737C5.11308 11.2246 4 9.74293 4 8.0013C4 5.79217 5.79087 4.0013 8 4.0013C10.2091 4.0013 12 5.79217 12 8.0013C12 9.74293 10.8869 11.2246 9.33333 11.7737V20.2289C10.8869 20.778 12 22.2597 12 24.0013C12 26.2105 10.2091 28.0013 8 28.0013C5.79087 28.0013 4 26.2105 4 24.0013C4 22.2597 5.11308 20.778 6.66667 20.2289V11.7737ZM8 9.33464C8.73637 9.33464 9.33333 8.73768 9.33333 8.0013C9.33333 7.26493 8.73637 6.66797 8 6.66797C7.26363 6.66797 6.66667 7.26493 6.66667 8.0013C6.66667 8.73768 7.26363 9.33464 8 9.33464ZM8 25.3346C8.73637 25.3346 9.33333 24.7377 9.33333 24.0013C9.33333 23.2649 8.73637 22.668 8 22.668C7.26363 22.668 6.66667 23.2649 6.66667 24.0013C6.66667 24.7377 7.26363 25.3346 8 25.3346ZM24 25.3346C24.7364 25.3346 25.3333 24.7377 25.3333 24.0013C25.3333 23.2649 24.7364 22.668 24 22.668C23.2636 22.668 22.6667 23.2649 22.6667 24.0013C22.6667 24.7377 23.2636 25.3346 24 25.3346Z" fill="#F5FF0A"/>
</svg>
