<svg width="32" height="32" viewBox="0 0 32 32" fill="none" xmlns="http://www.w3.org/2000/svg">
<path d="M5.33915 8.55679L1.01562 4.23327L2.90124 2.34766L7.22476 6.67118H27.5471C28.2835 6.67118 28.8804 7.26812 28.8804 8.00451C28.8804 8.13427 28.8615 8.26334 28.8243 8.38763L25.6243 19.0544C25.4551 19.6182 24.9359 20.0045 24.3471 20.0045H8.00581V22.6712H22.6725V25.3378H6.67248C5.93609 25.3378 5.33915 24.7409 5.33915 24.0045V8.55679ZM8.00581 9.33784V17.3378H23.3551L25.7551 9.33784H8.00581ZM7.33915 30.6712C6.23457 30.6712 5.33915 29.7757 5.33915 28.6712C5.33915 27.5666 6.23457 26.6712 7.33915 26.6712C8.44372 26.6712 9.33915 27.5666 9.33915 28.6712C9.33915 29.7757 8.44372 30.6712 7.33915 30.6712ZM23.3392 30.6712C22.2345 30.6712 21.3392 29.7757 21.3392 28.6712C21.3392 27.5666 22.2345 26.6712 23.3392 26.6712C24.4437 26.6712 25.3392 27.5666 25.3392 28.6712C25.3392 29.7757 24.4437 30.6712 23.3392 30.6712Z" fill="#F5FF0A"/>
</svg>
