<svg width="24" height="25" viewBox="0 0 24 25" fill="none" xmlns="http://www.w3.org/2000/svg">
<path d="M3.10542 0.862065C4.74954 0.277558 6.65591 0.643278 7.97187 1.95924C9.28821 3.27557 9.65377 5.18265 9.06855 6.82709L23.5282 21.2869L20.6998 24.1153L6.23866 9.65608C4.59454 10.2406 2.68817 9.87489 1.37221 8.5589C0.0558723 7.24257 -0.309687 5.33549 0.275526 3.69105L3.25783 6.67329C4.03887 7.45433 5.30521 7.45433 6.08626 6.67329C6.8673 5.89224 6.8673 4.6259 6.08626 3.84486L3.10542 0.862065ZM16.9286 3.37345L21.1712 1.01644L23.0568 2.90205L20.6998 7.14469L18.3428 7.61609L15.5143 10.4445L13.6287 8.5589L16.4571 5.73048L16.9286 3.37345ZM7.50047 13.7444L10.3288 16.5728L3.72923 23.1725C2.94818 23.9536 1.68186 23.9536 0.900806 23.1725C0.165699 22.4373 0.122459 21.2724 0.771086 20.4866L0.900806 20.344L7.50047 13.7444Z" fill="#101010"/>
</svg>
