<svg width="28" height="23" viewBox="0 0 28 23" fill="none" xmlns="http://www.w3.org/2000/svg">
<path d="M2.00667 0.83728H26.0067C26.7431 0.83728 27.34 1.43423 27.34 2.17061V20.8372C27.34 21.5736 26.7431 22.1706 26.0067 22.1706H2.00667C1.2703 22.1706 0.67334 21.5736 0.67334 20.8372V2.17061C0.67334 1.43423 1.2703 0.83728 2.00667 0.83728ZM6.66733 3.50004H3.33399V6.83337C5.17494 6.83337 6.66733 5.34099 6.66733 3.50004ZM21.334 3.50004C21.334 5.34099 22.8264 6.83337 24.6674 6.83337V3.50004H21.334ZM3.33399 16.1667V19.5H6.66733C6.66733 17.6591 5.17494 16.1667 3.33399 16.1667ZM21.334 19.5H24.6674V16.1667C22.8264 16.1667 21.334 17.6591 21.334 19.5ZM14.0007 16.8334C16.9462 16.8334 19.334 14.4455 19.334 11.5C19.334 8.55452 16.9462 6.16671 14.0007 6.16671C11.0551 6.16671 8.66733 8.55452 8.66733 11.5C8.66733 14.4455 11.0551 16.8334 14.0007 16.8334Z" fill="#101010"/>
</svg>
