<svg width="24" height="25" viewBox="0 0 24 25" fill="none" xmlns="http://www.w3.org/2000/svg">
<path d="M0 3.16012C0 1.69097 1.19016 0.5 2.66012 0.5H21.3399C22.8091 0.5 24 1.69016 24 3.16012V21.8399C24 23.3091 22.8099 24.5 21.3399 24.5H2.66012C1.19097 24.5 0 23.3099 0 21.8399V3.16012ZM4.47583 20.5H19.7967C18.11 18.082 15.3079 16.5 12.1363 16.5C8.96459 16.5 6.16243 18.082 4.47583 20.5ZM12 13.8333C14.5773 13.8333 16.6667 11.744 16.6667 9.16667C16.6667 6.58933 14.5773 4.5 12 4.5C9.42267 4.5 7.33333 6.58933 7.33333 9.16667C7.33333 11.744 9.42267 13.8333 12 13.8333Z" fill="#101010"/>
</svg>
