<svg width="91" height="59" viewBox="0 0 91 59" fill="none" xmlns="http://www.w3.org/2000/svg">
<path d="M17.2556 45.1111C17.2556 42.9756 18.9868 41.2444 21.1223 41.2444H24.989C27.1245 41.2444 28.8556 42.9756 28.8556 45.1111V54.1333C28.8556 56.2688 27.1244 57.9999 24.9889 57.9999H21.1223C18.9868 57.9999 17.2556 56.2688 17.2556 54.1333V45.1111Z" fill="url(#paint0_linear_481_30045)"/>
<path d="M21.1218 41.5667H24.989C26.9464 41.5667 28.5327 43.1533 28.533 45.1106V54.1331C28.533 56.0906 26.9465 57.6779 24.989 57.678H21.1218C19.1645 57.6777 17.5779 56.0904 17.5779 54.1331V45.1106C17.5781 43.1534 19.1646 41.5669 21.1218 41.5667Z" stroke="#D3A500" stroke-opacity="0.14" stroke-width="0.644444"/>
<path d="M34.0111 33.5112C34.0111 31.3757 35.7423 29.6445 37.8778 29.6445H41.7444C43.8799 29.6445 45.6111 31.3757 45.6111 33.5112V54.1334C45.6111 56.2689 43.8799 58.0001 41.7444 58.0001H37.8778C35.7423 58.0001 34.0111 56.2689 34.0111 54.1334V33.5112Z" fill="url(#paint1_linear_481_30045)"/>
<path d="M37.8773 29.9668H41.7445C43.7019 29.9668 45.2882 31.5534 45.2885 33.5107V54.1338C45.2883 56.0911 43.7019 57.6777 41.7445 57.6777H37.8773C35.9201 57.6775 34.3336 56.091 34.3334 54.1338V33.5107C34.3336 31.5536 35.9201 29.967 37.8773 29.9668Z" stroke="#D3A500" stroke-opacity="0.24" stroke-width="0.644444"/>
<path d="M50.7667 17.3999H62.3667V54.1332C62.3667 56.2687 60.6356 57.9999 58.5001 57.9999H54.6334C52.4979 57.9999 50.7667 56.2687 50.7667 54.1332V17.3999Z" fill="#FBE99E"/>
<path d="M62.0441 17.7222V54.1333C62.044 56.0908 60.4576 57.6772 58.5001 57.6772H54.6329C52.6756 57.677 51.089 56.0907 51.089 54.1333V17.7222H62.0441Z" stroke="#D3A500" stroke-opacity="0.14" stroke-width="0.644444"/>
<path d="M55.4453 1.97887C55.939 1.1076 57.1943 1.10761 57.688 1.97887L66.4317 17.409C66.9186 18.2682 66.298 19.3333 65.3104 19.3333H47.8229C46.8353 19.3333 46.2146 18.2682 46.7015 17.409L55.4453 1.97887Z" fill="#FBE99E"/>
<path d="M55.7253 2.1377C56.0956 1.48425 57.0377 1.48424 57.408 2.1377L66.1511 17.5674C66.5163 18.2118 66.051 19.0107 65.3103 19.0107H47.823C47.0823 19.0107 46.617 18.2118 46.9822 17.5674L55.7253 2.1377Z" stroke="#D3A500" stroke-opacity="0.1" stroke-width="0.644444"/>
<path d="M88.7226 51.4353H58.1979C57.5745 51.4353 57.0691 51.9407 57.0691 52.5641V57.0707C57.0691 57.6942 57.5745 58.1995 58.1979 58.1995H88.7226C89.3461 58.1995 89.8514 57.6942 89.8514 57.0707V52.5641C89.8514 51.9407 89.3461 51.4353 88.7226 51.4353Z" fill="url(#paint2_linear_481_30045)" stroke="#FBC502" stroke-width="0.404862"/>
<path d="M80.9963 51.9993H76.8514V57.6365H80.9963V51.9993Z" fill="#FFFDF0" fill-opacity="0.43"/>
<path d="M84.3875 51.9993H82.1267V57.6365H84.3875V51.9993Z" fill="#FFFDF0" fill-opacity="0.43"/>
<path d="M87.0251 51.9993H85.1411V57.6365H87.0251V51.9993Z" fill="#FFFDF0" fill-opacity="0.43"/>
<path d="M88.5323 51.9993H87.4019V57.6365H88.5323V51.9993Z" fill="#FFFDF0" fill-opacity="0.43"/>
<path fill-rule="evenodd" clip-rule="evenodd" d="M75.7181 51.9995L59.5126 57.6341H75.7181V51.9995Z" fill="#FFFDF0" fill-opacity="0.43"/>
<path d="M88.7224 37.9067H58.1977C57.5742 37.9067 57.0688 38.4121 57.0688 39.0356V43.5422C57.0688 44.1656 57.5742 44.671 58.1977 44.671H88.7224C89.3458 44.671 89.8512 44.1656 89.8512 43.5422V39.0356C89.8512 38.4121 89.3458 37.9067 88.7224 37.9067Z" fill="url(#paint3_linear_481_30045)" stroke="#FBC502" stroke-width="0.404862"/>
<path d="M80.996 38.4695H76.8512V44.1067H80.996V38.4695Z" fill="#FFFDF0" fill-opacity="0.43"/>
<path d="M84.3872 38.4695H82.1263V44.1067H84.3872V38.4695Z" fill="#FFFDF0" fill-opacity="0.43"/>
<path d="M87.0249 38.4695H85.1409V44.1067H87.0249V38.4695Z" fill="#FFFDF0" fill-opacity="0.43"/>
<path d="M88.532 38.4695H87.4016V44.1067H88.532V38.4695Z" fill="#FFFDF0" fill-opacity="0.43"/>
<path fill-rule="evenodd" clip-rule="evenodd" d="M75.7179 38.4695L59.5123 44.104H75.7179V38.4695Z" fill="#FFFDF0" fill-opacity="0.43"/>
<path d="M85.6424 44.6704H55.1177C54.4943 44.6704 53.9889 45.1758 53.9889 45.7992V50.3058C53.9889 50.9293 54.4943 51.4347 55.1177 51.4347H85.6424C86.2659 51.4347 86.7712 50.9293 86.7712 50.3058V45.7992C86.7712 45.1758 86.2659 44.6704 85.6424 44.6704Z" fill="url(#paint4_linear_481_30045)" stroke="#FBC502" stroke-width="0.404862"/>
<path d="M77.9159 45.2327H73.7711V50.8699H77.9159V45.2327Z" fill="#FFFDF0" fill-opacity="0.43"/>
<path d="M81.3072 45.2327H79.0464V50.8699H81.3072V45.2327Z" fill="#FFFDF0" fill-opacity="0.43"/>
<path d="M83.9449 45.2327H82.0609V50.8699H83.9449V45.2327Z" fill="#FFFDF0" fill-opacity="0.43"/>
<path d="M85.4521 45.2327H84.3217V50.8699H85.4521V45.2327Z" fill="#FFFDF0" fill-opacity="0.43"/>
<path fill-rule="evenodd" clip-rule="evenodd" d="M72.6379 45.2327L56.4324 50.8672H72.6379V45.2327Z" fill="#FFFDF0" fill-opacity="0.43"/>
<ellipse cx="75.4808" cy="33.0713" rx="11.8253" ry="11.8047" fill="url(#paint5_linear_481_30045)" stroke="#FBC502" stroke-width="0.226595"/>
<path d="M72.2197 31.1072H79.7379" stroke="#806900" stroke-width="1.09693" stroke-linecap="round"/>
<path d="M72.1697 28.5854L79.7379 28.5857" stroke="#806900" stroke-width="1.09693" stroke-linecap="round"/>
<path d="M72.5897 28.5854L73.8251 28.5857L75.4806 28.5854C76.9967 28.5854 77.9822 29.7187 77.9822 31.2321C77.9822 32.7455 76.7532 33.9724 75.2371 33.9724H72.898C72.7277 33.9724 72.5897 34.1101 72.5897 34.2801C72.5897 34.3645 72.6244 34.4452 72.6858 34.5033L77.7074 39.2617" stroke="#806900" stroke-width="1.09693" stroke-linecap="round"/>
<path d="M0.72644 54.1333C0.72644 51.9978 2.45761 50.2666 4.59311 50.2666H8.45978C10.5953 50.2666 12.3264 51.9978 12.3264 54.1333C12.3264 56.2688 10.5953 57.9999 8.45977 57.9999H4.59311C2.4576 57.9999 0.72644 56.2688 0.72644 54.1333Z" fill="url(#paint6_linear_481_30045)"/>
<path d="M4.59265 50.5889H8.45984C10.4172 50.5889 12.0035 52.1755 12.0038 54.1328C12.0038 56.0903 10.4174 57.6777 8.45984 57.6777H4.59265C2.63532 57.6775 1.04871 56.0902 1.04871 54.1328C1.04895 52.1756 2.63547 50.5891 4.59265 50.5889Z" stroke="#D3A500" stroke-opacity="0.16" stroke-width="0.644444"/>
<defs>
<linearGradient id="paint0_linear_481_30045" x1="23.0556" y1="41.2444" x2="23.0556" y2="57.9999" gradientUnits="userSpaceOnUse">
<stop offset="0.452051" stop-color="#FBE99E"/>
<stop offset="1" stop-color="white"/>
</linearGradient>
<linearGradient id="paint1_linear_481_30045" x1="39.8111" y1="29.6445" x2="39.8111" y2="58.0001" gradientUnits="userSpaceOnUse">
<stop offset="0.452051" stop-color="#FBE99E"/>
<stop offset="1" stop-color="white"/>
</linearGradient>
<linearGradient id="paint2_linear_481_30045" x1="57.6037" y1="54.8174" x2="89.3759" y2="54.8174" gradientUnits="userSpaceOnUse">
<stop stop-color="#FEE8BC"/>
<stop offset="1" stop-color="#F1CB03"/>
</linearGradient>
<linearGradient id="paint3_linear_481_30045" x1="57.6035" y1="41.2889" x2="89.3757" y2="41.2889" gradientUnits="userSpaceOnUse">
<stop stop-color="#FEE8BC"/>
<stop offset="1" stop-color="#F1CB03"/>
</linearGradient>
<linearGradient id="paint4_linear_481_30045" x1="54.5235" y1="48.0525" x2="86.2957" y2="48.0525" gradientUnits="userSpaceOnUse">
<stop stop-color="#FEE8BC"/>
<stop offset="1" stop-color="#F1CB03"/>
</linearGradient>
<linearGradient id="paint5_linear_481_30045" x1="64.0412" y1="33.0713" x2="86.9631" y2="33.0713" gradientUnits="userSpaceOnUse">
<stop stop-color="#FEE8BC"/>
<stop offset="1" stop-color="#F1CB03"/>
</linearGradient>
<linearGradient id="paint6_linear_481_30045" x1="6.52644" y1="50.2666" x2="6.52644" y2="57.9999" gradientUnits="userSpaceOnUse">
<stop offset="0.452051" stop-color="#FBE99E"/>
<stop offset="1" stop-color="white"/>
</linearGradient>
</defs>
</svg>
