<svg width="32" height="32" viewBox="0 0 32 32" fill="none" xmlns="http://www.w3.org/2000/svg">
<path d="M18.6663 18.0001V10.6667C18.6663 7.72123 16.2785 5.33341 13.333 5.33341C10.3875 5.33341 7.99967 7.72123 7.99967 10.6667V18.0001C7.99967 22.7866 11.8799 26.6667 16.6663 26.6667C21.4529 26.6667 25.333 22.7866 25.333 18.0001V5.33341H27.9997V18.0001C27.9997 24.2593 22.9255 29.3334 16.6663 29.3334C10.4071 29.3334 5.33301 24.2593 5.33301 18.0001V10.6667C5.33301 6.24847 8.91473 2.66675 13.333 2.66675C17.7513 2.66675 21.333 6.24847 21.333 10.6667V18.0001C21.333 20.5774 19.2437 22.6667 16.6663 22.6667C14.089 22.6667 11.9997 20.5774 11.9997 18.0001V10.6667H14.6663V18.0001C14.6663 19.1046 15.5618 20.0001 16.6663 20.0001C17.7709 20.0001 18.6663 19.1046 18.6663 18.0001Z" fill="#182BFF"/>
</svg>
