<svg width="32" height="32" viewBox="0 0 32 32" fill="none" xmlns="http://www.w3.org/2000/svg">
<path d="M14.6667 3.38013C13.8823 2.92635 12.9714 2.66663 12 2.66663C9.05448 2.66663 6.66666 5.05444 6.66666 7.99996V10.3656C5.53193 10.8219 4.6019 11.5304 3.92168 12.4657C3.05652 13.6553 2.66666 15.1129 2.66666 16.6666C2.66666 18.7485 3.72705 20.5808 5.33333 21.656V23.3333C5.33333 26.647 8.01962 29.3333 11.3333 29.3333C12.5668 29.3333 13.7133 28.9612 14.6667 28.3229V23.3333C14.6667 21.556 14.2267 20.4196 13.5203 19.6544C12.7966 18.8704 11.6216 18.2886 9.7808 17.9818L10.2192 15.3514C11.9547 15.6406 13.4744 16.183 14.6667 17.1028V3.38013ZM17.3333 3.38013V17.1028C18.5256 16.183 20.0453 15.6406 21.7808 15.3514L22.2192 17.9818C20.3784 18.2886 19.2035 18.8704 18.4797 19.6544C17.7733 20.4196 17.3333 21.556 17.3333 23.3333V28.3229C18.2867 28.9612 19.4332 29.3333 20.6667 29.3333C23.9804 29.3333 26.6667 26.647 26.6667 23.3333V21.656C28.2729 20.5808 29.3333 18.7485 29.3333 16.6666C29.3333 15.1129 28.9435 13.6553 28.0783 12.4657C27.3981 11.5304 26.4681 10.8219 25.3333 10.3656V7.99996C25.3333 5.05444 22.9455 2.66663 20 2.66663C19.0285 2.66663 18.1177 2.92635 17.3333 3.38013Z" fill="#131319"/>
</svg>
