<svg width="30" height="30" viewBox="0 0 30 30" fill="none" xmlns="http://www.w3.org/2000/svg">
<path d="M16.7619 15.0002L22.1369 9.63773C22.3723 9.40235 22.5045 9.08311 22.5045 8.75023C22.5045 8.41735 22.3723 8.09811 22.1369 7.86273C21.9016 7.62735 21.5823 7.49512 21.2494 7.49512C20.9166 7.49512 20.5973 7.62735 20.3619 7.86273L14.9994 13.2377L9.63694 7.86273C9.40156 7.62735 9.08231 7.49512 8.74944 7.49512C8.41656 7.49512 8.09732 7.62735 7.86194 7.86273C7.62656 8.09811 7.49432 8.41735 7.49432 8.75023C7.49432 9.08311 7.62656 9.40235 7.86194 9.63773L13.2369 15.0002L7.86194 20.3627C7.74477 20.4789 7.65178 20.6172 7.58832 20.7695C7.52486 20.9218 7.49219 21.0852 7.49219 21.2502C7.49219 21.4152 7.52486 21.5786 7.58832 21.731C7.65178 21.8833 7.74477 22.0215 7.86194 22.1377C7.97814 22.2549 8.11639 22.3479 8.26871 22.4113C8.42104 22.4748 8.58442 22.5075 8.74944 22.5075C8.91445 22.5075 9.07783 22.4748 9.23016 22.4113C9.38248 22.3479 9.52073 22.2549 9.63694 22.1377L14.9994 16.7627L20.3619 22.1377C20.4781 22.2549 20.6164 22.3479 20.7687 22.4113C20.921 22.4748 21.0844 22.5075 21.2494 22.5075C21.4145 22.5075 21.5778 22.4748 21.7302 22.4113C21.8825 22.3479 22.0207 22.2549 22.1369 22.1377C22.2541 22.0215 22.3471 21.8833 22.4106 21.731C22.474 21.5786 22.5067 21.4152 22.5067 21.2502C22.5067 21.0852 22.474 20.9218 22.4106 20.7695C22.3471 20.6172 22.2541 20.4789 22.1369 20.3627L16.7619 15.0002Z" fill="#2A394E"/>
</svg>
