<svg width="27" height="28" viewBox="0 0 27 28" fill="none" xmlns="http://www.w3.org/2000/svg">
<path d="M13.5001 11.4582C16.4455 11.4582 18.8334 9.07036 18.8334 6.12484C18.8334 3.17932 16.4455 0.791504 13.5001 0.791504C10.5546 0.791504 8.16675 3.17932 8.16675 6.12484C8.16675 9.07036 10.5546 11.4582 13.5001 11.4582ZM4.83342 15.4582C6.67436 15.4582 8.16675 13.9658 8.16675 12.1248C8.16675 10.2839 6.67436 8.7915 4.83342 8.7915C2.99247 8.7915 1.50008 10.2839 1.50008 12.1248C1.50008 13.9658 2.99247 15.4582 4.83342 15.4582ZM25.5001 12.1248C25.5001 13.9658 24.0077 15.4582 22.1667 15.4582C20.3258 15.4582 18.8334 13.9658 18.8334 12.1248C18.8334 10.2839 20.3258 8.7915 22.1667 8.7915C24.0077 8.7915 25.5001 10.2839 25.5001 12.1248ZM13.5001 12.7915C17.1819 12.7915 20.1667 15.7763 20.1667 19.4582V27.4582H6.83342V19.4582C6.83342 15.7763 9.81819 12.7915 13.5001 12.7915ZM4.16675 19.458C4.16675 18.5342 4.30097 17.6416 4.55099 16.799L4.32493 16.8187C1.98679 17.072 0.166748 19.0526 0.166748 21.458V27.458H4.16675V19.458ZM26.8334 27.458V21.458C26.8334 18.9752 24.8946 16.9452 22.4491 16.799C22.6991 17.6416 22.8334 18.5342 22.8334 19.458V27.458H26.8334Z" fill="#182BFF"/>
</svg>
