<svg width="81" height="66" viewBox="0 0 81 66" fill="none" xmlns="http://www.w3.org/2000/svg">
<rect x="0.5" y="6.57935" width="42.2042" height="44.8783" rx="4" fill="url(#paint0_linear_366_30798)"/>
<rect x="36.2817" y="12.0747" width="3.66993" height="10.0747" rx="1.83496" transform="rotate(-180 36.2817 12.0747)" fill="url(#paint1_linear_366_30798)"/>
<rect x="23.437" y="12.0747" width="3.66993" height="10.0747" rx="1.83496" transform="rotate(-180 23.437 12.0747)" fill="url(#paint2_linear_366_30798)"/>
<rect x="10.5923" y="12.0747" width="3.66993" height="10.0747" rx="1.83496" transform="rotate(-180 10.5923 12.0747)" fill="url(#paint3_linear_366_30798)"/>
<rect opacity="0.5" x="6.00488" y="17.5701" width="7.33985" height="6.41118" rx="2" fill="#EAF9EE"/>
<rect opacity="0.5" x="16.0972" y="17.5701" width="7.33985" height="6.41118" rx="2" fill="#EAF9EE"/>
<rect opacity="0.5" x="26.1895" y="17.5701" width="7.33985" height="6.41118" rx="2" fill="#EAF9EE"/>
<rect opacity="0.5" x="6.00488" y="27.6448" width="7.33985" height="6.41118" rx="2" fill="#EAF9EE"/>
<rect opacity="0.5" x="16.0972" y="27.6448" width="7.33985" height="6.41118" rx="2" fill="#EAF9EE"/>
<rect x="26.1895" y="27.6448" width="7.33985" height="6.41118" rx="2" fill="#F4F4F5"/>
<rect opacity="0.5" x="6.00488" y="37.7195" width="7.33985" height="6.41118" rx="2" fill="#EAF9EE"/>
<rect opacity="0.5" x="16.0972" y="37.7195" width="7.33985" height="6.41118" rx="2" fill="#EAF9EE"/>
<rect x="26.1895" y="37.7195" width="7.33985" height="6.41118" rx="2" fill="#F4F4F5"/>
<path d="M79.2815 43.1702H46.3301C45.6571 43.1702 45.1116 43.7148 45.1116 44.3866V49.243C45.1116 49.9148 45.6571 50.4594 46.3301 50.4594H79.2815C79.9545 50.4594 80.5001 49.9148 80.5001 49.243V44.3866C80.5001 43.7148 79.9545 43.1702 79.2815 43.1702Z" fill="url(#paint4_linear_366_30798)" stroke="#FBC502" stroke-width="0.351613"/>
<path d="M79.281 28.5923H46.3296C45.6567 28.5923 45.1111 29.1369 45.1111 29.8087V34.6651C45.1111 35.3369 45.6567 35.8816 46.3296 35.8816H79.281C79.954 35.8816 80.4996 35.3369 80.4996 34.6651V29.8087C80.4996 29.1369 79.954 28.5923 79.281 28.5923Z" fill="url(#paint5_linear_366_30798)" stroke="#FBC502" stroke-width="0.351613"/>
<path d="M76.4497 21.2334H43.4983C42.8254 21.2334 42.2798 21.778 42.2798 22.4498V27.3062C42.2798 27.978 42.8254 28.5227 43.4983 28.5227H76.4497C77.1227 28.5227 77.6683 27.978 77.6683 27.3062V22.4498C77.6683 21.778 77.1227 21.2334 76.4497 21.2334Z" fill="url(#paint6_linear_366_30798)" stroke="#FBC502" stroke-width="0.351613"/>
<path d="M75.9565 35.8811H43.0052C42.3322 35.8811 41.7866 36.4257 41.7866 37.0975V41.9539C41.7866 42.6258 42.3322 43.1704 43.0052 43.1704H75.9565C76.6295 43.1704 77.1751 42.6258 77.1751 41.9539V37.0975C77.1751 36.4257 76.6295 35.8811 75.9565 35.8811Z" fill="url(#paint7_linear_366_30798)" stroke="#FBC502" stroke-width="0.351613"/>
<ellipse cx="39.0342" cy="33.0723" rx="18.3496" ry="18.3177" fill="url(#paint8_linear_366_30798)" stroke="#FBC502" stroke-width="0.351613"/>
<path d="M33.9736 30.0247H45.6398" stroke="#806900" stroke-width="1.70213" stroke-linecap="round"/>
<path d="M33.896 26.1113L45.6398 26.1117" stroke="#806900" stroke-width="1.70213" stroke-linecap="round"/>
<path d="M34.5479 26.1113L36.4648 26.1117L39.0337 26.1113C41.3862 26.1113 42.9155 27.8698 42.9155 30.2182C42.9155 32.5666 41.0084 34.4704 38.6559 34.4704H35.0262C34.762 34.4704 34.5479 34.6841 34.5479 34.9478C34.5479 35.0788 34.6017 35.204 34.6969 35.2941L42.489 42.6779" stroke="#806900" stroke-width="1.70213" stroke-linecap="round"/>
<path d="M24.3545 56.6955C34.9522 67.2903 52.241 66.5217 61.9712 55.0093" stroke="#C9CDD2" stroke-width="2" stroke-linecap="round"/>
<path d="M66.2552 15.8545C62.456 10.2624 56.4689 6.27192 49.5215 5.1084" stroke="#C9CDD2" stroke-width="2" stroke-linecap="round"/>
<path d="M51.5053 2.88556L50.2176 7.9127L46.5001 4.28681L51.5053 2.88556Z" fill="#C9CDD2" stroke="#C9CDD2"/>
<path d="M62.814 54.2302L61.4787 59.4427L57.6253 55.6824L62.814 54.2302Z" fill="#C9CDD2" stroke="#C9CDD2"/>
<defs>
<linearGradient id="paint0_linear_366_30798" x1="-9.13356" y1="52.8314" x2="28.4297" y2="21.627" gradientUnits="userSpaceOnUse">
<stop stop-color="#EAF9EE"/>
<stop offset="1" stop-color="#218038"/>
</linearGradient>
<linearGradient id="paint1_linear_366_30798" x1="38.1167" y1="12.0747" x2="35.3736" y2="29.478" gradientUnits="userSpaceOnUse">
<stop stop-color="#EAF9EE"/>
<stop offset="0.778846" stop-color="#218038"/>
</linearGradient>
<linearGradient id="paint2_linear_366_30798" x1="25.272" y1="12.0747" x2="22.5289" y2="29.478" gradientUnits="userSpaceOnUse">
<stop stop-color="#EAF9EE"/>
<stop offset="0.778846" stop-color="#218038"/>
</linearGradient>
<linearGradient id="paint3_linear_366_30798" x1="12.4272" y1="12.0747" x2="9.68416" y2="29.478" gradientUnits="userSpaceOnUse">
<stop stop-color="#EAF9EE"/>
<stop offset="0.778846" stop-color="#218038"/>
</linearGradient>
<linearGradient id="paint4_linear_366_30798" x1="45.6887" y1="46.8148" x2="79.9868" y2="46.8148" gradientUnits="userSpaceOnUse">
<stop offset="0.471154" stop-color="#FEE8BC"/>
<stop offset="1" stop-color="#F1CB03"/>
</linearGradient>
<linearGradient id="paint5_linear_366_30798" x1="45.6882" y1="32.2369" x2="79.9863" y2="32.2369" gradientUnits="userSpaceOnUse">
<stop offset="0.471154" stop-color="#FEE8BC"/>
<stop offset="1" stop-color="#F1CB03"/>
</linearGradient>
<linearGradient id="paint6_linear_366_30798" x1="42.8569" y1="24.878" x2="77.155" y2="24.878" gradientUnits="userSpaceOnUse">
<stop offset="0.471154" stop-color="#FEE8BC"/>
<stop offset="1" stop-color="#F1CB03"/>
</linearGradient>
<linearGradient id="paint7_linear_366_30798" x1="42.3637" y1="39.5257" x2="76.6618" y2="39.5257" gradientUnits="userSpaceOnUse">
<stop offset="0.471154" stop-color="#FEE8BC"/>
<stop offset="1" stop-color="#F1CB03"/>
</linearGradient>
<linearGradient id="paint8_linear_366_30798" x1="21.2831" y1="33.0723" x2="56.8515" y2="33.0723" gradientUnits="userSpaceOnUse">
<stop stop-color="#FEE8BC"/>
<stop offset="1" stop-color="#F1CB03"/>
</linearGradient>
</defs>
</svg>
