<svg width="411" height="300" viewBox="0 0 411 300" fill="none" xmlns="http://www.w3.org/2000/svg">
<g clip-path="url(#clip0_302_13646)">
<g filter="url(#filter0_d_302_13646)">
<mask id="path-1-inside-1_302_13646" fill="white">
<path d="M0.333984 0H411.001V300H0.333984V0Z"/>
</mask>
<path d="M0.333984 0H411.001V300H0.333984V0Z" fill="#F2F4FB" shape-rendering="crispEdges"/>
<path d="M0.333984 0V1H411.001V0V-1H0.333984V0ZM411.001 300V299H0.333984V300V301H411.001V300Z" fill="#C5C6CA" mask="url(#path-1-inside-1_302_13646)"/>
<path d="M16.7676 134.698L257.172 273.496" stroke="url(#paint0_linear_302_13646)" stroke-width="0.324447" stroke-linecap="round" stroke-dasharray="0.65 1.3"/>
<path d="M394.568 138.203L154.164 277" stroke="url(#paint1_linear_302_13646)" stroke-width="0.324447" stroke-linecap="round" stroke-dasharray="0.65 1.3"/>
<path d="M270.711 62.8813L30.3069 201.679" stroke="url(#paint2_linear_302_13646)" stroke-width="0.324447" stroke-linecap="round" stroke-dasharray="0.65 1.3"/>
<path d="M326.527 98.9893L86.1233 237.787" stroke="url(#paint3_linear_302_13646)" stroke-width="0.324447" stroke-linecap="round" stroke-dasharray="0.65 1.3"/>
<path d="M84.0781 90.377L324.482 229.174" stroke="url(#paint4_linear_302_13646)" stroke-width="0.324447" stroke-linecap="round" stroke-dasharray="0.65 1.3"/>
<path d="M147.92 60.8359L388.324 199.633" stroke="url(#paint5_linear_302_13646)" stroke-width="0.324447" stroke-linecap="round" stroke-dasharray="0.65 1.3"/>
<rect x="0.280979" width="137.183" height="137.183" transform="matrix(0.866025 -0.5 0.866025 0.5 86.8306 197.886)" stroke="#2638FF" stroke-width="0.324447" stroke-linecap="round" stroke-linejoin="bevel" stroke-dasharray="0.65 1.3"/>
<rect x="0.280979" width="119.887" height="119.887" transform="matrix(0.866025 -0.5 0.866025 0.5 101.811 200.047)" fill="#F2F4FB" stroke="#2638FF" stroke-width="0.324447" stroke-linecap="round" stroke-linejoin="bevel" stroke-dasharray="0.65 1.3"/>
<rect x="0.280979" width="156.01" height="156.01" transform="matrix(0.866025 -0.5 0.866025 0.5 70.0142 124.668)" fill="#DBDEFF" stroke="#2638FF" stroke-width="0.324447"/>
<rect x="0.280979" width="156.01" height="156.01" transform="matrix(0.866025 -0.5 0.866025 0.5 70.0142 118.179)" fill="#F2F4FB" stroke="#2638FF" stroke-width="0.324447"/>
<rect x="0.561958" width="124.498" height="124.498" transform="matrix(0.866025 -0.5 0.866025 0.5 97.3058 118.299)" fill="#F2F4FB" stroke="#2638FF" stroke-width="0.648894"/>
<rect x="0.561958" width="78.5658" height="78.5658" transform="matrix(0.866025 -0.5 0.866025 0.5 136.888 78.7165)" fill="#B7BDFF" stroke="#2638FF" stroke-width="0.648894"/>
<rect x="0.561958" width="78.5658" height="78.5658" transform="matrix(0.866025 -0.5 0.866025 0.5 136.888 72.2273)" fill="#DBDEFF" stroke="#2638FF" stroke-width="0.648894"/>
<g style="mix-blend-mode:multiply">
<path d="M202.788 51.186C210.985 46.4536 224.275 46.4536 232.472 51.186C240.669 55.9185 240.669 63.5913 232.472 68.3237C224.275 73.0561 210.985 73.0562 202.788 68.3237C194.592 63.5913 194.592 55.9185 202.788 51.186Z" fill="#2638FF"/>
<path d="M202.788 51.186C210.985 46.4536 224.275 46.4536 232.472 51.186C240.669 55.9185 240.669 63.5913 232.472 68.3237C224.275 73.0561 210.985 73.0562 202.788 68.3237C194.592 63.5913 194.592 55.9185 202.788 51.186Z" stroke="#2638FF" stroke-width="0.324447"/>
</g>
<circle cx="207.656" cy="44.5287" r="21.2043" fill="white" stroke="#2638FF" stroke-width="0.648894"/>
<rect x="9.66927e-09" y="0.162223" width="77.5428" height="77.5428" transform="matrix(-0.866025 0.5 0.866025 0.5 284.908 169.008)" fill="#DBDEFF" stroke="#2638FF" stroke-width="0.324447"/>
<rect x="9.66927e-09" y="0.162223" width="77.5428" height="77.5428" transform="matrix(-0.866025 0.5 0.866025 0.5 124.945 169.008)" fill="#DBDEFF" stroke="#2638FF" stroke-width="0.324447"/>
<rect x="1.93385e-08" y="0.324447" width="77.2183" height="77.2183" transform="matrix(-0.866025 0.5 0.866025 0.5 284.768 162.6)" fill="#F2F4FB" stroke="#2638FF" stroke-width="0.648894"/>
<rect x="1.93385e-08" y="0.324447" width="77.2183" height="77.2183" transform="matrix(-0.866025 0.5 0.866025 0.5 124.805 162.6)" fill="#F2F4FB" stroke="#2638FF" stroke-width="0.648894"/>
<circle cx="2.59557" cy="2.59557" r="2.43335" transform="matrix(0.866025 -0.5 0.866025 0.5 105.666 117.578)" fill="#F2F4FB" stroke="#2638FF" stroke-width="0.324447"/>
<circle cx="2.59557" cy="2.59557" r="2.43335" transform="matrix(0.866025 -0.5 0.866025 0.5 295.791 117.578)" fill="#F2F4FB" stroke="#2638FF" stroke-width="0.324447"/>
<circle cx="2.59557" cy="2.59557" r="2.43335" transform="matrix(0.866025 -0.5 0.866025 0.5 77.7637 117.578)" fill="#F2F4FB" stroke="#2638FF" stroke-width="0.324447"/>
<circle cx="2.59557" cy="2.59557" r="2.43335" transform="matrix(0.866025 -0.5 0.866025 0.5 322.396 117.578)" fill="#F2F4FB" stroke="#2638FF" stroke-width="0.324447"/>
<rect x="0.280979" width="48.9915" height="2.92002" transform="matrix(0.866025 -0.5 0.866025 0.5 275.713 228.84)" fill="#F2F4FB" stroke="#2638FF" stroke-width="0.324447"/>
<rect x="0.280979" width="48.9915" height="5.58015" transform="matrix(0.866025 -0.5 0.866025 0.5 66.7701 200.937)" fill="#F2F4FB" stroke="#2638FF" stroke-width="0.324447"/>
<rect x="0.280979" width="16.5355" height="5.58015" transform="matrix(0.866025 -0.5 0.866025 0.5 200.442 189.257)" fill="#F2F4FB" stroke="#2638FF" stroke-width="0.324447"/>
<rect x="0.280979" width="6.13656" height="5.58015" transform="matrix(0.866025 -0.5 0.866025 0.5 217.313 179.51)" fill="#F2F4FB" stroke="#2638FF" stroke-width="0.324447"/>
<rect x="0.280979" width="48.9915" height="2.92002" transform="matrix(0.866025 -0.5 0.866025 0.5 280.905 232.084)" fill="#F2F4FB" stroke="#2638FF" stroke-width="0.324447"/>
<path d="M205.596 120.046L204.659 120.983L205.596 121.92L206.532 120.983L205.596 120.046ZM205.596 177.724L206.532 176.788L205.596 175.851L204.659 176.788L205.596 177.724ZM205.433 121.304C205.433 121.393 205.506 121.466 205.596 121.466C205.685 121.466 205.758 121.393 205.758 121.304L205.596 121.304L205.433 121.304ZM205.758 122.586C205.758 122.497 205.685 122.424 205.596 122.424C205.506 122.424 205.433 122.497 205.433 122.586L205.596 122.586L205.758 122.586ZM205.433 123.228C205.433 123.318 205.506 123.39 205.596 123.39C205.685 123.39 205.758 123.318 205.758 123.228L205.596 123.228L205.433 123.228ZM205.758 124.511C205.758 124.421 205.685 124.349 205.596 124.349C205.506 124.349 205.433 124.421 205.433 124.511L205.596 124.511L205.758 124.511ZM205.433 125.152C205.433 125.242 205.506 125.314 205.596 125.314C205.685 125.314 205.758 125.242 205.758 125.152L205.596 125.152L205.433 125.152ZM205.758 126.435C205.758 126.346 205.685 126.273 205.596 126.273C205.506 126.273 205.433 126.346 205.433 126.435L205.596 126.435L205.758 126.435ZM205.433 127.077C205.433 127.166 205.506 127.239 205.596 127.239C205.685 127.239 205.758 127.166 205.758 127.077L205.596 127.077L205.433 127.077ZM205.758 128.359C205.758 128.27 205.685 128.197 205.596 128.197C205.506 128.197 205.433 128.27 205.433 128.359L205.596 128.359L205.758 128.359ZM205.433 129.001C205.433 129.09 205.506 129.163 205.596 129.163C205.685 129.163 205.758 129.09 205.758 129.001L205.596 129.001L205.433 129.001ZM205.758 130.284C205.758 130.194 205.685 130.121 205.596 130.121C205.506 130.121 205.433 130.194 205.433 130.284L205.596 130.284L205.758 130.284ZM205.433 130.925C205.433 131.015 205.506 131.087 205.596 131.087C205.685 131.087 205.758 131.015 205.758 130.925L205.596 130.925L205.433 130.925ZM205.758 132.208C205.758 132.118 205.685 132.046 205.596 132.046C205.506 132.046 205.433 132.118 205.433 132.208L205.596 132.208L205.758 132.208ZM205.433 132.849C205.433 132.939 205.506 133.012 205.596 133.012C205.685 133.012 205.758 132.939 205.758 132.849L205.596 132.849L205.433 132.849ZM205.758 134.132C205.758 134.043 205.685 133.97 205.596 133.97C205.506 133.97 205.433 134.043 205.433 134.132L205.596 134.132L205.758 134.132ZM205.433 134.774C205.433 134.863 205.506 134.936 205.596 134.936C205.685 134.936 205.758 134.863 205.758 134.774L205.596 134.774L205.433 134.774ZM205.758 136.057C205.758 135.967 205.685 135.894 205.596 135.894C205.506 135.894 205.433 135.967 205.433 136.057L205.596 136.057L205.758 136.057ZM205.433 136.698C205.433 136.788 205.506 136.86 205.596 136.86C205.685 136.86 205.758 136.788 205.758 136.698L205.596 136.698L205.433 136.698ZM205.758 137.981C205.758 137.891 205.685 137.819 205.596 137.819C205.506 137.819 205.433 137.891 205.433 137.981L205.596 137.981L205.758 137.981ZM205.433 138.622C205.433 138.712 205.506 138.785 205.596 138.785C205.685 138.785 205.758 138.712 205.758 138.622L205.596 138.622L205.433 138.622ZM205.758 139.905C205.758 139.816 205.685 139.743 205.596 139.743C205.506 139.743 205.433 139.816 205.433 139.905L205.596 139.905L205.758 139.905ZM205.433 140.547C205.433 140.636 205.506 140.709 205.596 140.709C205.685 140.709 205.758 140.636 205.758 140.547L205.596 140.547L205.433 140.547ZM205.758 141.83C205.758 141.74 205.685 141.667 205.596 141.667C205.506 141.667 205.433 141.74 205.433 141.83L205.596 141.83L205.758 141.83ZM205.433 142.471C205.433 142.561 205.506 142.633 205.596 142.633C205.685 142.633 205.758 142.561 205.758 142.471L205.596 142.471L205.433 142.471ZM205.758 143.754C205.758 143.664 205.685 143.592 205.596 143.592C205.506 143.592 205.433 143.664 205.433 143.754L205.596 143.754L205.758 143.754ZM205.433 144.395C205.433 144.485 205.506 144.558 205.596 144.558C205.685 144.558 205.758 144.485 205.758 144.395L205.596 144.395L205.433 144.395ZM205.758 145.678C205.758 145.589 205.685 145.516 205.596 145.516C205.506 145.516 205.433 145.589 205.433 145.678L205.596 145.678L205.758 145.678ZM205.433 146.32C205.433 146.409 205.506 146.482 205.596 146.482C205.685 146.482 205.758 146.409 205.758 146.32L205.596 146.32L205.433 146.32ZM205.758 147.602C205.758 147.513 205.685 147.44 205.596 147.44C205.506 147.44 205.433 147.513 205.433 147.602L205.596 147.602L205.758 147.602ZM205.433 148.244C205.433 148.333 205.506 148.406 205.596 148.406C205.685 148.406 205.758 148.333 205.758 148.244L205.596 148.244L205.433 148.244ZM205.758 149.527C205.758 149.437 205.685 149.365 205.596 149.365C205.506 149.365 205.433 149.437 205.433 149.527L205.596 149.527L205.758 149.527ZM205.433 150.168C205.433 150.258 205.506 150.33 205.596 150.33C205.685 150.33 205.758 150.258 205.758 150.168L205.596 150.168L205.433 150.168ZM205.758 151.451C205.758 151.361 205.685 151.289 205.596 151.289C205.506 151.289 205.433 151.361 205.433 151.451L205.596 151.451L205.758 151.451ZM205.433 152.093C205.433 152.182 205.506 152.255 205.596 152.255C205.685 152.255 205.758 152.182 205.758 152.093L205.596 152.093L205.433 152.093ZM205.758 153.375C205.758 153.286 205.685 153.213 205.596 153.213C205.506 153.213 205.433 153.286 205.433 153.375L205.596 153.375L205.758 153.375ZM205.433 154.017C205.433 154.106 205.506 154.179 205.596 154.179C205.685 154.179 205.758 154.106 205.758 154.017L205.596 154.017L205.433 154.017ZM205.758 155.3C205.758 155.21 205.685 155.137 205.596 155.137C205.506 155.137 205.433 155.21 205.433 155.3L205.596 155.3L205.758 155.3ZM205.433 155.941C205.433 156.031 205.506 156.103 205.596 156.103C205.685 156.103 205.758 156.031 205.758 155.941L205.596 155.941L205.433 155.941ZM205.758 157.224C205.758 157.134 205.685 157.062 205.596 157.062C205.506 157.062 205.433 157.134 205.433 157.224L205.596 157.224L205.758 157.224ZM205.433 157.865C205.433 157.955 205.506 158.028 205.596 158.028C205.685 158.028 205.758 157.955 205.758 157.865L205.596 157.865L205.433 157.865ZM205.758 159.148C205.758 159.059 205.685 158.986 205.596 158.986C205.506 158.986 205.433 159.059 205.433 159.148L205.596 159.148L205.758 159.148ZM205.433 159.79C205.433 159.879 205.506 159.952 205.596 159.952C205.685 159.952 205.758 159.879 205.758 159.79L205.596 159.79L205.433 159.79ZM205.758 161.073C205.758 160.983 205.685 160.91 205.596 160.91C205.506 160.91 205.433 160.983 205.433 161.073L205.596 161.073L205.758 161.073ZM205.433 161.714C205.433 161.804 205.506 161.876 205.596 161.876C205.685 161.876 205.758 161.804 205.758 161.714L205.596 161.714L205.433 161.714ZM205.758 162.997C205.758 162.907 205.685 162.835 205.596 162.835C205.506 162.835 205.433 162.907 205.433 162.997L205.596 162.997L205.758 162.997ZM205.433 163.638C205.433 163.728 205.506 163.801 205.596 163.801C205.685 163.801 205.758 163.728 205.758 163.638L205.596 163.638L205.433 163.638ZM205.758 164.921C205.758 164.832 205.685 164.759 205.596 164.759C205.506 164.759 205.433 164.832 205.433 164.921L205.596 164.921L205.758 164.921ZM205.433 165.563C205.433 165.652 205.506 165.725 205.596 165.725C205.685 165.725 205.758 165.652 205.758 165.563L205.596 165.563L205.433 165.563ZM205.758 166.846C205.758 166.756 205.685 166.683 205.596 166.683C205.506 166.683 205.433 166.756 205.433 166.846L205.596 166.846L205.758 166.846ZM205.433 167.487C205.433 167.577 205.506 167.649 205.596 167.649C205.685 167.649 205.758 167.577 205.758 167.487L205.596 167.487L205.433 167.487ZM205.758 168.77C205.758 168.68 205.685 168.608 205.596 168.608C205.506 168.608 205.433 168.68 205.433 168.77L205.596 168.77L205.758 168.77ZM205.433 169.411C205.433 169.501 205.506 169.573 205.596 169.573C205.685 169.573 205.758 169.501 205.758 169.411L205.596 169.411L205.433 169.411ZM205.758 170.694C205.758 170.605 205.685 170.532 205.596 170.532C205.506 170.532 205.433 170.605 205.433 170.694L205.596 170.694L205.758 170.694ZM205.433 171.336C205.433 171.425 205.506 171.498 205.596 171.498C205.685 171.498 205.758 171.425 205.758 171.336L205.596 171.336L205.433 171.336ZM205.758 172.618C205.758 172.529 205.685 172.456 205.596 172.456C205.506 172.456 205.433 172.529 205.433 172.618L205.596 172.618L205.758 172.618ZM205.433 173.26C205.433 173.349 205.506 173.422 205.596 173.422C205.685 173.422 205.758 173.349 205.758 173.26L205.596 173.26L205.433 173.26ZM205.758 174.543C205.758 174.453 205.685 174.381 205.596 174.381C205.506 174.381 205.433 174.453 205.433 174.543L205.596 174.543L205.758 174.543ZM205.433 175.184C205.433 175.274 205.506 175.346 205.596 175.346C205.685 175.346 205.758 175.274 205.758 175.184L205.596 175.184L205.433 175.184ZM205.758 176.467C205.758 176.377 205.685 176.305 205.596 176.305C205.506 176.305 205.433 176.377 205.433 176.467L205.596 176.467L205.758 176.467ZM205.596 120.983L205.433 120.983L205.433 121.304L205.596 121.304L205.758 121.304L205.758 120.983L205.596 120.983ZM205.596 122.586L205.433 122.586L205.433 123.228L205.596 123.228L205.758 123.228L205.758 122.586L205.596 122.586ZM205.596 124.511L205.433 124.511L205.433 125.152L205.596 125.152L205.758 125.152L205.758 124.511L205.596 124.511ZM205.596 126.435L205.433 126.435L205.433 127.077L205.596 127.077L205.758 127.077L205.758 126.435L205.596 126.435ZM205.596 128.359L205.433 128.359L205.433 129.001L205.596 129.001L205.758 129.001L205.758 128.359L205.596 128.359ZM205.596 130.284L205.433 130.284L205.433 130.925L205.596 130.925L205.758 130.925L205.758 130.284L205.596 130.284ZM205.596 132.208L205.433 132.208L205.433 132.849L205.596 132.849L205.758 132.849L205.758 132.208L205.596 132.208ZM205.596 134.132L205.433 134.132L205.433 134.774L205.596 134.774L205.758 134.774L205.758 134.132L205.596 134.132ZM205.596 136.057L205.433 136.057L205.433 136.698L205.596 136.698L205.758 136.698L205.758 136.057L205.596 136.057ZM205.596 137.981L205.433 137.981L205.433 138.622L205.596 138.622L205.758 138.622L205.758 137.981L205.596 137.981ZM205.596 139.905L205.433 139.905L205.433 140.547L205.596 140.547L205.758 140.547L205.758 139.905L205.596 139.905ZM205.596 141.83L205.433 141.83L205.433 142.471L205.596 142.471L205.758 142.471L205.758 141.83L205.596 141.83ZM205.596 143.754L205.433 143.754L205.433 144.395L205.596 144.395L205.758 144.395L205.758 143.754L205.596 143.754ZM205.596 145.678L205.433 145.678L205.433 146.32L205.596 146.32L205.758 146.32L205.758 145.678L205.596 145.678ZM205.596 147.602L205.433 147.602L205.433 148.244L205.596 148.244L205.758 148.244L205.758 147.602L205.596 147.602ZM205.596 149.527L205.433 149.527L205.433 150.168L205.596 150.168L205.758 150.168L205.758 149.527L205.596 149.527ZM205.596 151.451L205.433 151.451L205.433 152.093L205.596 152.093L205.758 152.093L205.758 151.451L205.596 151.451ZM205.596 153.375L205.433 153.375L205.433 154.017L205.596 154.017L205.758 154.017L205.758 153.375L205.596 153.375ZM205.596 155.3L205.433 155.3L205.433 155.941L205.596 155.941L205.758 155.941L205.758 155.3L205.596 155.3ZM205.596 157.224L205.433 157.224L205.433 157.865L205.596 157.865L205.758 157.865L205.758 157.224L205.596 157.224ZM205.596 159.148L205.433 159.148L205.433 159.79L205.596 159.79L205.758 159.79L205.758 159.148L205.596 159.148ZM205.596 161.073L205.433 161.073L205.433 161.714L205.596 161.714L205.758 161.714L205.758 161.073L205.596 161.073ZM205.596 162.997L205.433 162.997L205.433 163.638L205.596 163.638L205.758 163.638L205.758 162.997L205.596 162.997ZM205.596 164.921L205.433 164.921L205.433 165.563L205.596 165.563L205.758 165.563L205.758 164.921L205.596 164.921ZM205.596 166.846L205.433 166.846L205.433 167.487L205.596 167.487L205.758 167.487L205.758 166.846L205.596 166.846ZM205.596 168.77L205.433 168.77L205.433 169.411L205.596 169.411L205.758 169.411L205.758 168.77L205.596 168.77ZM205.596 170.694L205.433 170.694L205.433 171.336L205.596 171.336L205.758 171.336L205.758 170.694L205.596 170.694ZM205.596 172.618L205.433 172.618L205.433 173.26L205.596 173.26L205.758 173.26L205.758 172.618L205.596 172.618ZM205.596 174.543L205.433 174.543L205.433 175.184L205.596 175.184L205.758 175.184L205.758 174.543L205.596 174.543ZM205.596 176.467L205.433 176.467L205.433 176.788L205.596 176.788L205.758 176.788L205.758 176.467L205.596 176.467Z" fill="#2638FF"/>
<path d="M136.812 81.7616L135.876 82.6982L136.813 83.6348L137.749 82.6982L136.812 81.7616ZM136.813 138.142L137.749 137.205L136.813 136.269L135.876 137.205L136.813 138.142ZM136.65 83.0227C136.65 83.1123 136.723 83.1849 136.813 83.1849C136.902 83.1849 136.975 83.1123 136.975 83.0227L136.813 83.0227L136.65 83.0227ZM136.975 84.3205C136.975 84.2309 136.902 84.1583 136.813 84.1583C136.723 84.1583 136.65 84.2309 136.65 84.3205L136.813 84.3205L136.975 84.3205ZM136.65 84.9694C136.65 85.059 136.723 85.1316 136.813 85.1316C136.902 85.1316 136.975 85.059 136.975 84.9694L136.813 84.9694L136.65 84.9694ZM136.975 86.2672C136.975 86.1776 136.902 86.1049 136.813 86.1049C136.723 86.1049 136.65 86.1776 136.65 86.2672L136.813 86.2672L136.975 86.2672ZM136.65 86.916C136.65 87.0056 136.723 87.0783 136.813 87.0783C136.902 87.0783 136.975 87.0056 136.975 86.916L136.813 86.916L136.65 86.916ZM136.975 88.2138C136.975 88.1242 136.902 88.0516 136.813 88.0516C136.723 88.0516 136.65 88.1242 136.65 88.2138L136.813 88.2138L136.975 88.2138ZM136.65 88.8627C136.65 88.9523 136.723 89.025 136.813 89.025C136.902 89.025 136.975 88.9523 136.975 88.8627L136.813 88.8627L136.65 88.8627ZM136.975 90.1605C136.975 90.0709 136.902 89.9983 136.813 89.9983C136.723 89.9983 136.65 90.0709 136.65 90.1605L136.813 90.1605L136.975 90.1605ZM136.65 90.8094C136.65 90.899 136.723 90.9716 136.813 90.9716C136.902 90.9716 136.975 90.899 136.975 90.8094L136.813 90.8094L136.65 90.8094ZM136.975 92.1072C136.975 92.0176 136.902 91.945 136.813 91.945C136.723 91.945 136.65 92.0176 136.65 92.1072L136.813 92.1072L136.975 92.1072ZM136.65 92.7561C136.65 92.8457 136.723 92.9183 136.813 92.9183C136.902 92.9183 136.975 92.8457 136.975 92.7561L136.813 92.7561L136.65 92.7561ZM136.975 94.0539C136.975 93.9643 136.902 93.8917 136.813 93.8917C136.723 93.8917 136.65 93.9643 136.65 94.0539L136.813 94.0539L136.975 94.0539ZM136.65 94.7028C136.65 94.7924 136.723 94.865 136.813 94.865C136.902 94.865 136.975 94.7924 136.975 94.7028L136.813 94.7028L136.65 94.7028ZM136.975 96.0006C136.975 95.911 136.902 95.8383 136.813 95.8383C136.723 95.8383 136.65 95.911 136.65 96.0006L136.813 96.0006L136.975 96.0006ZM136.65 96.6495C136.65 96.739 136.723 96.8117 136.813 96.8117C136.902 96.8117 136.975 96.739 136.975 96.6495L136.813 96.6495L136.65 96.6495ZM136.975 97.9472C136.975 97.8576 136.902 97.785 136.813 97.785C136.723 97.785 136.65 97.8576 136.65 97.9472L136.813 97.9472L136.975 97.9472ZM136.65 98.5961C136.65 98.6857 136.723 98.7584 136.813 98.7584C136.902 98.7584 136.975 98.6857 136.975 98.5961L136.813 98.5961L136.65 98.5961ZM136.975 99.8939C136.975 99.8043 136.902 99.7317 136.813 99.7317C136.723 99.7317 136.65 99.8043 136.65 99.8939L136.813 99.8939L136.975 99.8939ZM136.65 100.543C136.65 100.632 136.723 100.705 136.813 100.705C136.902 100.705 136.975 100.632 136.975 100.543L136.813 100.543L136.65 100.543ZM136.975 101.841C136.975 101.751 136.902 101.678 136.813 101.678C136.723 101.678 136.65 101.751 136.65 101.841L136.813 101.841L136.975 101.841ZM136.65 102.489C136.65 102.579 136.723 102.652 136.813 102.652C136.902 102.652 136.975 102.579 136.975 102.489L136.813 102.489L136.65 102.489ZM136.975 103.787C136.975 103.698 136.902 103.625 136.813 103.625C136.723 103.625 136.65 103.698 136.65 103.787L136.813 103.787L136.975 103.787ZM136.65 104.436C136.65 104.526 136.723 104.598 136.813 104.598C136.902 104.598 136.975 104.526 136.975 104.436L136.813 104.436L136.65 104.436ZM136.975 105.734C136.975 105.644 136.902 105.572 136.813 105.572C136.723 105.572 136.65 105.644 136.65 105.734L136.813 105.734L136.975 105.734ZM136.65 106.383C136.65 106.472 136.723 106.545 136.813 106.545C136.902 106.545 136.975 106.472 136.975 106.383L136.813 106.383L136.65 106.383ZM136.975 107.681C136.975 107.591 136.902 107.518 136.813 107.518C136.723 107.518 136.65 107.591 136.65 107.681L136.813 107.681L136.975 107.681ZM136.65 108.33C136.65 108.419 136.723 108.492 136.813 108.492C136.902 108.492 136.975 108.419 136.975 108.33L136.813 108.33L136.65 108.33ZM136.975 109.627C136.975 109.538 136.902 109.465 136.813 109.465C136.723 109.465 136.65 109.538 136.65 109.627L136.813 109.627L136.975 109.627ZM136.65 110.276C136.65 110.366 136.723 110.438 136.813 110.438C136.902 110.438 136.975 110.366 136.975 110.276L136.813 110.276L136.65 110.276ZM136.975 111.574C136.975 111.484 136.902 111.412 136.813 111.412C136.723 111.412 136.65 111.484 136.65 111.574L136.813 111.574L136.975 111.574ZM136.65 112.223C136.65 112.312 136.723 112.385 136.813 112.385C136.902 112.385 136.975 112.312 136.975 112.223L136.813 112.223L136.65 112.223ZM136.975 113.521C136.975 113.431 136.902 113.358 136.813 113.358C136.723 113.358 136.65 113.431 136.65 113.521L136.813 113.521L136.975 113.521ZM136.65 114.17C136.65 114.259 136.723 114.332 136.813 114.332C136.902 114.332 136.975 114.259 136.975 114.17L136.813 114.17L136.65 114.17ZM136.975 115.467C136.975 115.378 136.902 115.305 136.813 115.305C136.723 115.305 136.65 115.378 136.65 115.467L136.813 115.467L136.975 115.467ZM136.65 116.116C136.65 116.206 136.723 116.278 136.813 116.278C136.902 116.278 136.975 116.206 136.975 116.116L136.813 116.116L136.65 116.116ZM136.975 117.414C136.975 117.324 136.902 117.252 136.813 117.252C136.723 117.252 136.65 117.324 136.65 117.414L136.813 117.414L136.975 117.414ZM136.65 118.063C136.65 118.153 136.723 118.225 136.813 118.225C136.902 118.225 136.975 118.153 136.975 118.063L136.813 118.063L136.65 118.063ZM136.975 119.361C136.975 119.271 136.902 119.199 136.813 119.199C136.723 119.199 136.65 119.271 136.65 119.361L136.813 119.361L136.975 119.361ZM136.65 120.01C136.65 120.099 136.723 120.172 136.813 120.172C136.902 120.172 136.975 120.099 136.975 120.01L136.813 120.01L136.65 120.01ZM136.975 121.307C136.975 121.218 136.902 121.145 136.813 121.145C136.723 121.145 136.65 121.218 136.65 121.307L136.813 121.307L136.975 121.307ZM136.65 121.956C136.65 122.046 136.723 122.119 136.813 122.119C136.902 122.119 136.975 122.046 136.975 121.956L136.813 121.956L136.65 121.956ZM136.975 123.254C136.975 123.164 136.902 123.092 136.813 123.092C136.723 123.092 136.65 123.164 136.65 123.254L136.813 123.254L136.975 123.254ZM136.65 123.903C136.65 123.993 136.723 124.065 136.813 124.065C136.902 124.065 136.975 123.993 136.975 123.903L136.813 123.903L136.65 123.903ZM136.975 125.201C136.975 125.111 136.902 125.039 136.813 125.039C136.723 125.039 136.65 125.111 136.65 125.201L136.813 125.201L136.975 125.201ZM136.65 125.85C136.65 125.939 136.723 126.012 136.813 126.012C136.902 126.012 136.975 125.939 136.975 125.85L136.813 125.85L136.65 125.85ZM136.975 127.147C136.975 127.058 136.902 126.985 136.813 126.985C136.723 126.985 136.65 127.058 136.65 127.147L136.813 127.147L136.975 127.147ZM136.65 127.796C136.65 127.886 136.723 127.959 136.813 127.959C136.902 127.959 136.975 127.886 136.975 127.796L136.813 127.796L136.65 127.796ZM136.975 129.094C136.975 129.005 136.902 128.932 136.813 128.932C136.723 128.932 136.65 129.005 136.65 129.094L136.813 129.094L136.975 129.094ZM136.65 129.743C136.65 129.833 136.723 129.905 136.813 129.905C136.902 129.905 136.975 129.833 136.975 129.743L136.813 129.743L136.65 129.743ZM136.975 131.041C136.975 130.951 136.902 130.879 136.813 130.879C136.723 130.879 136.65 130.951 136.65 131.041L136.813 131.041L136.975 131.041ZM136.65 131.69C136.65 131.779 136.723 131.852 136.813 131.852C136.902 131.852 136.975 131.779 136.975 131.69L136.813 131.69L136.65 131.69ZM136.975 132.987C136.975 132.898 136.902 132.825 136.813 132.825C136.723 132.825 136.65 132.898 136.65 132.987L136.813 132.987L136.975 132.987ZM136.65 133.636C136.65 133.726 136.723 133.799 136.813 133.799C136.902 133.799 136.975 133.726 136.975 133.636L136.813 133.636L136.65 133.636ZM136.975 134.934C136.975 134.845 136.902 134.772 136.813 134.772C136.723 134.772 136.65 134.845 136.65 134.934L136.813 134.934L136.975 134.934ZM136.65 135.583C136.65 135.673 136.723 135.745 136.813 135.745C136.902 135.745 136.975 135.673 136.975 135.583L136.813 135.583L136.65 135.583ZM136.975 136.881C136.975 136.791 136.902 136.719 136.813 136.719C136.723 136.719 136.65 136.791 136.65 136.881L136.813 136.881L136.975 136.881ZM136.812 82.6982L136.65 82.6982L136.65 83.0227L136.813 83.0227L136.975 83.0227L136.975 82.6982L136.812 82.6982ZM136.813 84.3205L136.65 84.3205L136.65 84.9694L136.813 84.9694L136.975 84.9694L136.975 84.3205L136.813 84.3205ZM136.813 86.2672L136.65 86.2672L136.65 86.916L136.813 86.916L136.975 86.916L136.975 86.2672L136.813 86.2672ZM136.813 88.2138L136.65 88.2138L136.65 88.8627L136.813 88.8627L136.975 88.8627L136.975 88.2138L136.813 88.2138ZM136.813 90.1605L136.65 90.1605L136.65 90.8094L136.813 90.8094L136.975 90.8094L136.975 90.1605L136.813 90.1605ZM136.813 92.1072L136.65 92.1072L136.65 92.7561L136.813 92.7561L136.975 92.7561L136.975 92.1072L136.813 92.1072ZM136.813 94.0539L136.65 94.0539L136.65 94.7028L136.813 94.7028L136.975 94.7028L136.975 94.0539L136.813 94.0539ZM136.813 96.0006L136.65 96.0006L136.65 96.6495L136.813 96.6495L136.975 96.6495L136.975 96.0006L136.813 96.0006ZM136.813 97.9472L136.65 97.9472L136.65 98.5961L136.813 98.5961L136.975 98.5961L136.975 97.9472L136.813 97.9472ZM136.813 99.8939L136.65 99.8939L136.65 100.543L136.813 100.543L136.975 100.543L136.975 99.8939L136.813 99.8939ZM136.813 101.841L136.65 101.841L136.65 102.489L136.813 102.489L136.975 102.489L136.975 101.841L136.813 101.841ZM136.813 103.787L136.65 103.787L136.65 104.436L136.813 104.436L136.975 104.436L136.975 103.787L136.813 103.787ZM136.813 105.734L136.65 105.734L136.65 106.383L136.813 106.383L136.975 106.383L136.975 105.734L136.813 105.734ZM136.813 107.681L136.65 107.681L136.65 108.33L136.813 108.33L136.975 108.33L136.975 107.681L136.813 107.681ZM136.813 109.627L136.65 109.627L136.65 110.276L136.813 110.276L136.975 110.276L136.975 109.627L136.813 109.627ZM136.813 111.574L136.65 111.574L136.65 112.223L136.813 112.223L136.975 112.223L136.975 111.574L136.813 111.574ZM136.813 113.521L136.65 113.521L136.65 114.17L136.813 114.17L136.975 114.17L136.975 113.521L136.813 113.521ZM136.813 115.467L136.65 115.467L136.65 116.116L136.813 116.116L136.975 116.116L136.975 115.467L136.813 115.467ZM136.813 117.414L136.65 117.414L136.65 118.063L136.813 118.063L136.975 118.063L136.975 117.414L136.813 117.414ZM136.813 119.361L136.65 119.361L136.65 120.01L136.813 120.01L136.975 120.01L136.975 119.361L136.813 119.361ZM136.813 121.307L136.65 121.307L136.65 121.956L136.813 121.956L136.975 121.956L136.975 121.307L136.813 121.307ZM136.813 123.254L136.65 123.254L136.65 123.903L136.813 123.903L136.975 123.903L136.975 123.254L136.813 123.254ZM136.813 125.201L136.65 125.201L136.65 125.85L136.813 125.85L136.975 125.85L136.975 125.201L136.813 125.201ZM136.813 127.147L136.65 127.147L136.65 127.796L136.813 127.796L136.975 127.796L136.975 127.147L136.813 127.147ZM136.813 129.094L136.65 129.094L136.65 129.743L136.813 129.743L136.975 129.743L136.975 129.094L136.813 129.094ZM136.813 131.041L136.65 131.041L136.65 131.69L136.813 131.69L136.975 131.69L136.975 131.041L136.813 131.041ZM136.813 132.987L136.65 132.987L136.65 133.636L136.813 133.636L136.975 133.636L136.975 132.987L136.813 132.987ZM136.813 134.934L136.65 134.934L136.65 135.583L136.813 135.583L136.975 135.583L136.975 134.934L136.813 134.934ZM136.813 136.881L136.65 136.881L136.65 137.205L136.813 137.205L136.975 137.205L136.975 136.881L136.813 136.881Z" fill="#2638FF"/>
<path d="M273.73 81.7616L272.794 82.6982L273.73 83.6348L274.667 82.6982L273.73 81.7616ZM273.73 138.791L274.667 137.854L273.73 136.918L272.794 137.854L273.73 138.791ZM273.568 83.0266C273.568 83.1161 273.641 83.1888 273.73 83.1888C273.82 83.1888 273.893 83.1161 273.893 83.0266L273.73 83.0266L273.568 83.0266ZM273.893 84.3398C273.893 84.2502 273.82 84.1776 273.73 84.1776C273.641 84.1776 273.568 84.2502 273.568 84.3398L273.73 84.3398L273.893 84.3398ZM273.568 84.9964C273.568 85.086 273.641 85.1586 273.73 85.1586C273.82 85.1586 273.893 85.086 273.893 84.9964L273.73 84.9964L273.568 84.9964ZM273.893 86.3096C273.893 86.2201 273.82 86.1474 273.73 86.1474C273.641 86.1474 273.568 86.2201 273.568 86.3096L273.73 86.3096L273.893 86.3096ZM273.568 86.9663C273.568 87.0559 273.641 87.1285 273.73 87.1285C273.82 87.1285 273.893 87.0559 273.893 86.9663L273.73 86.9663L273.568 86.9663ZM273.893 88.2795C273.893 88.1899 273.82 88.1173 273.73 88.1173C273.641 88.1173 273.568 88.1899 273.568 88.2795L273.73 88.2795L273.893 88.2795ZM273.568 88.9361C273.568 89.0257 273.641 89.0983 273.73 89.0983C273.82 89.0983 273.893 89.0257 273.893 88.9361L273.73 88.9361L273.568 88.9361ZM273.893 90.2494C273.893 90.1598 273.82 90.0871 273.73 90.0871C273.641 90.0871 273.568 90.1598 273.568 90.2494L273.73 90.2494L273.893 90.2494ZM273.568 90.906C273.568 90.9956 273.641 91.0682 273.73 91.0682C273.82 91.0682 273.893 90.9956 273.893 90.906L273.73 90.906L273.568 90.906ZM273.893 92.2192C273.893 92.1296 273.82 92.057 273.73 92.057C273.641 92.057 273.568 92.1296 273.568 92.2192L273.73 92.2192L273.893 92.2192ZM273.568 92.8758C273.568 92.9654 273.641 93.0381 273.73 93.0381C273.82 93.0381 273.893 92.9654 273.893 92.8758L273.73 92.8758L273.568 92.8758ZM273.893 94.1891C273.893 94.0995 273.82 94.0268 273.73 94.0268C273.641 94.0268 273.568 94.0995 273.568 94.1891L273.73 94.1891L273.893 94.1891ZM273.568 94.8457C273.568 94.9353 273.641 95.0079 273.73 95.0079C273.82 95.0079 273.893 94.9353 273.893 94.8457L273.73 94.8457L273.568 94.8457ZM273.893 96.1589C273.893 96.0693 273.82 95.9967 273.73 95.9967C273.641 95.9967 273.568 96.0693 273.568 96.1589L273.73 96.1589L273.893 96.1589ZM273.568 96.8155C273.568 96.9051 273.641 96.9778 273.73 96.9778C273.82 96.9778 273.893 96.9051 273.893 96.8155L273.73 96.8155L273.568 96.8155ZM273.893 98.1288C273.893 98.0392 273.82 97.9666 273.73 97.9666C273.641 97.9666 273.568 98.0392 273.568 98.1288L273.73 98.1288L273.893 98.1288ZM273.568 98.7854C273.568 98.875 273.641 98.9476 273.73 98.9476C273.82 98.9476 273.893 98.875 273.893 98.7854L273.73 98.7854L273.568 98.7854ZM273.893 100.099C273.893 100.009 273.82 99.9364 273.73 99.9364C273.641 99.9364 273.568 100.009 273.568 100.099L273.73 100.099L273.893 100.099ZM273.568 100.755C273.568 100.845 273.641 100.917 273.73 100.917C273.82 100.917 273.893 100.845 273.893 100.755L273.73 100.755L273.568 100.755ZM273.893 102.068C273.893 101.979 273.82 101.906 273.73 101.906C273.641 101.906 273.568 101.979 273.568 102.068L273.73 102.068L273.893 102.068ZM273.568 102.725C273.568 102.815 273.641 102.887 273.73 102.887C273.82 102.887 273.893 102.815 273.893 102.725L273.73 102.725L273.568 102.725ZM273.893 104.038C273.893 103.949 273.82 103.876 273.73 103.876C273.641 103.876 273.568 103.949 273.568 104.038L273.73 104.038L273.893 104.038ZM273.568 104.695C273.568 104.785 273.641 104.857 273.73 104.857C273.82 104.857 273.893 104.785 273.893 104.695L273.73 104.695L273.568 104.695ZM273.893 106.008C273.893 105.919 273.82 105.846 273.73 105.846C273.641 105.846 273.568 105.919 273.568 106.008L273.73 106.008L273.893 106.008ZM273.568 106.665C273.568 106.754 273.641 106.827 273.73 106.827C273.82 106.827 273.893 106.754 273.893 106.665L273.73 106.665L273.568 106.665ZM273.893 107.978C273.893 107.888 273.82 107.816 273.73 107.816C273.641 107.816 273.568 107.888 273.568 107.978L273.73 107.978L273.893 107.978ZM273.568 108.635C273.568 108.724 273.641 108.797 273.73 108.797C273.82 108.797 273.893 108.724 273.893 108.635L273.73 108.635L273.568 108.635ZM273.893 109.948C273.893 109.858 273.82 109.786 273.73 109.786C273.641 109.786 273.568 109.858 273.568 109.948L273.73 109.948L273.893 109.948ZM273.568 110.605C273.568 110.694 273.641 110.767 273.73 110.767C273.82 110.767 273.893 110.694 273.893 110.605L273.73 110.605L273.568 110.605ZM273.893 111.918C273.893 111.828 273.82 111.756 273.73 111.756C273.641 111.756 273.568 111.828 273.568 111.918L273.73 111.918L273.893 111.918ZM273.568 112.574C273.568 112.664 273.641 112.737 273.73 112.737C273.82 112.737 273.893 112.664 273.893 112.574L273.73 112.574L273.568 112.574ZM273.893 113.888C273.893 113.798 273.82 113.725 273.73 113.725C273.641 113.725 273.568 113.798 273.568 113.888L273.73 113.888L273.893 113.888ZM273.568 114.544C273.568 114.634 273.641 114.706 273.73 114.706C273.82 114.706 273.893 114.634 273.893 114.544L273.73 114.544L273.568 114.544ZM273.893 115.857C273.893 115.768 273.82 115.695 273.73 115.695C273.641 115.695 273.568 115.768 273.568 115.857L273.73 115.857L273.893 115.857ZM273.568 116.514C273.568 116.604 273.641 116.676 273.73 116.676C273.82 116.676 273.893 116.604 273.893 116.514L273.73 116.514L273.568 116.514ZM273.893 117.827C273.893 117.738 273.82 117.665 273.73 117.665C273.641 117.665 273.568 117.738 273.568 117.827L273.73 117.827L273.893 117.827ZM273.568 118.484C273.568 118.574 273.641 118.646 273.73 118.646C273.82 118.646 273.893 118.574 273.893 118.484L273.73 118.484L273.568 118.484ZM273.893 119.797C273.893 119.708 273.82 119.635 273.73 119.635C273.641 119.635 273.568 119.708 273.568 119.797L273.73 119.797L273.893 119.797ZM273.568 120.454C273.568 120.543 273.641 120.616 273.73 120.616C273.82 120.616 273.893 120.543 273.893 120.454L273.73 120.454L273.568 120.454ZM273.893 121.767C273.893 121.677 273.82 121.605 273.73 121.605C273.641 121.605 273.568 121.677 273.568 121.767L273.73 121.767L273.893 121.767ZM273.568 122.424C273.568 122.513 273.641 122.586 273.73 122.586C273.82 122.586 273.893 122.513 273.893 122.424L273.73 122.424L273.568 122.424ZM273.893 123.737C273.893 123.647 273.82 123.575 273.73 123.575C273.641 123.575 273.568 123.647 273.568 123.737L273.73 123.737L273.893 123.737ZM273.568 124.394C273.568 124.483 273.641 124.556 273.73 124.556C273.82 124.556 273.893 124.483 273.893 124.394L273.73 124.394L273.568 124.394ZM273.893 125.707C273.893 125.617 273.82 125.545 273.73 125.545C273.641 125.545 273.568 125.617 273.568 125.707L273.73 125.707L273.893 125.707ZM273.568 126.363C273.568 126.453 273.641 126.526 273.73 126.526C273.82 126.526 273.893 126.453 273.893 126.363L273.73 126.363L273.568 126.363ZM273.893 127.677C273.893 127.587 273.82 127.514 273.73 127.514C273.641 127.514 273.568 127.587 273.568 127.677L273.73 127.677L273.893 127.677ZM273.568 128.333C273.568 128.423 273.641 128.495 273.73 128.495C273.82 128.495 273.893 128.423 273.893 128.333L273.73 128.333L273.568 128.333ZM273.893 129.646C273.893 129.557 273.82 129.484 273.73 129.484C273.641 129.484 273.568 129.557 273.568 129.646L273.73 129.646L273.893 129.646ZM273.568 130.303C273.568 130.393 273.641 130.465 273.73 130.465C273.82 130.465 273.893 130.393 273.893 130.303L273.73 130.303L273.568 130.303ZM273.893 131.616C273.893 131.527 273.82 131.454 273.73 131.454C273.641 131.454 273.568 131.527 273.568 131.616L273.73 131.616L273.893 131.616ZM273.568 132.273C273.568 132.363 273.641 132.435 273.73 132.435C273.82 132.435 273.893 132.363 273.893 132.273L273.73 132.273L273.568 132.273ZM273.893 133.586C273.893 133.497 273.82 133.424 273.73 133.424C273.641 133.424 273.568 133.497 273.568 133.586L273.73 133.586L273.893 133.586ZM273.568 134.243C273.568 134.332 273.641 134.405 273.73 134.405C273.82 134.405 273.893 134.332 273.893 134.243L273.73 134.243L273.568 134.243ZM273.893 135.556C273.893 135.466 273.82 135.394 273.73 135.394C273.641 135.394 273.568 135.466 273.568 135.556L273.73 135.556L273.893 135.556ZM273.568 136.213C273.568 136.302 273.641 136.375 273.73 136.375C273.82 136.375 273.893 136.302 273.893 136.213L273.73 136.213L273.568 136.213ZM273.893 137.526C273.893 137.436 273.82 137.364 273.73 137.364C273.641 137.364 273.568 137.436 273.568 137.526L273.73 137.526L273.893 137.526ZM273.73 82.6982L273.568 82.6982L273.568 83.0266L273.73 83.0266L273.893 83.0266L273.893 82.6982L273.73 82.6982ZM273.73 84.3398L273.568 84.3398L273.568 84.9964L273.73 84.9964L273.893 84.9964L273.893 84.3398L273.73 84.3398ZM273.73 86.3096L273.568 86.3096L273.568 86.9663L273.73 86.9663L273.893 86.9663L273.893 86.3096L273.73 86.3096ZM273.73 88.2795L273.568 88.2795L273.568 88.9361L273.73 88.9361L273.893 88.9361L273.893 88.2795L273.73 88.2795ZM273.73 90.2494L273.568 90.2494L273.568 90.906L273.73 90.906L273.893 90.906L273.893 90.2494L273.73 90.2494ZM273.73 92.2192L273.568 92.2192L273.568 92.8758L273.73 92.8758L273.893 92.8758L273.893 92.2192L273.73 92.2192ZM273.73 94.1891L273.568 94.1891L273.568 94.8457L273.73 94.8457L273.893 94.8457L273.893 94.1891L273.73 94.1891ZM273.73 96.1589L273.568 96.1589L273.568 96.8155L273.73 96.8155L273.893 96.8155L273.893 96.1589L273.73 96.1589ZM273.73 98.1288L273.568 98.1288L273.568 98.7854L273.73 98.7854L273.893 98.7854L273.893 98.1288L273.73 98.1288ZM273.73 100.099L273.568 100.099L273.568 100.755L273.73 100.755L273.893 100.755L273.893 100.099L273.73 100.099ZM273.73 102.068L273.568 102.068L273.568 102.725L273.73 102.725L273.893 102.725L273.893 102.068L273.73 102.068ZM273.73 104.038L273.568 104.038L273.568 104.695L273.73 104.695L273.893 104.695L273.893 104.038L273.73 104.038ZM273.73 106.008L273.568 106.008L273.568 106.665L273.73 106.665L273.893 106.665L273.893 106.008L273.73 106.008ZM273.73 107.978L273.568 107.978L273.568 108.635L273.73 108.635L273.893 108.635L273.893 107.978L273.73 107.978ZM273.73 109.948L273.568 109.948L273.568 110.605L273.73 110.605L273.893 110.605L273.893 109.948L273.73 109.948ZM273.73 111.918L273.568 111.918L273.568 112.574L273.73 112.574L273.893 112.574L273.893 111.918L273.73 111.918ZM273.73 113.888L273.568 113.888L273.568 114.544L273.73 114.544L273.893 114.544L273.893 113.888L273.73 113.888ZM273.73 115.857L273.568 115.857L273.568 116.514L273.73 116.514L273.893 116.514L273.893 115.857L273.73 115.857ZM273.73 117.827L273.568 117.827L273.568 118.484L273.73 118.484L273.893 118.484L273.893 117.827L273.73 117.827ZM273.73 119.797L273.568 119.797L273.568 120.454L273.73 120.454L273.893 120.454L273.893 119.797L273.73 119.797ZM273.73 121.767L273.568 121.767L273.568 122.424L273.73 122.424L273.893 122.424L273.893 121.767L273.73 121.767ZM273.73 123.737L273.568 123.737L273.568 124.394L273.73 124.394L273.893 124.394L273.893 123.737L273.73 123.737ZM273.73 125.707L273.568 125.707L273.568 126.363L273.73 126.363L273.893 126.363L273.893 125.707L273.73 125.707ZM273.73 127.677L273.568 127.677L273.568 128.333L273.73 128.333L273.893 128.333L273.893 127.677L273.73 127.677ZM273.73 129.646L273.568 129.646L273.568 130.303L273.73 130.303L273.893 130.303L273.893 129.646L273.73 129.646ZM273.73 131.616L273.568 131.616L273.568 132.273L273.73 132.273L273.893 132.273L273.893 131.616L273.73 131.616ZM273.73 133.586L273.568 133.586L273.568 134.243L273.73 134.243L273.893 134.243L273.893 133.586L273.73 133.586ZM273.73 135.556L273.568 135.556L273.568 136.213L273.73 136.213L273.893 136.213L273.893 135.556L273.73 135.556ZM273.73 137.526L273.568 137.526L273.568 137.854L273.73 137.854L273.893 137.854L273.893 137.526L273.73 137.526Z" fill="#2638FF"/>
<path d="M153.673 69.1855L149.293 71.7144L147.69 68.2603L153.673 69.1855Z" stroke="#2638FF" stroke-width="0.324447"/>
<path d="M158.865 65.9414L154.485 68.4702L152.881 65.0161L158.865 65.9414Z" stroke="#2638FF" stroke-width="0.324447"/>
<path d="M180.155 198.903L177.929 200.188L181.807 202.427L180.789 203.015L176.911 200.776L174.668 202.071L174.477 198.793L180.155 198.903Z" stroke="#2638FF" stroke-width="0.324447"/>
</g>
</g>
<defs>
<filter id="filter0_d_302_13646" x="-0.166016" y="0" width="411.666" height="301.5" filterUnits="userSpaceOnUse" color-interpolation-filters="sRGB">
<feFlood flood-opacity="0" result="BackgroundImageFix"/>
<feColorMatrix in="SourceAlpha" type="matrix" values="0 0 0 0 0 0 0 0 0 0 0 0 0 0 0 0 0 0 127 0" result="hardAlpha"/>
<feOffset dy="1"/>
<feGaussianBlur stdDeviation="0.25"/>
<feComposite in2="hardAlpha" operator="out"/>
<feColorMatrix type="matrix" values="0 0 0 0 0.584314 0 0 0 0 0.627451 0 0 0 0 0.698039 0 0 0 0.08 0"/>
<feBlend mode="normal" in2="BackgroundImageFix" result="effect1_dropShadow_302_13646"/>
<feBlend mode="normal" in="SourceGraphic" in2="effect1_dropShadow_302_13646" result="shape"/>
</filter>
<linearGradient id="paint0_linear_302_13646" x1="17.2006" y1="134.448" x2="137.403" y2="342.644" gradientUnits="userSpaceOnUse">
<stop stop-color="#2638FF" stop-opacity="0"/>
<stop offset="0.206731" stop-color="#2638FF"/>
<stop offset="0.769231" stop-color="#2638FF"/>
<stop offset="1" stop-color="#2638FF" stop-opacity="0"/>
</linearGradient>
<linearGradient id="paint1_linear_302_13646" x1="395.001" y1="138.453" x2="274.799" y2="346.649" gradientUnits="userSpaceOnUse">
<stop stop-color="#2638FF" stop-opacity="0"/>
<stop offset="0.206731" stop-color="#2638FF"/>
<stop offset="0.769231" stop-color="#2638FF"/>
<stop offset="1" stop-color="#2638FF" stop-opacity="0"/>
</linearGradient>
<linearGradient id="paint2_linear_302_13646" x1="271.144" y1="63.1313" x2="150.942" y2="271.327" gradientUnits="userSpaceOnUse">
<stop stop-color="#2638FF" stop-opacity="0"/>
<stop offset="0.206731" stop-color="#2638FF"/>
<stop offset="0.769231" stop-color="#2638FF"/>
<stop offset="1" stop-color="#2638FF" stop-opacity="0"/>
</linearGradient>
<linearGradient id="paint3_linear_302_13646" x1="326.96" y1="99.2393" x2="206.758" y2="307.435" gradientUnits="userSpaceOnUse">
<stop stop-color="#2638FF" stop-opacity="0"/>
<stop offset="0.206731" stop-color="#2638FF"/>
<stop offset="0.769231" stop-color="#2638FF"/>
<stop offset="1" stop-color="#2638FF" stop-opacity="0"/>
</linearGradient>
<linearGradient id="paint4_linear_302_13646" x1="84.5111" y1="90.127" x2="204.713" y2="298.323" gradientUnits="userSpaceOnUse">
<stop stop-color="#2638FF" stop-opacity="0"/>
<stop offset="0.206731" stop-color="#2638FF"/>
<stop offset="0.769231" stop-color="#2638FF"/>
<stop offset="1" stop-color="#2638FF" stop-opacity="0"/>
</linearGradient>
<linearGradient id="paint5_linear_302_13646" x1="148.353" y1="60.5859" x2="268.555" y2="268.782" gradientUnits="userSpaceOnUse">
<stop stop-color="#2638FF" stop-opacity="0"/>
<stop offset="0.206731" stop-color="#2638FF"/>
<stop offset="0.769231" stop-color="#2638FF"/>
<stop offset="1" stop-color="#2638FF" stop-opacity="0"/>
</linearGradient>
<clipPath id="clip0_302_13646">
<rect width="410.667" height="300" fill="white" transform="translate(0.333984)"/>
</clipPath>
</defs>
</svg>
