<svg width="198" height="205" viewBox="0 0 198 205" fill="none" xmlns="http://www.w3.org/2000/svg">
<path d="M43.9323 26.3345L50.8494 36.9034L63.117 33.6418L55.1244 43.4354L62.0415 54.0043L50.1847 49.4881L42.1921 59.2817L42.8568 46.697L31 42.1808L43.2676 38.9192L43.9323 26.3345Z" fill="#F2F4FB"/>
<path d="M99 10.2817L104.233 26.262H121.167L107.467 36.1384L112.7 52.1187L99 42.2423L85.3003 52.1187L90.5331 36.1384L76.8334 26.262H93.7672L99 10.2817Z" fill="#F2F4FB"/>
<path d="M154.068 26.3345L154.732 38.9192L167 42.1808L155.143 46.697L155.808 59.2817L147.815 49.4881L135.958 54.0043L142.876 43.4354L134.883 33.6418L147.151 36.9034L154.068 26.3345Z" fill="#F2F4FB"/>
<path d="M74.4001 91.2817V73.4017H81.9361C83.1201 73.4017 84.1281 73.6097 84.9601 74.0257C85.8081 74.4257 86.4561 75.0017 86.9041 75.7537C87.3681 76.4897 87.6001 77.3857 87.6001 78.4417C87.6001 79.2577 87.3761 80.0257 86.9281 80.7457C86.4961 81.4497 85.8001 82.0337 84.8401 82.4977V80.9857C85.7201 81.3217 86.4161 81.7377 86.9281 82.2337C87.4401 82.7297 87.8001 83.2817 88.0081 83.8897C88.2161 84.4977 88.3201 85.1377 88.3201 85.8097C88.3201 87.5217 87.7521 88.8657 86.6161 89.8417C85.4961 90.8017 83.9361 91.2817 81.9361 91.2817H74.4001ZM77.6641 88.4017H82.2721C83.1201 88.4017 83.7921 88.1697 84.2881 87.7057C84.8001 87.2257 85.0561 86.5937 85.0561 85.8097C85.0561 85.0257 84.8001 84.3937 84.2881 83.9137C83.7921 83.4337 83.1201 83.1937 82.2721 83.1937H77.6641V88.4017ZM77.6641 80.3377H82.1041C82.7761 80.3377 83.3121 80.1457 83.7121 79.7617C84.1121 79.3617 84.3121 78.8497 84.3121 78.2257C84.3121 77.6017 84.1121 77.1057 83.7121 76.7377C83.3121 76.3697 82.7761 76.1857 82.1041 76.1857H77.6641V80.3377ZM96.939 91.5697C95.595 91.5697 94.419 91.2657 93.411 90.6577C92.403 90.0497 91.619 89.2257 91.059 88.1857C90.499 87.1457 90.219 85.9937 90.219 84.7297C90.219 83.4177 90.499 82.2577 91.059 81.2497C91.635 80.2257 92.411 79.4177 93.387 78.8257C94.379 78.2337 95.483 77.9377 96.699 77.9377C97.723 77.9377 98.619 78.1057 99.387 78.4417C100.171 78.7777 100.835 79.2417 101.379 79.8337C101.923 80.4257 102.339 81.1057 102.627 81.8737C102.915 82.6257 103.059 83.4417 103.059 84.3217C103.059 84.5457 103.043 84.7777 103.011 85.0177C102.995 85.2577 102.955 85.4657 102.891 85.6417H92.811V83.2417H101.115L99.627 84.3697C99.771 83.6337 99.731 82.9777 99.507 82.4017C99.299 81.8257 98.947 81.3697 98.451 81.0337C97.971 80.6977 97.387 80.5297 96.699 80.5297C96.043 80.5297 95.459 80.6977 94.947 81.0337C94.435 81.3537 94.043 81.8337 93.771 82.4737C93.515 83.0977 93.419 83.8577 93.483 84.7537C93.419 85.5537 93.523 86.2657 93.795 86.8897C94.083 87.4977 94.499 87.9697 95.043 88.3057C95.603 88.6417 96.243 88.8097 96.963 88.8097C97.683 88.8097 98.291 88.6577 98.787 88.3537C99.299 88.0497 99.699 87.6417 99.987 87.1297L102.531 88.3777C102.275 89.0017 101.875 89.5537 101.331 90.0337C100.787 90.5137 100.139 90.8897 99.387 91.1617C98.651 91.4337 97.835 91.5697 96.939 91.5697ZM110.31 91.5697C108.918 91.5697 107.702 91.2417 106.662 90.5857C105.638 89.9137 104.934 89.0097 104.55 87.8737L106.902 86.7457C107.238 87.4817 107.702 88.0577 108.294 88.4737C108.902 88.8897 109.574 89.0977 110.31 89.0977C110.886 89.0977 111.342 88.9697 111.678 88.7137C112.014 88.4577 112.182 88.1217 112.182 87.7057C112.182 87.4497 112.11 87.2417 111.966 87.0817C111.838 86.9057 111.654 86.7617 111.414 86.6497C111.19 86.5217 110.942 86.4177 110.67 86.3377L108.534 85.7377C107.43 85.4177 106.59 84.9297 106.014 84.2737C105.454 83.6177 105.174 82.8417 105.174 81.9457C105.174 81.1457 105.374 80.4497 105.774 79.8577C106.19 79.2497 106.758 78.7777 107.478 78.4417C108.214 78.1057 109.054 77.9377 109.998 77.9377C111.23 77.9377 112.318 78.2337 113.262 78.8257C114.206 79.4177 114.878 80.2497 115.278 81.3217L112.878 82.4497C112.654 81.8577 112.278 81.3857 111.75 81.0337C111.222 80.6817 110.63 80.5057 109.974 80.5057C109.446 80.5057 109.03 80.6257 108.726 80.8657C108.422 81.1057 108.27 81.4177 108.27 81.8017C108.27 82.0417 108.334 82.2497 108.462 82.4257C108.59 82.6017 108.766 82.7457 108.99 82.8577C109.23 82.9697 109.502 83.0737 109.806 83.1697L111.894 83.7937C112.966 84.1137 113.79 84.5937 114.366 85.2337C114.958 85.8737 115.254 86.6577 115.254 87.5857C115.254 88.3697 115.046 89.0657 114.63 89.6737C114.214 90.2657 113.638 90.7297 112.902 91.0657C112.166 91.4017 111.302 91.5697 110.31 91.5697ZM123.522 91.4257C122.05 91.4257 120.906 91.0257 120.09 90.2257C119.29 89.4097 118.89 88.2657 118.89 86.7937V81.0337H116.634V78.2257H116.874C117.514 78.2257 118.01 78.0577 118.362 77.7217C118.714 77.3857 118.89 76.8977 118.89 76.2577V75.2497H122.034V78.2257H125.034V81.0337H122.034V86.6257C122.034 87.0577 122.106 87.4257 122.25 87.7297C122.41 88.0337 122.65 88.2657 122.97 88.4257C123.306 88.5857 123.73 88.6657 124.242 88.6657C124.354 88.6657 124.482 88.6577 124.626 88.6417C124.786 88.6257 124.938 88.6097 125.082 88.5937V91.2817C124.858 91.3137 124.602 91.3457 124.314 91.3777C124.026 91.4097 123.762 91.4257 123.522 91.4257ZM49.8884 123.282V105.402H57.4244C58.6084 105.402 59.6164 105.61 60.4484 106.026C61.2964 106.426 61.9444 107.002 62.3924 107.754C62.8564 108.49 63.0884 109.386 63.0884 110.442C63.0884 111.258 62.8644 112.026 62.4164 112.746C61.9844 113.45 61.2884 114.034 60.3284 114.498V112.986C61.2084 113.322 61.9044 113.738 62.4164 114.234C62.9284 114.73 63.2884 115.282 63.4964 115.89C63.7044 116.498 63.8084 117.138 63.8084 117.81C63.8084 119.522 63.2404 120.866 62.1044 121.842C60.9844 122.802 59.4244 123.282 57.4244 123.282H49.8884ZM53.1524 120.402H57.7604C58.6084 120.402 59.2804 120.17 59.7764 119.706C60.2884 119.226 60.5444 118.594 60.5444 117.81C60.5444 117.026 60.2884 116.394 59.7764 115.914C59.2804 115.434 58.6084 115.194 57.7604 115.194H53.1524V120.402ZM53.1524 112.338H57.5924C58.2644 112.338 58.8004 112.146 59.2004 111.762C59.6004 111.362 59.8004 110.85 59.8004 110.226C59.8004 109.602 59.6004 109.106 59.2004 108.738C58.8004 108.37 58.2644 108.186 57.5924 108.186H53.1524V112.338ZM66.2353 123.282V110.226H69.1873V113.13L68.9473 112.698C69.2513 111.722 69.7233 111.042 70.3633 110.658C71.0193 110.274 71.8033 110.082 72.7153 110.082H73.4833V112.866H72.3553C71.4593 112.866 70.7393 113.146 70.1953 113.706C69.6513 114.25 69.3793 115.018 69.3793 116.01V123.282H66.2353ZM81.4959 123.57C80.2159 123.57 79.0479 123.274 77.9919 122.682C76.9519 122.09 76.1199 121.282 75.4959 120.258C74.8879 119.234 74.5839 118.066 74.5839 116.754C74.5839 115.442 74.8879 114.274 75.4959 113.25C76.1199 112.226 76.9519 111.418 77.9919 110.826C79.0319 110.234 80.1999 109.938 81.4959 109.938C82.7759 109.938 83.9359 110.234 84.9759 110.826C86.0159 111.418 86.8399 112.226 87.4479 113.25C88.0719 114.258 88.3839 115.426 88.3839 116.754C88.3839 118.066 88.0719 119.234 87.4479 120.258C86.8239 121.282 85.9919 122.09 84.9519 122.682C83.9119 123.274 82.7599 123.57 81.4959 123.57ZM81.4959 120.69C82.1999 120.69 82.8159 120.522 83.3439 120.186C83.8879 119.85 84.3119 119.386 84.6159 118.794C84.9359 118.186 85.0959 117.506 85.0959 116.754C85.0959 115.986 84.9359 115.314 84.6159 114.738C84.3119 114.146 83.8879 113.682 83.3439 113.346C82.8159 112.994 82.1999 112.818 81.4959 112.818C80.7759 112.818 80.1439 112.994 79.5999 113.346C79.0559 113.682 78.6239 114.146 78.3039 114.738C77.9999 115.314 77.8479 115.986 77.8479 116.754C77.8479 117.506 77.9999 118.186 78.3039 118.794C78.6239 119.386 79.0559 119.85 79.5999 120.186C80.1439 120.522 80.7759 120.69 81.4959 120.69ZM90.6681 123.282V105.114H93.8121V117.018L92.6121 116.658L98.7561 110.226H102.668L97.8441 115.482L102.764 123.282H99.1641L94.8921 116.514L96.7641 116.13L92.8281 120.354L93.8121 118.434V123.282H90.6681ZM110.377 123.57C109.033 123.57 107.857 123.266 106.849 122.658C105.841 122.05 105.057 121.226 104.497 120.186C103.937 119.146 103.657 117.994 103.657 116.73C103.657 115.418 103.937 114.258 104.497 113.25C105.073 112.226 105.849 111.418 106.825 110.826C107.817 110.234 108.921 109.938 110.137 109.938C111.161 109.938 112.057 110.106 112.825 110.442C113.609 110.778 114.273 111.242 114.817 111.834C115.361 112.426 115.777 113.106 116.065 113.874C116.353 114.626 116.497 115.442 116.497 116.322C116.497 116.546 116.481 116.778 116.449 117.018C116.433 117.258 116.393 117.466 116.329 117.642H106.249V115.242H114.553L113.065 116.37C113.209 115.634 113.169 114.978 112.945 114.402C112.737 113.826 112.385 113.37 111.889 113.034C111.409 112.698 110.825 112.53 110.137 112.53C109.481 112.53 108.897 112.698 108.385 113.034C107.873 113.354 107.481 113.834 107.209 114.474C106.953 115.098 106.857 115.858 106.921 116.754C106.857 117.554 106.961 118.266 107.233 118.89C107.521 119.498 107.937 119.97 108.481 120.306C109.041 120.642 109.681 120.81 110.401 120.81C111.121 120.81 111.729 120.658 112.225 120.354C112.737 120.05 113.137 119.642 113.425 119.13L115.969 120.378C115.713 121.002 115.313 121.554 114.769 122.034C114.225 122.514 113.577 122.89 112.825 123.162C112.089 123.434 111.273 123.57 110.377 123.57ZM118.781 123.282V110.226H121.733V113.13L121.493 112.698C121.797 111.722 122.269 111.042 122.909 110.658C123.565 110.274 124.349 110.082 125.261 110.082H126.029V112.866H124.901C124.005 112.866 123.285 113.146 122.741 113.706C122.197 114.25 121.925 115.018 121.925 116.01V123.282H118.781ZM131.823 123.282V110.226H134.967V123.282H131.823ZM131.823 108.762V105.402H134.967V108.762H131.823ZM137.77 123.282V110.226H140.722V112.794L140.482 112.338C140.786 111.554 141.282 110.962 141.97 110.562C142.674 110.146 143.49 109.938 144.418 109.938C145.378 109.938 146.226 110.146 146.962 110.562C147.714 110.978 148.298 111.562 148.714 112.314C149.13 113.05 149.338 113.906 149.338 114.882V123.282H146.194V115.626C146.194 115.05 146.082 114.554 145.858 114.138C145.634 113.722 145.322 113.402 144.922 113.178C144.538 112.938 144.082 112.818 143.554 112.818C143.042 112.818 142.586 112.938 142.186 113.178C141.786 113.402 141.474 113.722 141.25 114.138C141.026 114.554 140.914 115.05 140.914 115.626V123.282H137.77ZM46.1271 155.57C44.9911 155.57 43.9351 155.362 42.9591 154.946C41.9991 154.53 41.1671 153.954 40.4631 153.218C39.7751 152.466 39.2711 151.594 38.9511 150.602L41.6631 149.426C42.0951 150.45 42.7191 151.258 43.5351 151.85C44.3511 152.426 45.2711 152.714 46.2951 152.714C46.8711 152.714 47.3671 152.626 47.7831 152.45C48.2151 152.258 48.5431 152.002 48.7671 151.682C49.0071 151.362 49.1271 150.978 49.1271 150.53C49.1271 150.002 48.9671 149.57 48.6471 149.234C48.3431 148.882 47.8791 148.61 47.2551 148.418L43.8231 147.314C42.4311 146.882 41.3831 146.234 40.6791 145.37C39.9751 144.506 39.6231 143.49 39.6231 142.322C39.6231 141.298 39.8711 140.394 40.3671 139.61C40.8791 138.826 41.5831 138.218 42.4791 137.786C43.3911 137.338 44.4311 137.114 45.5991 137.114C46.6711 137.114 47.6551 137.306 48.5511 137.69C49.4471 138.058 50.2151 138.578 50.8551 139.25C51.5111 139.906 51.9991 140.682 52.3191 141.578L49.6311 142.778C49.2791 141.882 48.7511 141.194 48.0471 140.714C47.3431 140.218 46.5271 139.97 45.5991 139.97C45.0551 139.97 44.5751 140.066 44.1591 140.258C43.7431 140.434 43.4151 140.69 43.1751 141.026C42.9511 141.346 42.8391 141.73 42.8391 142.178C42.8391 142.674 42.9991 143.114 43.3191 143.498C43.6391 143.866 44.1271 144.154 44.7831 144.362L48.0711 145.394C49.4951 145.858 50.5591 146.498 51.2631 147.314C51.9831 148.13 52.3431 149.138 52.3431 150.338C52.3431 151.362 52.0791 152.266 51.5511 153.05C51.0231 153.834 50.2951 154.45 49.3671 154.898C48.4391 155.346 47.3591 155.57 46.1271 155.57ZM61.4193 155.57C60.1393 155.57 58.9713 155.274 57.9153 154.682C56.8753 154.09 56.0433 153.282 55.4193 152.258C54.8113 151.234 54.5073 150.066 54.5073 148.754C54.5073 147.442 54.8113 146.274 55.4193 145.25C56.0433 144.226 56.8753 143.418 57.9153 142.826C58.9553 142.234 60.1233 141.938 61.4193 141.938C62.6993 141.938 63.8593 142.234 64.8993 142.826C65.9393 143.418 66.7633 144.226 67.3713 145.25C67.9953 146.258 68.3073 147.426 68.3073 148.754C68.3073 150.066 67.9953 151.234 67.3713 152.258C66.7473 153.282 65.9153 154.09 64.8753 154.682C63.8353 155.274 62.6833 155.57 61.4193 155.57ZM61.4193 152.69C62.1233 152.69 62.7393 152.522 63.2673 152.186C63.8113 151.85 64.2353 151.386 64.5393 150.794C64.8593 150.186 65.0193 149.506 65.0193 148.754C65.0193 147.986 64.8593 147.314 64.5393 146.738C64.2353 146.146 63.8113 145.682 63.2673 145.346C62.7393 144.994 62.1233 144.818 61.4193 144.818C60.6993 144.818 60.0673 144.994 59.5233 145.346C58.9793 145.682 58.5473 146.146 58.2273 146.738C57.9233 147.314 57.7713 147.986 57.7713 148.754C57.7713 149.506 57.9233 150.186 58.2273 150.794C58.5473 151.386 58.9793 151.85 59.5233 152.186C60.0673 152.522 60.6993 152.69 61.4193 152.69ZM75.2476 155.57C74.2396 155.57 73.3596 155.346 72.6076 154.898C71.8716 154.45 71.3036 153.826 70.9036 153.026C70.5196 152.226 70.3276 151.29 70.3276 150.218V142.226H73.4716V149.954C73.4716 150.498 73.5756 150.978 73.7836 151.394C74.0076 151.794 74.3196 152.114 74.7196 152.354C75.1356 152.578 75.5996 152.69 76.1116 152.69C76.6236 152.69 77.0796 152.578 77.4796 152.354C77.8796 152.114 78.1916 151.786 78.4156 151.37C78.6396 150.954 78.7516 150.458 78.7516 149.882V142.226H81.8956V155.282H78.9196V152.714L79.1836 153.17C78.8796 153.97 78.3756 154.57 77.6716 154.97C76.9836 155.37 76.1756 155.57 75.2476 155.57ZM90.6701 155.426C89.1981 155.426 88.0541 155.026 87.2381 154.226C86.4381 153.41 86.0381 152.266 86.0381 150.794V145.034H83.7821V142.226H84.0221C84.6621 142.226 85.1581 142.058 85.5101 141.722C85.8621 141.386 86.0381 140.898 86.0381 140.258V139.25H89.1821V142.226H92.1821V145.034H89.1821V150.626C89.1821 151.058 89.2541 151.426 89.3981 151.73C89.5581 152.034 89.7981 152.266 90.1181 152.426C90.4541 152.586 90.8781 152.666 91.3901 152.666C91.5021 152.666 91.6301 152.658 91.7741 152.642C91.9341 152.626 92.0861 152.61 92.2301 152.594V155.282C92.0061 155.314 91.7501 155.346 91.4621 155.378C91.1741 155.41 90.9101 155.426 90.6701 155.426ZM94.5322 155.282V137.114H97.6762V144.794L97.2442 144.338C97.5482 143.554 98.0442 142.962 98.7322 142.562C99.4362 142.146 100.252 141.938 101.18 141.938C102.14 141.938 102.988 142.146 103.724 142.562C104.476 142.978 105.06 143.562 105.476 144.314C105.892 145.05 106.1 145.906 106.1 146.882V155.282H102.956V147.626C102.956 147.05 102.844 146.554 102.62 146.138C102.396 145.722 102.084 145.402 101.684 145.178C101.3 144.938 100.844 144.818 100.316 144.818C99.8042 144.818 99.3482 144.938 98.9482 145.178C98.5482 145.402 98.2362 145.722 98.0122 146.138C97.7882 146.554 97.6762 147.05 97.6762 147.626V155.282H94.5322ZM111.742 155.282L117.91 137.402H122.134L128.302 155.282H124.75L123.478 151.442H116.566L115.27 155.282H111.742ZM117.502 148.562H122.542L119.566 139.658H120.478L117.502 148.562ZM135.013 155.57C133.621 155.57 132.405 155.242 131.365 154.586C130.341 153.914 129.637 153.01 129.253 151.874L131.605 150.746C131.941 151.482 132.405 152.058 132.997 152.474C133.605 152.89 134.277 153.098 135.013 153.098C135.589 153.098 136.045 152.97 136.381 152.714C136.717 152.458 136.885 152.122 136.885 151.706C136.885 151.45 136.813 151.242 136.669 151.082C136.541 150.906 136.357 150.762 136.117 150.65C135.893 150.522 135.645 150.418 135.373 150.338L133.237 149.738C132.133 149.418 131.293 148.93 130.717 148.274C130.157 147.618 129.877 146.842 129.877 145.946C129.877 145.146 130.077 144.45 130.477 143.858C130.893 143.25 131.461 142.778 132.181 142.442C132.917 142.106 133.757 141.938 134.701 141.938C135.933 141.938 137.021 142.234 137.965 142.826C138.909 143.418 139.581 144.25 139.981 145.322L137.581 146.45C137.357 145.858 136.981 145.386 136.453 145.034C135.925 144.682 135.333 144.506 134.677 144.506C134.149 144.506 133.733 144.626 133.429 144.866C133.125 145.106 132.973 145.418 132.973 145.802C132.973 146.042 133.037 146.25 133.165 146.426C133.293 146.602 133.469 146.746 133.693 146.858C133.933 146.97 134.205 147.074 134.509 147.17L136.597 147.794C137.669 148.114 138.493 148.594 139.069 149.234C139.661 149.874 139.957 150.658 139.957 151.586C139.957 152.37 139.749 153.066 139.333 153.674C138.917 154.266 138.341 154.73 137.605 155.066C136.869 155.402 136.005 155.57 135.013 155.57ZM142.273 155.282V142.226H145.417V155.282H142.273ZM142.273 140.762V137.402H145.417V140.762H142.273ZM152.18 155.57C151.268 155.57 150.476 155.418 149.804 155.114C149.132 154.81 148.612 154.378 148.244 153.818C147.876 153.242 147.692 152.578 147.692 151.826C147.692 151.106 147.852 150.466 148.172 149.906C148.492 149.33 148.988 148.85 149.66 148.466C150.332 148.082 151.18 147.81 152.204 147.65L156.476 146.954V149.354L152.804 149.978C152.18 150.09 151.716 150.29 151.412 150.578C151.108 150.866 150.956 151.242 150.956 151.706C150.956 152.154 151.124 152.514 151.46 152.786C151.812 153.042 152.244 153.17 152.756 153.17C153.412 153.17 153.988 153.034 154.484 152.762C154.996 152.474 155.388 152.082 155.66 151.586C155.948 151.09 156.092 150.546 156.092 149.954V146.594C156.092 146.034 155.868 145.57 155.42 145.202C154.988 144.818 154.412 144.626 153.692 144.626C153.02 144.626 152.42 144.81 151.892 145.178C151.38 145.53 151.004 146.002 150.764 146.594L148.196 145.346C148.452 144.658 148.852 144.066 149.396 143.57C149.956 143.058 150.612 142.658 151.364 142.37C152.116 142.082 152.932 141.938 153.812 141.938C154.884 141.938 155.828 142.138 156.644 142.538C157.46 142.922 158.092 143.466 158.54 144.17C159.004 144.858 159.236 145.666 159.236 146.594V155.282H156.26V153.05L156.932 153.002C156.596 153.562 156.196 154.034 155.732 154.418C155.268 154.786 154.74 155.074 154.148 155.282C153.556 155.474 152.9 155.57 152.18 155.57ZM69.9909 187.282V184.81L74.8389 179.746C75.7989 178.738 76.5349 177.938 77.0469 177.346C77.5749 176.738 77.9429 176.218 78.1509 175.786C78.3589 175.354 78.4629 174.914 78.4629 174.466C78.4629 173.714 78.2229 173.122 77.7429 172.69C77.2789 172.258 76.6789 172.042 75.9429 172.042C75.1749 172.042 74.5109 172.266 73.9509 172.714C73.3909 173.146 72.9829 173.786 72.7269 174.634L69.8709 173.746C70.0629 172.802 70.4549 171.986 71.0469 171.298C71.6389 170.594 72.3589 170.058 73.2069 169.69C74.0709 169.306 74.9829 169.114 75.9429 169.114C77.0949 169.114 78.1029 169.322 78.9669 169.738C79.8469 170.154 80.5269 170.738 81.0069 171.49C81.5029 172.242 81.7509 173.122 81.7509 174.13C81.7509 174.77 81.6309 175.402 81.3909 176.026C81.1509 176.65 80.7909 177.29 80.3109 177.946C79.8309 178.586 79.2069 179.306 78.4389 180.106L74.2389 184.522H81.9909V187.282H69.9909ZM91.6033 187.57C90.1793 187.57 88.9313 187.186 87.8593 186.418C86.7873 185.65 85.9473 184.57 85.3393 183.178C84.7473 181.786 84.4513 180.17 84.4513 178.33C84.4513 176.474 84.7473 174.858 85.3393 173.482C85.9313 172.106 86.7633 171.034 87.8353 170.266C88.9073 169.498 90.1553 169.114 91.5793 169.114C93.0353 169.114 94.2913 169.498 95.3473 170.266C96.4193 171.034 97.2593 172.114 97.8673 173.506C98.4753 174.882 98.7793 176.49 98.7793 178.33C98.7793 180.17 98.4753 181.786 97.8673 183.178C97.2753 184.554 96.4433 185.634 95.3713 186.418C94.2993 187.186 93.0433 187.57 91.6033 187.57ZM91.6273 184.594C92.4433 184.594 93.1393 184.346 93.7153 183.85C94.2913 183.338 94.7313 182.618 95.0353 181.69C95.3553 180.746 95.5153 179.626 95.5153 178.33C95.5153 177.034 95.3553 175.922 95.0353 174.994C94.7313 174.05 94.2833 173.33 93.6913 172.834C93.1153 172.338 92.4113 172.09 91.5793 172.09C90.7793 172.09 90.0913 172.338 89.5153 172.834C88.9393 173.33 88.4913 174.05 88.1713 174.994C87.8673 175.922 87.7153 177.034 87.7153 178.33C87.7153 179.61 87.8673 180.722 88.1713 181.666C88.4913 182.594 88.9393 183.314 89.5153 183.826C90.1073 184.338 90.8113 184.594 91.6273 184.594ZM101.103 187.282V184.81L105.951 179.746C106.911 178.738 107.647 177.938 108.159 177.346C108.687 176.738 109.055 176.218 109.263 175.786C109.471 175.354 109.575 174.914 109.575 174.466C109.575 173.714 109.335 173.122 108.855 172.69C108.391 172.258 107.791 172.042 107.055 172.042C106.287 172.042 105.623 172.266 105.063 172.714C104.503 173.146 104.095 173.786 103.839 174.634L100.983 173.746C101.175 172.802 101.567 171.986 102.159 171.298C102.751 170.594 103.471 170.058 104.319 169.69C105.183 169.306 106.095 169.114 107.055 169.114C108.207 169.114 109.215 169.322 110.079 169.738C110.959 170.154 111.639 170.738 112.119 171.49C112.615 172.242 112.863 173.122 112.863 174.13C112.863 174.77 112.743 175.402 112.503 176.026C112.263 176.65 111.903 177.29 111.423 177.946C110.943 178.586 110.319 179.306 109.551 180.106L105.351 184.522H113.103V187.282H101.103ZM123.057 187.282V183.346H114.849V180.61L122.865 169.402H126.273V180.61H128.889V183.346H126.273V187.282H123.057ZM117.249 181.786L116.673 180.61H123.057V171.97L123.897 172.234L117.249 181.786Z" fill="#F5FD09"/>
<circle cx="152.742" cy="189.023" r="4.74156" fill="#F5FD09"/>
<circle cx="166.742" cy="92.0233" r="4.74156" fill="#F5FD09"/>
<circle cx="28.161" cy="106.443" r="3.16104" fill="#F5FD09"/>
<circle cx="175.839" cy="136.522" r="3.16104" fill="#F5FD09"/>
<circle cx="32.5805" cy="179.862" r="1.58052" fill="#F5FD09"/>
<circle cx="61.5805" cy="83.8623" r="1.58052" fill="#F5FD09"/>
<circle cx="185.581" cy="170.862" r="1.58052" fill="#F5FD09"/>
<circle cx="15.7416" cy="135.023" r="4.74156" fill="#F5FD09"/>
</svg>
