<svg width="17" height="19" viewBox="0 0 17 19" fill="none" xmlns="http://www.w3.org/2000/svg">
<path d="M12.8097 14.0704L8.2622 4.33154H4.28516L8.84616 14.0704H12.8097Z" fill="#979798"/>
<path d="M0.308594 18.4917L4.27664 4.33157H8.26268L4.25859 18.4917H0.308594Z" fill="#F2F4FB"/>
<path d="M8.83398 14.0703L11.9603 3.01703H13.5087C13.5107 3.01703 13.5127 3.01715 13.5147 3.01738L14.7259 3.15735C14.7278 3.15759 14.7298 3.1577 14.7318 3.1577H15.9164L12.8018 14.0703H8.83398Z" fill="#F2F4FB"/>
<path d="M14.7005 0.209251L16.9403 4.25646L10.7637 2.78496L14.6125 0.187055C14.6354 0.170949 14.671 0.175662 14.6919 0.19759C14.6953 0.201175 14.6982 0.205099 14.7005 0.209251Z" fill="#F2F4FB"/>
</svg>
