<svg width="32" height="33" viewBox="0 0 32 33" fill="none" xmlns="http://www.w3.org/2000/svg">
<path d="M27.5915 13.1059C27.5915 14.4628 26.4916 15.5422 25.1347 15.5422C23.7779 15.5422 22.678 14.4628 22.678 13.1059C22.678 11.7491 23.7779 10.6492 25.1347 10.6492C26.4916 10.6492 27.5915 11.7491 27.5915 13.1059Z" fill="#131319"/>
<path fill-rule="evenodd" clip-rule="evenodd" d="M23.5858 17.1639L19.1982 20.7556L15.6478 18.5172L9.62856 23.119C8.88203 22.697 7.5177 21.7739 6.82227 21.3627L15.5755 15.1084L19.1982 17.4952L21.7283 15.3059C22.198 15.7171 23.2001 16.8203 23.5858 17.1639Z" fill="#131319"/>
<path d="M24.5369 7.8269L21.8972 9.86401L15.3689 6.20776L6.86401 11.0378V21.3708L9.38159 22.9705L15.3689 26.1355L23.991 21.3708V19.3015L27.0378 17.1687V22.7878L15.3689 29.5437L3.69897 22.7878V9.27515L15.3689 2.51929L24.5369 7.8269Z" fill="#676768"/>
</svg>
