<svg width="32" height="33" viewBox="0 0 32 33" fill="none" xmlns="http://www.w3.org/2000/svg">
<path d="M27.5915 13.1372C27.5915 14.494 26.4916 15.5735 25.1347 15.5735C23.7779 15.5735 22.678 14.494 22.678 13.1372C22.678 11.7803 23.7779 10.6804 25.1347 10.6804C26.4916 10.6804 27.5915 11.7803 27.5915 13.1372Z" fill="#182BFF"/>
<path fill-rule="evenodd" clip-rule="evenodd" d="M23.5858 17.1952L19.1982 20.7868L15.6478 18.5485L9.62856 23.1503C8.88203 22.7282 7.5177 21.8052 6.82227 21.3939L15.5755 15.1396L19.1982 17.5265L21.7283 15.3371C22.198 15.7483 23.2001 16.8516 23.5858 17.1952Z" fill="#182BFF"/>
<path d="M24.5369 7.85815L21.8972 9.89526L15.3689 6.23901L6.86401 11.0691V21.4021L9.38159 23.0017L15.3689 26.1667L23.991 21.4021V19.3328L27.0378 17.2V22.8191L15.3689 29.575L3.69897 22.8191V9.3064L15.3689 2.55054L24.5369 7.85815Z" fill="#7097FF"/>
</svg>
