<svg width="32" height="33" viewBox="0 0 32 33" fill="none" xmlns="http://www.w3.org/2000/svg">
<path fill-rule="evenodd" clip-rule="evenodd" d="M2.58984 14.9107C2.58984 7.8041 8.35084 2.04309 15.4575 2.04309C22.564 2.04309 28.325 7.8041 28.325 14.9107C28.325 22.0173 22.564 27.7783 15.4575 27.7783C8.35084 27.7783 2.58984 22.0173 2.58984 14.9107ZM24.4945 14.9107C24.4945 9.93534 20.2764 6.25828 15.4575 6.25828C10.6385 6.25828 6.48676 9.95987 6.48676 14.9107C6.48676 20.1833 10.1848 24.4576 15.4575 24.4576C20.73 24.4576 24.4945 20.1833 24.4945 14.9107Z" fill="#676768"/>
<mask id="mask0_162_10817" style="mask-type:luminance" maskUnits="userSpaceOnUse" x="1" y="5" width="30" height="26">
<path fill-rule="evenodd" clip-rule="evenodd" d="M1.79468 19.6808L11.9506 12.3213L15.4802 16.001L26.3301 5.36853L30.2046 14.91L27.1071 27.3554L12.7737 30.0194L3.43807 24.4515L1.79468 19.6808Z" fill="white"/>
</mask>
<g mask="url(#mask0_162_10817)">
<path fill-rule="evenodd" clip-rule="evenodd" d="M2.60742 14.9101C2.60742 7.8075 8.37071 2.0498 15.48 2.0498C22.5894 2.0498 28.3526 7.8075 28.3526 14.9101C28.3526 22.0126 22.5894 27.7703 15.48 27.7703C8.37071 27.7703 2.60742 22.0126 2.60742 14.9101ZM24.5528 14.9101C24.5528 10.0963 20.3945 6.36721 15.48 6.20624C10.6559 6.20624 6.52438 9.84353 6.52438 15.1131C6.52438 20.3828 10.2053 24.2883 15.48 24.2883C20.7547 24.2883 24.5528 20.1797 24.5528 14.9101Z" fill="#131319"/>
</g>
<path fill-rule="evenodd" clip-rule="evenodd" d="M3.52954 18.5188L11.9847 12.3495C12.0032 12.336 12.0273 12.333 12.0486 12.3415L16.5019 14.1363C16.5251 14.1457 16.5517 14.1411 16.5705 14.1245L24.756 6.88647L26.8069 9.72358L16.5725 18.4908C16.5526 18.5078 16.5246 18.5116 16.501 18.5005L12.0497 16.3951C12.0279 16.3848 12.0023 16.387 11.9828 16.4011L4.97818 21.4168L3.52954 18.5188Z" fill="#131319"/>
</svg>
