<svg width="26" height="26" viewBox="0 0 26 26" fill="none" xmlns="http://www.w3.org/2000/svg">
<path fill-rule="evenodd" clip-rule="evenodd" d="M0.270539 10.4406L11.3815 19.5669C11.3977 19.5802 11.407 19.599 11.407 19.6188L11.407 25.4942C11.407 25.533 11.3722 25.5644 11.3293 25.5644C11.3095 25.5644 11.2904 25.5576 11.276 25.5453L0.164968 16.0721C0.149405 16.0588 0.140584 16.0403 0.140584 16.021V10.4926C0.140584 10.4538 0.175371 10.4224 0.218284 10.4224C0.237608 10.4224 0.256238 10.4289 0.270539 10.4406Z" fill="#7097FF"/>
<path fill-rule="evenodd" clip-rule="evenodd" d="M0.140828 15.9791L11.3818 6.74609C11.398 6.73278 11.4072 6.71391 11.4072 6.69412V0.818762C11.4072 0.779977 11.3724 0.748535 11.3295 0.748535C11.3097 0.748535 11.2906 0.755383 11.2762 0.767677L0.165212 10.2409C0.14965 10.2541 0.140828 10.2726 0.140828 10.2919L0.140828 15.9791Z" fill="#182BFF"/>
<path fill-rule="evenodd" clip-rule="evenodd" d="M25.8597 10.334L14.6187 19.567C14.6025 19.5803 14.5933 19.5991 14.5933 19.6189L14.5933 25.4943C14.5933 25.5331 14.628 25.5645 14.671 25.5645C14.6908 25.5645 14.7099 25.5577 14.7243 25.5454L25.8353 16.0722C25.8508 16.0589 25.8597 16.0404 25.8597 16.0211V10.334Z" fill="#7097FF"/>
<path fill-rule="evenodd" clip-rule="evenodd" d="M25.8594 15.9791L14.6185 6.74609C14.6023 6.73278 14.593 6.71391 14.593 6.69412V0.818762C14.593 0.779977 14.6278 0.748535 14.6707 0.748535C14.6905 0.748535 14.7096 0.755383 14.724 0.767677L25.835 10.2409C25.8506 10.2541 25.8594 10.2726 25.8594 10.2919V15.9791Z" fill="#182BFF"/>
</svg>
