<svg width="20" height="16" viewBox="0 0 20 16" fill="none" xmlns="http://www.w3.org/2000/svg">
<path fill-rule="evenodd" clip-rule="evenodd" d="M0.0372998 2.4988L8.40639 0.162187C8.43546 0.15407 8.46731 0.166218 8.47752 0.189321C8.47961 0.194043 8.48068 0.199012 8.48068 0.204018V11.0042C8.48068 11.0235 8.46494 11.0406 8.44177 11.0465L0.0726801 13.1584C0.0433112 13.1658 0.0119428 13.1529 0.00261676 13.1295C0.000882631 13.1252 0 13.1207 0 13.1161V2.54063C0 2.52181 0.0149539 2.50504 0.0372998 2.4988Z" fill="#C5C6CA"/>
<path fill-rule="evenodd" clip-rule="evenodd" d="M7.34501 3.69834L19.8979 0.00277342C19.9268 -0.00573324 19.9589 0.0059852 19.9696 0.0289471C19.975 0.0403922 19.9741 0.0530789 19.9673 0.0640175L15.5142 7.21374C15.5057 7.22735 15.5066 7.24345 15.5165 7.25643L19.9915 13.111C20.0075 13.1319 19.9991 13.1592 19.9728 13.1719C19.9685 13.174 19.9638 13.1756 19.959 13.1767L7.37954 15.9983C7.34989 16.005 7.31906 15.9913 7.31069 15.9677C7.3093 15.9638 7.30859 15.9597 7.30859 15.9557V3.73992C7.30859 3.72137 7.32312 3.70478 7.34501 3.69834Z" fill="#F2F4FB"/>
</svg>
