<svg width="92" height="62" viewBox="0 0 92 62" fill="none" xmlns="http://www.w3.org/2000/svg">
<g filter="url(#filter0_d_366_30731)">
<path d="M4.5 8.16821C4.5 4.85451 7.18629 2.16821 10.5 2.16821H81.925C85.2387 2.16821 87.925 4.8545 87.925 8.16821V48.7635H4.5V8.16821Z" fill="url(#paint0_linear_366_30731)"/>
<path d="M10.5 2.66821H81.9248C84.9624 2.66821 87.4248 5.13065 87.4248 8.16821V48.2639H5V8.16821C5 5.13065 7.46243 2.66821 10.5 2.66821Z" stroke="white"/>
</g>
<rect x="11.7195" y="16.6289" width="69.7882" height="44.9885" fill="white"/>
<rect x="18.939" y="24.6626" width="55.3493" height="3.21346" rx="1.60673" fill="#EDEFF7"/>
<rect x="18.939" y="32.696" width="52.9428" height="3.21346" rx="1.60673" fill="#EDEFF7"/>
<rect x="18.939" y="41.5332" width="45.7233" height="3.21346" rx="1.60673" fill="#EDEFF7"/>
<ellipse cx="14.1259" cy="9.39852" rx="3.20865" ry="3.21346" fill="#E94656"/>
<ellipse cx="23.752" cy="9.39852" rx="3.20865" ry="3.21346" fill="#FFD020"/>
<ellipse cx="33.378" cy="9.39852" rx="3.20865" ry="3.21346" fill="#2ADEA1"/>
<defs>
<filter id="filter0_d_366_30731" x="0.5" y="0.168213" width="91.425" height="54.5952" filterUnits="userSpaceOnUse" color-interpolation-filters="sRGB">
<feFlood flood-opacity="0" result="BackgroundImageFix"/>
<feColorMatrix in="SourceAlpha" type="matrix" values="0 0 0 0 0 0 0 0 0 0 0 0 0 0 0 0 0 0 127 0" result="hardAlpha"/>
<feOffset dy="2"/>
<feGaussianBlur stdDeviation="2"/>
<feColorMatrix type="matrix" values="0 0 0 0 0.552941 0 0 0 0 0.470588 0 0 0 0 1 0 0 0 0.198751 0"/>
<feBlend mode="normal" in2="BackgroundImageFix" result="effect1_dropShadow_366_30731"/>
<feBlend mode="normal" in="SourceGraphic" in2="effect1_dropShadow_366_30731" result="shape"/>
</filter>
<linearGradient id="paint0_linear_366_30731" x1="4.5" y1="2.16821" x2="4.5" y2="48.7635" gradientUnits="userSpaceOnUse">
<stop stop-color="white"/>
<stop offset="1" stop-color="#ECEFF7"/>
</linearGradient>
</defs>
</svg>
