<svg width="33" height="32" viewBox="0 0 33 32" fill="none" xmlns="http://www.w3.org/2000/svg">
<path d="M22.1667 1.33337C22.9031 1.33337 23.5 1.93033 23.5 2.66671V4.00004H30.1667V12H27.4747L31.1361 22.0598C31.3711 22.6611 31.5 23.3155 31.5 24C31.5 26.9455 29.1121 29.3334 26.1667 29.3334C23.6816 29.3334 21.5935 27.6336 21.0013 25.3334H15.332C14.7399 27.6336 12.6518 29.3334 10.1667 29.3334C7.57401 29.3334 5.41344 27.4834 4.93299 25.0315C4.08128 24.5862 3.5 23.6943 3.5 22.6667V9.33337C3.5 8.597 4.09696 8.00004 4.83333 8.00004H14.1667C14.9031 8.00004 15.5 8.597 15.5 9.33337V16C15.5 16.7364 16.0969 17.3334 16.8333 17.3334H19.5C20.2364 17.3334 20.8333 16.7364 20.8333 16V4.00004H16.8333V1.33337H22.1667ZM26.1667 21.3334C24.6939 21.3334 23.5 22.5272 23.5 24C23.5 25.4728 24.6939 26.6667 26.1667 26.6667C27.6395 26.6667 28.8333 25.4728 28.8333 24C28.8333 23.6796 28.7768 23.3723 28.6732 23.0878L28.6513 23.0299C28.2633 22.0368 27.2972 21.3334 26.1667 21.3334ZM10.1667 21.3334C8.69391 21.3334 7.5 22.5272 7.5 24C7.5 25.4728 8.69391 26.6667 10.1667 26.6667C11.6394 26.6667 12.8333 25.4728 12.8333 24C12.8333 22.5272 11.6394 21.3334 10.1667 21.3334ZM12.8333 10.6667H6.16667V13.3334H12.8333V10.6667ZM27.5 6.66671H23.5V9.33337H27.5V6.66671Z" fill="#131319"/>
</svg>
