<svg width="54" height="48" viewBox="0 0 54 48" fill="none" xmlns="http://www.w3.org/2000/svg">
<path d="M48 5.33333H5.33333V42.6667L30.1128 17.884C31.1541 16.8425 32.8424 16.8424 33.884 17.8838L48 32.0277V5.33333ZM0 2.64907C0 1.18603 1.21416 0 2.6448 0H50.6885C52.1493 0 53.3333 1.18653 53.3333 2.64907V45.3509C53.3333 46.8139 52.1192 48 50.6885 48H2.6448C1.18413 48 0 46.8136 0 45.3509V2.64907ZM16 21.3333C13.0545 21.3333 10.6667 18.9456 10.6667 16C10.6667 13.0545 13.0545 10.6667 16 10.6667C18.9455 10.6667 21.3333 13.0545 21.3333 16C21.3333 18.9456 18.9455 21.3333 16 21.3333Z" fill="#C8D1D9"/>
</svg>
