<svg width="24" height="24" viewBox="0 0 24 24" fill="none" xmlns="http://www.w3.org/2000/svg">
<path d="M18.1948 19.7927C20.485 17.9683 21.9528 15.1556 21.9528 12C21.9528 6.50056 17.4946 2.04242 11.9952 2.04242C7.14919 2.04242 3.11167 5.50421 2.2207 10.0897L9.53008 15.2188L10.5547 15.9295L16.5008 10.3932L17.124 11.0235V8.06438H14.1986L14.8648 8.73835L10.3108 12.8889L5.21731 9.32285C6.33917 6.52215 8.79375 4.66426 11.9952 4.66426C16.1956 4.66426 19.4726 7.79968 19.4726 12C19.4726 13.6424 19.08 15.1632 18.1948 16.4064V19.7927Z" fill="#F2F4FB"/>
<path d="M2.04883 12.4776L10.0937 18.3009L12.7696 15.8522V21.8849C12.3352 21.9427 12.4453 21.9576 11.9951 21.9576C6.65586 21.9576 2.29805 17.7552 2.04883 12.4776Z" fill="#B8CEFF"/>
<path d="M14.0762 21.7397V14.4528L16.799 11.8762V20.724C15.9582 21.188 15.0431 21.534 14.0762 21.7397Z" fill="#B8CEFF"/>
</svg>
