<svg width="776" height="324" viewBox="0 0 776 324" fill="none" xmlns="http://www.w3.org/2000/svg">
<path opacity="0.2" d="M56.2621 263.405L32.8098 301.63H769.775C781.499 301.63 791 297.059 791 291.422V95.5569C791 93.3249 785.465 92.1685 782.072 93.6923L706.097 127.833C705.215 128.23 704.007 128.412 702.813 128.329L639.324 123.925C638.272 123.852 637.201 123.985 636.353 124.294L558.903 152.524C557.61 152.995 555.852 153.041 554.458 152.642L457.415 124.784C455.538 124.245 453.112 124.535 451.979 125.433L362.216 196.463C360.854 197.541 357.732 197.701 355.928 196.785L319.536 178.297C317.864 177.448 315.013 177.512 313.514 178.433L250.419 217.188C249.318 217.865 247.413 218.105 245.763 217.776L190.362 206.726C188.423 206.339 186.193 206.743 185.267 207.649L120.691 270.853C119.791 271.733 117.654 272.144 115.741 271.804L61.4571 262.152C59.2977 261.768 56.9137 262.343 56.2621 263.405Z" fill="url(#paint0_linear_366_30486)"/>
<path d="M542.82 272.538H385.362C382.146 272.538 379.539 275.145 379.539 278.361V301.608C379.539 304.824 382.146 307.431 385.362 307.431H542.82C546.036 307.431 548.643 304.824 548.643 301.608V278.361C548.643 275.145 546.036 272.538 542.82 272.538Z" fill="url(#paint1_linear_366_30486)" stroke="#FBC502" stroke-width="1.54154"/>
<path d="M502.964 275.449H481.584V304.529H502.964V275.449Z" fill="#FFFDF0" fill-opacity="0.43"/>
<path d="M520.458 275.449H508.795V304.529H520.458V275.449Z" fill="#FFFDF0" fill-opacity="0.43"/>
<path d="M534.063 275.449H524.345V304.529H534.063V275.449Z" fill="#FFFDF0" fill-opacity="0.43"/>
<path d="M541.838 275.449H536.007V304.529H541.838V275.449Z" fill="#FFFDF0" fill-opacity="0.43"/>
<path fill-rule="evenodd" clip-rule="evenodd" d="M475.738 275.449L392.144 304.514H475.738V275.449Z" fill="#FFFDF0" fill-opacity="0.43"/>
<path d="M542.819 202.756H385.361C382.145 202.756 379.538 205.363 379.538 208.579V231.826C379.538 235.042 382.145 237.648 385.361 237.648H542.819C546.035 237.648 548.642 235.042 548.642 231.826V208.579C548.642 205.363 546.035 202.756 542.819 202.756Z" fill="url(#paint2_linear_366_30486)" stroke="#FBC502" stroke-width="1.54154"/>
<path d="M502.963 205.657H481.582V234.736H502.963V205.657Z" fill="#FFFDF0" fill-opacity="0.43"/>
<path d="M520.456 205.657H508.794V234.736H520.456V205.657Z" fill="#FFFDF0" fill-opacity="0.43"/>
<path d="M534.062 205.657H524.343V234.736H534.062V205.657Z" fill="#FFFDF0" fill-opacity="0.43"/>
<path d="M541.836 205.657H536.005V234.736H541.836V205.657Z" fill="#FFFDF0" fill-opacity="0.43"/>
<path fill-rule="evenodd" clip-rule="evenodd" d="M475.736 205.657L392.142 234.722H475.736V205.657Z" fill="#FFFDF0" fill-opacity="0.43"/>
<path d="M526.931 237.646H369.473C366.257 237.646 363.65 240.253 363.65 243.469V266.716C363.65 269.931 366.257 272.538 369.473 272.538H526.931C530.147 272.538 532.754 269.931 532.754 266.716V243.469C532.754 240.253 530.147 237.646 526.931 237.646Z" fill="url(#paint3_linear_366_30486)" stroke="#FBC502" stroke-width="1.54154"/>
<path d="M487.075 240.548H465.695V269.627H487.075V240.548Z" fill="#FFFDF0" fill-opacity="0.43"/>
<path d="M504.569 240.548H492.906V269.627H504.569V240.548Z" fill="#FFFDF0" fill-opacity="0.43"/>
<path d="M518.174 240.548H508.456V269.627H518.174V240.548Z" fill="#FFFDF0" fill-opacity="0.43"/>
<path d="M525.949 240.548H520.118V269.627H525.949V240.548Z" fill="#FFFDF0" fill-opacity="0.43"/>
<path fill-rule="evenodd" clip-rule="evenodd" d="M459.849 240.548L376.255 269.613H459.849V240.548Z" fill="#FFFDF0" fill-opacity="0.43"/>
<path d="M365.726 273.615H208.268C205.052 273.615 202.445 276.222 202.445 279.438V302.685C202.445 305.901 205.052 308.508 208.268 308.508H365.726C368.942 308.508 371.549 305.901 371.549 302.685V279.438C371.549 276.222 368.942 273.615 365.726 273.615Z" fill="url(#paint4_linear_366_30486)" stroke="#FBC502" stroke-width="1.54154"/>
<path d="M325.87 276.516H304.489V305.595H325.87V276.516Z" fill="#FFFDF0" fill-opacity="0.43"/>
<path d="M343.363 276.516H331.701V305.595H343.363V276.516Z" fill="#FFFDF0" fill-opacity="0.43"/>
<path d="M356.969 276.516H347.251V305.595H356.969V276.516Z" fill="#FFFDF0" fill-opacity="0.43"/>
<path d="M364.744 276.516H358.913V305.595H364.744V276.516Z" fill="#FFFDF0" fill-opacity="0.43"/>
<path fill-rule="evenodd" clip-rule="evenodd" d="M298.644 276.516L215.049 305.581H298.644V276.516Z" fill="#FFFDF0" fill-opacity="0.43"/>
<path d="M349.838 238.724H192.38C189.164 238.724 186.557 241.331 186.557 244.547V267.794C186.557 271.01 189.164 273.617 192.38 273.617H349.838C353.054 273.617 355.661 271.01 355.661 267.794V244.547C355.661 241.331 353.054 238.724 349.838 238.724Z" fill="url(#paint5_linear_366_30486)" stroke="#FBC502" stroke-width="1.54154"/>
<path d="M309.983 241.635H288.602V270.714H309.983V241.635Z" fill="#FFFDF0" fill-opacity="0.43"/>
<path d="M327.476 241.635H315.814V270.714H327.476V241.635Z" fill="#FFFDF0" fill-opacity="0.43"/>
<path d="M341.082 241.635H331.363V270.714H341.082V241.635Z" fill="#FFFDF0" fill-opacity="0.43"/>
<path d="M348.856 241.635H343.025V270.714H348.856V241.635Z" fill="#FFFDF0" fill-opacity="0.43"/>
<path fill-rule="evenodd" clip-rule="evenodd" d="M282.756 241.636L199.162 270.701H282.756V241.636Z" fill="#FFFDF0" fill-opacity="0.43"/>
<path d="M178.281 271.923H20.8226C17.6068 271.923 14.9998 274.53 14.9998 277.746V300.993C14.9998 304.209 17.6068 306.816 20.8226 306.816H178.281C181.496 306.816 184.103 304.209 184.103 300.993V277.746C184.103 274.53 181.496 271.923 178.281 271.923Z" fill="url(#paint6_linear_366_30486)" stroke="#FBC502" stroke-width="1.54154"/>
<path d="M138.426 274.824H117.045V303.903H138.426V274.824Z" fill="#FFFDF0" fill-opacity="0.43"/>
<path d="M155.919 274.824H144.257V303.903H155.919V274.824Z" fill="#FFFDF0" fill-opacity="0.43"/>
<path d="M169.525 274.824H159.806V303.903H169.525V274.824Z" fill="#FFFDF0" fill-opacity="0.43"/>
<path d="M177.299 274.824H171.468V303.903H177.299V274.824Z" fill="#FFFDF0" fill-opacity="0.43"/>
<path fill-rule="evenodd" clip-rule="evenodd" d="M111.199 274.824L27.6045 303.89H111.199V274.824Z" fill="#FFFDF0" fill-opacity="0.43"/>
<path d="M730.976 272.538H573.518C570.303 272.538 567.696 275.145 567.696 278.361V301.608C567.696 304.824 570.303 307.431 573.518 307.431H730.976C734.192 307.431 736.799 304.824 736.799 301.608V278.361C736.799 275.145 734.192 272.538 730.976 272.538Z" fill="url(#paint7_linear_366_30486)" stroke="#FBC502" stroke-width="1.54154"/>
<path d="M691.122 275.45H669.741V304.53H691.122V275.45Z" fill="#FFFDF0" fill-opacity="0.43"/>
<path d="M708.615 275.45H696.952V304.53H708.615V275.45Z" fill="#FFFDF0" fill-opacity="0.43"/>
<path d="M722.22 275.45H712.502V304.53H722.22V275.45Z" fill="#FFFDF0" fill-opacity="0.43"/>
<path d="M729.995 275.45H724.164V304.53H729.995V275.45Z" fill="#FFFDF0" fill-opacity="0.43"/>
<path fill-rule="evenodd" clip-rule="evenodd" d="M663.895 275.45L580.301 304.515H663.895V275.45Z" fill="#FFFDF0" fill-opacity="0.43"/>
<path d="M730.976 202.755H573.518C570.302 202.755 567.695 205.362 567.695 208.578V231.825C567.695 235.04 570.302 237.647 573.518 237.647H730.976C734.191 237.647 736.798 235.04 736.798 231.825V208.578C736.798 205.362 734.191 202.755 730.976 202.755Z" fill="url(#paint8_linear_366_30486)" stroke="#FBC502" stroke-width="1.54154"/>
<path d="M691.12 205.657H669.74V234.736H691.12V205.657Z" fill="#FFFDF0" fill-opacity="0.43"/>
<path d="M708.613 205.657H696.951V234.736H708.613V205.657Z" fill="#FFFDF0" fill-opacity="0.43"/>
<path d="M722.219 205.657H712.5V234.736H722.219V205.657Z" fill="#FFFDF0" fill-opacity="0.43"/>
<path d="M729.993 205.657H724.162V234.736H729.993V205.657Z" fill="#FFFDF0" fill-opacity="0.43"/>
<path fill-rule="evenodd" clip-rule="evenodd" d="M663.894 205.657L580.299 234.722H663.894V205.657Z" fill="#FFFDF0" fill-opacity="0.43"/>
<path d="M742.758 166.784H585.3C582.084 166.784 579.477 169.391 579.477 172.607V195.853C579.477 199.069 582.084 201.676 585.3 201.676H742.758C745.974 201.676 748.581 199.069 748.581 195.853V172.607C748.581 169.391 745.974 166.784 742.758 166.784Z" fill="url(#paint9_linear_366_30486)" stroke="#FBC502" stroke-width="1.54154"/>
<path d="M702.903 169.684H681.523V198.763H702.903V169.684Z" fill="#FFFDF0" fill-opacity="0.43"/>
<path d="M720.397 169.684H708.734V198.763H720.397V169.684Z" fill="#FFFDF0" fill-opacity="0.43"/>
<path d="M734.002 169.684H724.284V198.763H734.002V169.684Z" fill="#FFFDF0" fill-opacity="0.43"/>
<path d="M741.777 169.684H735.946V198.763H741.777V169.684Z" fill="#FFFDF0" fill-opacity="0.43"/>
<path fill-rule="evenodd" clip-rule="evenodd" d="M675.677 169.684L592.083 198.75H675.677V169.684Z" fill="#FFFDF0" fill-opacity="0.43"/>
<path d="M715.088 237.645H557.63C554.414 237.645 551.807 240.252 551.807 243.468V266.715C551.807 269.931 554.414 272.538 557.63 272.538H715.088C718.304 272.538 720.911 269.931 720.911 266.715V243.468C720.911 240.252 718.304 237.645 715.088 237.645Z" fill="url(#paint10_linear_366_30486)" stroke="#FBC502" stroke-width="1.54154"/>
<path d="M675.232 240.546H653.852V269.625H675.232V240.546Z" fill="#FFFDF0" fill-opacity="0.43"/>
<path d="M692.726 240.546H681.063V269.625H692.726V240.546Z" fill="#FFFDF0" fill-opacity="0.43"/>
<path d="M706.331 240.546H696.613V269.625H706.331V240.546Z" fill="#FFFDF0" fill-opacity="0.43"/>
<path d="M714.106 240.546H708.275V269.625H714.106V240.546Z" fill="#FFFDF0" fill-opacity="0.43"/>
<path fill-rule="evenodd" clip-rule="evenodd" d="M648.006 240.546L564.412 269.611H648.006V240.546Z" fill="#FFFDF0" fill-opacity="0.43"/>
<path d="M445.553 198.769L488.534 135.742L446.782 74.1006H472.766L501.658 117.994L530.282 74.1006H556.443L514.691 135.742L557.5 198.769H531.516L501.658 153.49L471.709 198.769H445.553Z" fill="url(#paint11_linear_366_30486)"/>
<path d="M432.831 198.769L473.536 135.742L433.998 74.1006H458.604L485.96 117.994L513.069 74.1006H537.84L498.306 135.742L538.842 198.769H514.236L485.96 153.49L457.602 198.769H432.831Z" fill="#118911"/>
<path d="M410.318 198.769V170.875H335.301V144.505L389.509 30H421.843L367.636 144.505H410.318V100.555H439.009V144.505H454.882V170.875H439.009V198.769H410.318Z" fill="url(#paint12_linear_366_30486)"/>
<path d="M386.04 198.769V170.875H311.555V144.505L365.376 30H397.482L343.66 144.505H386.04V100.555H414.527V144.505H430.287V170.875H414.527V198.769H386.04Z" fill="#118911"/>
<path fill-rule="evenodd" clip-rule="evenodd" d="M503.704 174.416L501.097 189.131L510.283 200.74L495.946 198.064L484.635 207.492L487.242 192.778L478.056 181.168L492.392 183.844L503.704 174.416ZM493.086 186.62L484.346 184.988L489.946 192.066L488.357 201.036L495.253 195.288L503.993 196.92L498.392 189.842L499.982 180.872L493.086 186.62Z" fill="white"/>
<path fill-rule="evenodd" clip-rule="evenodd" d="M224.622 224.79L214.802 230.946L212.904 242.272L206.983 232.632L195.674 231.032L205.494 224.875L207.392 213.55L213.313 223.189L224.622 224.79ZM212.077 225.032L208.468 219.156L207.311 226.06L201.324 229.813L208.219 230.789L211.828 236.666L212.985 229.761L218.972 226.008L212.077 225.032Z" fill="white"/>
<path fill-rule="evenodd" clip-rule="evenodd" d="M351.387 285.299L340.126 282.552L330.685 289.089L333.466 278.123L326.728 268.9L337.989 271.647L347.43 265.111L344.649 276.076L351.387 285.299ZM342.466 276.476L344.162 269.791L338.406 273.776L331.541 272.101L335.649 277.724L333.953 284.409L339.709 280.424L346.574 282.098L342.466 276.476Z" fill="white"/>
<path d="M538.693 74.9474L536.909 84.3796L543.194 91.8215L533.385 90.106L525.645 96.1496L527.43 86.7176L521.144 79.2755L530.954 80.991L538.693 74.9474Z" fill="url(#paint13_linear_366_30486)"/>
<path d="M219.641 226.147L213.287 230.029L212.277 237.517L208.159 230.981L200.655 229.674L207.009 225.793L208.019 218.304L212.137 224.84L219.641 226.147Z" fill="url(#paint14_linear_366_30486)"/>
<path d="M346.941 282.674L339.728 280.826L333.656 285.323L335.47 277.815L331.174 271.525L338.387 273.373L344.459 268.876L342.646 276.384L346.941 282.674Z" fill="url(#paint15_linear_366_30486)"/>
<path d="M320.962 95.2321C333.092 98.3876 345.482 91.1129 348.638 78.9836C351.793 66.8543 344.519 54.4634 332.389 51.3079C320.26 48.1524 307.869 55.4271 304.714 67.5565C301.558 79.6858 308.833 92.0766 320.962 95.2321Z" fill="url(#paint16_linear_366_30486)"/>
<path d="M331.381 55.1834C321.392 52.5847 311.213 58.4793 308.645 68.3492C306.078 78.2192 312.094 88.327 322.083 90.9256C332.071 93.5243 342.25 87.6297 344.818 77.7598C347.386 67.8898 341.37 57.782 331.381 55.1834Z" fill="url(#paint17_linear_366_30486)"/>
<defs>
<linearGradient id="paint0_linear_366_30486" x1="634.952" y1="237.611" x2="765.137" y2="150.841" gradientUnits="userSpaceOnUse">
<stop stop-color="#AC6CDA"/>
<stop offset="1" stop-color="white" stop-opacity="0"/>
</linearGradient>
<linearGradient id="paint1_linear_366_30486" x1="382.297" y1="289.984" x2="546.19" y2="289.984" gradientUnits="userSpaceOnUse">
<stop stop-color="#FEE8BC"/>
<stop offset="1" stop-color="#F1CB03"/>
</linearGradient>
<linearGradient id="paint2_linear_366_30486" x1="382.296" y1="220.202" x2="546.189" y2="220.202" gradientUnits="userSpaceOnUse">
<stop stop-color="#FEE8BC"/>
<stop offset="1" stop-color="#F1CB03"/>
</linearGradient>
<linearGradient id="paint3_linear_366_30486" x1="366.408" y1="255.092" x2="530.301" y2="255.092" gradientUnits="userSpaceOnUse">
<stop stop-color="#FEE8BC"/>
<stop offset="1" stop-color="#F1CB03"/>
</linearGradient>
<linearGradient id="paint4_linear_366_30486" x1="205.203" y1="291.061" x2="369.096" y2="291.061" gradientUnits="userSpaceOnUse">
<stop stop-color="#FEE8BC"/>
<stop offset="1" stop-color="#F1CB03"/>
</linearGradient>
<linearGradient id="paint5_linear_366_30486" x1="189.315" y1="256.171" x2="353.208" y2="256.171" gradientUnits="userSpaceOnUse">
<stop stop-color="#FEE8BC"/>
<stop offset="1" stop-color="#F1CB03"/>
</linearGradient>
<linearGradient id="paint6_linear_366_30486" x1="17.7575" y1="289.37" x2="181.651" y2="289.37" gradientUnits="userSpaceOnUse">
<stop stop-color="#FEE8BC"/>
<stop offset="1" stop-color="#F1CB03"/>
</linearGradient>
<linearGradient id="paint7_linear_366_30486" x1="570.453" y1="289.985" x2="734.346" y2="289.985" gradientUnits="userSpaceOnUse">
<stop stop-color="#FEE8BC"/>
<stop offset="1" stop-color="#F1CB03"/>
</linearGradient>
<linearGradient id="paint8_linear_366_30486" x1="570.453" y1="220.201" x2="734.346" y2="220.201" gradientUnits="userSpaceOnUse">
<stop stop-color="#FEE8BC"/>
<stop offset="1" stop-color="#F1CB03"/>
</linearGradient>
<linearGradient id="paint9_linear_366_30486" x1="582.235" y1="184.23" x2="746.128" y2="184.23" gradientUnits="userSpaceOnUse">
<stop stop-color="#FEE8BC"/>
<stop offset="1" stop-color="#F1CB03"/>
</linearGradient>
<linearGradient id="paint10_linear_366_30486" x1="554.565" y1="255.092" x2="718.458" y2="255.092" gradientUnits="userSpaceOnUse">
<stop stop-color="#FEE8BC"/>
<stop offset="1" stop-color="#F1CB03"/>
</linearGradient>
<linearGradient id="paint11_linear_366_30486" x1="496.472" y1="207.682" x2="499.367" y2="152.465" gradientUnits="userSpaceOnUse">
<stop stop-color="#228B22"/>
<stop offset="1" stop-color="#7FC782"/>
</linearGradient>
<linearGradient id="paint12_linear_366_30486" x1="389.695" y1="210.835" x2="394.651" y2="136.209" gradientUnits="userSpaceOnUse">
<stop stop-color="#228B22"/>
<stop offset="1" stop-color="#7FC782"/>
</linearGradient>
<linearGradient id="paint13_linear_366_30486" x1="538.693" y1="74.9474" x2="526.389" y2="96.5727" gradientUnits="userSpaceOnUse">
<stop stop-color="#FFD700"/>
<stop offset="1" stop-color="#FFF6C2"/>
</linearGradient>
<linearGradient id="paint14_linear_366_30486" x1="219.641" y1="226.147" x2="200.799" y2="230.322" gradientUnits="userSpaceOnUse">
<stop stop-color="#FFD700"/>
<stop offset="1" stop-color="#FFF6C2"/>
</linearGradient>
<linearGradient id="paint15_linear_366_30486" x1="346.941" y1="282.674" x2="330.81" y2="272.08" gradientUnits="userSpaceOnUse">
<stop stop-color="#FFD700"/>
<stop offset="1" stop-color="#FFF6C2"/>
</linearGradient>
<linearGradient id="paint16_linear_366_30486" x1="332.389" y1="51.3079" x2="320.962" y2="95.2321" gradientUnits="userSpaceOnUse">
<stop stop-color="#FFD700"/>
<stop offset="1" stop-color="#FFF6C2"/>
</linearGradient>
<linearGradient id="paint17_linear_366_30486" x1="322.083" y1="90.9255" x2="331.381" y2="55.1834" gradientUnits="userSpaceOnUse">
<stop stop-color="#FFD700"/>
<stop offset="1" stop-color="#FFF6C2"/>
</linearGradient>
</defs>
</svg>
