<svg width="27" height="27" viewBox="0 0 27 27" fill="none" xmlns="http://www.w3.org/2000/svg">
<path fill-rule="evenodd" clip-rule="evenodd" d="M13.5144 0.95752C6.34469 0.95752 0.532471 6.76907 0.532471 13.938C0.532471 21.1069 6.34469 26.9184 13.5144 26.9184C20.6842 26.9184 26.4964 21.1069 26.4964 13.938C26.4964 6.76907 20.6842 0.95752 13.5144 0.95752ZM13.5144 4.30732C18.8339 4.30732 23.1462 8.61911 23.1462 13.938C23.1462 19.2568 18.8339 23.5686 13.5144 23.5686C8.19495 23.5686 3.88265 19.2568 3.88265 13.938C3.88265 8.61911 8.19495 4.30732 13.5144 4.30732Z" fill="#7097FF"/>
<path fill-rule="evenodd" clip-rule="evenodd" d="M1.4834 18.8452L9.63203 12.2339L25.6577 18.5428C23.694 24.0983 18.7238 26.9395 13.0008 26.9395C13.0008 25.7813 13.0008 24.7177 13.0008 23.5624C15.0878 23.5624 17.3518 23.341 20.0898 20.9785C16.2601 19.4262 10.1771 16.9721 10.1771 16.9721C10.1771 16.9721 7.53009 18.8473 6.18477 20.1926C7.43436 21.5689 9.70638 23.341 13.0008 23.5624C13.0008 24.3588 13.0008 25.7475 13.0008 26.9395C4.34535 26.6644 1.4834 18.8452 1.4834 18.8452Z" fill="#182BFF"/>
</svg>
