<svg width="32" height="32" viewBox="0 0 32 32" fill="none" xmlns="http://www.w3.org/2000/svg">
<path d="M8 5.33329V10.6666H24V5.33329H26.6755C27.4069 5.33329 28 5.92656 28 6.65783V28.0088C28 28.7402 27.4068 29.3333 26.6755 29.3333H5.32453C4.59301 29.3333 4 28.7401 4 28.0088V6.65783C4 5.92631 4.59327 5.33329 5.32453 5.33329H8ZM12 22.6666H9.33333V25.3333H12V22.6666ZM12 18.6666H9.33333V21.3333H12V18.6666ZM12 14.6666H9.33333V17.3333H12V14.6666ZM21.3333 2.66663V7.99996H10.6667V2.66663H21.3333Z" fill="#F2F4FB"/>
</svg>
