<svg width="65" height="65" viewBox="0 0 65 65" fill="none" xmlns="http://www.w3.org/2000/svg">
<path d="M48.7493 5.41663L59.5827 16.25M5.41602 59.5833L8.87294 46.9079C9.09847 46.081 9.21124 45.6675 9.38435 45.2819C9.53806 44.9395 9.72693 44.6141 9.94791 44.3108C10.1968 43.9692 10.4999 43.6661 11.106 43.06L39.0923 15.0737C39.6286 14.5374 39.8967 14.2693 40.2059 14.1688C40.4779 14.0804 40.7708 14.0804 41.0428 14.1688C41.352 14.2693 41.6201 14.5374 42.1564 15.0737L49.9256 22.8429C50.4619 23.3792 50.73 23.6473 50.8305 23.9565C50.9189 24.2285 50.9189 24.5214 50.8305 24.7934C50.73 25.1026 50.4619 25.3708 49.9256 25.907L21.9393 53.8933C21.3332 54.4994 21.0301 54.8025 20.6885 55.0514C20.3852 55.2724 20.0598 55.4613 19.7174 55.615C19.3318 55.7881 18.9183 55.9008 18.0914 56.1264L5.41602 59.5833Z" stroke="#C5C6CA" stroke-width="4" stroke-linecap="round" stroke-linejoin="round"/>
</svg>
