<svg width="142" height="43" viewBox="0 0 142 43" fill="none" xmlns="http://www.w3.org/2000/svg">
<g clip-path="url(#clip0_986_25996)">
<path d="M136.738 42.242H5.26181C2.36927 42.242 0.00268555 39.8754 0.00268555 36.9828V5.42807C0.00268555 2.53553 2.36927 0.168945 5.26181 0.168945H136.738C139.631 0.168945 141.997 2.53553 141.997 5.42807V36.9828C141.997 39.8754 139.631 42.242 136.738 42.242Z" fill="#100F0D"/>
<path d="M136.738 0.168945H5.26181C2.36927 0.168945 0.00268555 2.53553 0.00268555 5.42807V36.9828C0.00268555 39.8754 2.36927 42.242 5.26181 42.242H136.738C139.631 42.242 141.997 39.8754 141.997 36.9828V5.42807C141.997 2.53553 139.631 0.168945 136.738 0.168945ZM136.738 1.00998C139.174 1.00998 141.156 2.99206 141.156 5.42807V36.9828C141.156 39.4188 139.174 41.4009 136.738 41.4009H5.26181C2.8258 41.4009 0.844588 39.4188 0.844588 36.9828V5.42807C0.844588 2.99206 2.8258 1.00998 5.26181 1.00998H136.738Z" fill="#100F0D"/>
<path d="M112.48 31.723H114.442V18.573H112.48V31.723ZM130.158 23.3103L127.908 29.0111H127.841L125.506 23.3103H123.392L126.894 31.278L124.897 35.7104H126.944L132.341 23.3107L130.158 23.3103ZM119.027 30.2293C118.385 30.2293 117.488 29.9075 117.488 29.1125C117.488 28.0976 118.605 27.7086 119.568 27.7086C120.431 27.7086 120.838 27.8943 121.362 28.1482C121.209 29.3664 120.161 30.2293 119.027 30.2293ZM119.264 23.0226C117.843 23.0226 116.372 23.6488 115.763 25.036L117.505 25.7632C117.877 25.036 118.57 24.7993 119.298 24.7993C120.313 24.7993 121.345 25.4078 121.362 26.4909V26.626C121.006 26.423 120.245 26.1186 119.315 26.1186C117.436 26.1186 115.525 27.1503 115.525 29.0789C115.525 30.8382 117.065 31.9718 118.79 31.9718C120.109 31.9718 120.838 31.3797 121.293 30.6858H121.362V31.7014H123.257V26.6596C123.257 24.3251 121.513 23.0226 119.264 23.0226ZM107.134 24.911H104.343V20.4038H107.134C108.602 20.4038 109.435 21.6184 109.435 22.6574C109.435 23.6764 108.602 24.911 107.134 24.911ZM107.084 18.5733H102.381V31.7233H104.343V26.7415H107.084C109.259 26.7415 111.398 25.1671 111.398 22.6579C111.398 20.1491 109.259 18.5733 107.084 18.5733ZM81.4396 30.2315C80.0836 30.2315 78.9488 29.0958 78.9488 27.5375C78.9488 25.9609 80.0836 24.8092 81.4396 24.8092C82.7782 24.8092 83.8288 25.961 83.8288 27.5375C83.8288 29.0958 82.7782 30.2315 81.4396 30.2315ZM83.6932 24.0464H83.6253C83.1849 23.5212 82.3372 23.0467 81.2703 23.0467C79.0331 23.0467 76.9828 25.0127 76.9828 27.5375C76.9828 30.045 79.0331 31.9937 81.2703 31.9937C82.3372 31.9937 83.1849 31.5191 83.6253 30.9772H83.6932V31.6206C83.6932 33.3328 82.7782 34.2473 81.304 34.2473C80.1013 34.2473 79.3556 33.3833 79.0503 32.6547L77.3392 33.3663C77.8302 34.552 79.1346 36.0099 81.304 36.0099C83.609 36.0099 85.5577 34.654 85.5577 31.3494V23.3177H83.6933L83.6932 24.0464ZM86.9136 31.7226H88.8784V18.5726H86.9136V31.7226ZM91.7763 27.3846C91.7257 25.6561 93.1157 24.7752 94.115 24.7752C94.8948 24.7752 95.555 25.1651 95.7761 25.7239L91.7763 27.3846ZM97.8765 25.8932C97.5038 24.894 96.3686 23.0467 94.0471 23.0467C91.7421 23.0467 89.8275 24.8598 89.8275 27.5203C89.8275 30.0282 91.7257 31.9938 94.267 31.9938C96.3172 31.9938 97.5039 30.7403 97.9956 30.0113L96.4704 28.9945C95.9619 29.7402 95.2675 30.2316 94.267 30.2316C93.2678 30.2316 92.5557 29.7739 92.0989 28.8758L98.0798 26.4019L97.8765 25.8932ZM50.2205 24.4194V26.3172H54.7617C54.6261 27.3847 54.2703 28.1641 53.728 28.7064C53.0669 29.3671 52.0332 30.096 50.2204 30.096C47.4243 30.096 45.2386 27.8424 45.2386 25.0464C45.2386 22.2504 47.4243 19.9965 50.2204 19.9965C51.7286 19.9965 52.8298 20.5897 53.6432 21.3522L54.9823 20.0133C53.8466 18.9289 52.3387 18.0986 50.2204 18.0986C46.3902 18.0986 43.1707 21.2166 43.1707 25.0464C43.1707 28.8757 46.3902 31.9938 50.2204 31.9938C52.2874 31.9938 53.8467 31.3159 55.0665 30.0451C56.3206 28.7911 56.7104 27.0289 56.7104 25.6052C56.7104 25.1651 56.6763 24.7584 56.6085 24.4194H50.2205ZM61.8739 30.2315C60.518 30.2315 59.3487 29.1131 59.3487 27.5203C59.3487 25.9104 60.518 24.8093 61.8739 24.8093C63.2293 24.8093 64.3986 25.9104 64.3986 27.5203C64.3986 29.1131 63.2293 30.2315 61.8739 30.2315ZM61.8739 23.0467C59.3992 23.0467 57.383 24.9276 57.383 27.5203C57.383 30.096 59.3992 31.9938 61.8739 31.9938C64.3477 31.9938 66.3643 30.096 66.3643 27.5203C66.3643 24.9276 64.3477 23.0467 61.8739 23.0467ZM71.6696 30.2315C70.3146 30.2315 69.1449 29.1131 69.1449 27.5203C69.1449 25.9104 70.3147 24.8093 71.6696 24.8093C73.0255 24.8093 74.1944 25.9104 74.1944 27.5203C74.1944 29.1131 73.0255 30.2315 71.6696 30.2315ZM71.6696 23.0467C69.1958 23.0467 67.1796 24.9276 67.1796 27.5203C67.1796 30.096 69.1958 31.9938 71.6696 31.9938C74.1443 31.9938 76.1605 30.096 76.1605 27.5203C76.1605 24.9276 74.1443 23.0467 71.6696 23.0467Z" fill="white"/>
<path d="M21.7907 20.5988L10.5933 32.4842C10.5937 32.4866 10.5945 32.4887 10.5949 32.4912C10.9383 33.7818 12.1172 34.7321 13.5162 34.7321C14.0754 34.7321 14.6005 34.5809 15.0508 34.3155L15.0866 34.2945L27.6914 27.021L21.7907 20.5988Z" fill="#EB3131"/>
<path d="M33.12 18.5762L33.1093 18.5688L27.6674 15.4141L21.5364 20.8697L27.6887 27.0212L33.1019 23.8979C34.0509 23.3855 34.6952 22.385 34.6952 21.2312C34.6952 20.0858 34.0597 19.0902 33.12 18.5762Z" fill="#F6B60B"/>
<path d="M10.5917 9.92676C10.5244 10.175 10.489 10.435 10.489 10.705V31.7076C10.489 31.9771 10.524 32.238 10.5921 32.4853L22.1762 20.9037L10.5917 9.92676Z" fill="#5778C5"/>
<path d="M21.8737 21.2064L27.6699 15.4119L15.0792 8.11199C14.6216 7.83788 14.0874 7.67969 13.5159 7.67969C12.1168 7.67969 10.9364 8.63172 10.593 9.92384C10.5925 9.9251 10.5925 9.92597 10.5925 9.92707L21.8737 21.2064Z" fill="#3BAD49"/>
<path d="M49.8521 10.4565H46.7838V11.2158H49.083C49.0206 11.8354 48.774 12.3219 48.3582 12.6752C47.9424 13.0286 47.4116 13.2061 46.7838 13.2061C46.0951 13.2061 45.5117 12.9661 45.0335 12.4896C44.5651 12.0031 44.3268 11.4015 44.3268 10.6768C44.3268 9.95208 44.5651 9.3505 45.0335 8.86408C45.5117 8.38749 46.0951 8.14915 46.7838 8.14915C47.1372 8.14915 47.4741 8.20995 47.783 8.34311C48.092 8.47616 48.3401 8.66191 48.5341 8.90026L49.1175 8.31682C48.8529 8.016 48.5177 7.78596 48.1018 7.6183C47.686 7.45064 47.2521 7.37017 46.7837 7.37017C45.865 7.37017 45.0861 7.68898 44.45 8.32504C43.8139 8.96266 43.4951 9.74828 43.4951 10.6768C43.4951 11.6053 43.8139 12.3926 44.45 13.0287C45.086 13.6646 45.865 13.9836 46.7837 13.9836C47.7484 13.9836 48.5176 13.6746 49.1092 13.0467C49.6302 12.5242 49.8964 11.8175 49.8964 10.9333C49.8964 10.7837 49.8784 10.6241 49.8521 10.4565ZM51.0408 7.51138V13.8421H54.7369V13.0647H51.8543V11.0565H54.4544V10.2971H51.8543V8.29044H54.7369V7.51135L51.0408 7.51138ZM59.9198 8.29047V7.51138H55.5694V8.29047H57.3379V13.8421H58.1514V8.29047H59.9198ZM63.8583 7.51138H63.0448V13.8421H63.8583V7.51138ZM69.228 8.29047V7.51138H64.8777V8.29047H66.646V13.8421H67.4595V8.29047H69.228ZM77.4371 8.33485C76.8093 7.68893 76.0402 7.37012 75.1214 7.37012C74.2011 7.37012 73.432 7.68892 72.8041 8.32499C72.1763 8.95283 71.8674 9.74002 71.8674 10.6767C71.8674 11.6135 72.1763 12.4008 72.8041 13.0287C73.432 13.6646 74.2011 13.9835 75.1214 13.9835C76.0319 13.9835 76.8092 13.6646 77.4371 13.0287C78.065 12.4008 78.3739 11.6136 78.3739 10.6767C78.3739 9.74822 78.0649 8.96257 77.4371 8.33485ZM73.3876 8.86402C73.856 8.38744 74.4312 8.1491 75.1214 8.1491C75.8101 8.1491 76.3853 8.38745 76.8455 8.86402C77.3138 9.3324 77.5439 9.94369 77.5439 10.6767C77.5439 11.4114 77.3138 12.0211 76.8455 12.4895C76.3853 12.9661 75.8101 13.206 75.1214 13.206C74.4312 13.206 73.856 12.9661 73.3876 12.4895C72.929 12.0113 72.699 11.4114 72.699 10.6767C72.699 9.94371 72.929 9.34225 73.3876 8.86402ZM80.3066 9.89944L80.2722 8.67824H80.3066L83.5246 13.8421H84.3742V7.51131H83.5607V11.2157L83.5952 12.4369H83.5607L80.4841 7.51131H79.4931V13.8421H80.3066V9.89944Z" fill="white" stroke="white" stroke-width="0.210365" stroke-miterlimit="10"/>
</g>
<defs>
<clipPath id="clip0_986_25996">
<rect width="142" height="42.0738" fill="white" transform="translate(0 0.167969)"/>
</clipPath>
</defs>
</svg>
