<svg width="25" height="28" viewBox="0 0 25 28" fill="none" xmlns="http://www.w3.org/2000/svg">
<path d="M4.5 3.33341V8.66675H20.5V3.33341H23.1755C23.9069 3.33341 24.5 3.92668 24.5 4.65795V26.0089C24.5 26.7403 23.9068 27.3334 23.1755 27.3334H1.82453C1.09301 27.3334 0.5 26.7402 0.5 26.0089V4.65795C0.5 3.92643 1.09327 3.33341 1.82453 3.33341H4.5ZM8.5 20.6667H5.83333V23.3334H8.5V20.6667ZM8.5 16.6667H5.83333V19.3334H8.5V16.6667ZM8.5 12.6667H5.83333V15.3334H8.5V12.6667ZM17.8333 0.666748V6.00008H7.16667V0.666748H17.8333Z" fill="#101010"/>
</svg>
