<svg width="32" height="33" viewBox="0 0 32 33" fill="none" xmlns="http://www.w3.org/2000/svg">
<path d="M20 28.5H17.3333V24.5H14.6667V28.5H12V25.8333H9.33333V28.5H5.33333C4.59696 28.5 4 27.9031 4 27.1667V23.1667H6.66667V20.5H4V17.8333H8V15.1667H4V12.5H6.66667V9.83333H4V5.83333C4 5.09696 4.59696 4.5 5.33333 4.5H13.3333C14.0697 4.5 14.6667 5.09696 14.6667 5.83333V17.8333H26.6667C27.4031 17.8333 28 18.4303 28 19.1667V27.1667C28 27.9031 27.4031 28.5 26.6667 28.5H22.6667V25.8333H20V28.5Z" fill="#182BFF"/>
</svg>
