<svg width="24" height="25" viewBox="0 0 24 25" fill="none" xmlns="http://www.w3.org/2000/svg">
<path d="M18.0049 20.9399H6.00488V22.9399H4.00488V20.9399H3.00488C2.4526 20.9399 2.00488 20.4922 2.00488 19.9399V4.93994C2.00488 4.38766 2.4526 3.93994 3.00488 3.93994H21.0049C21.5572 3.93994 22.0049 4.38766 22.0049 4.93994V19.9399C22.0049 20.4922 21.5572 20.9399 21.0049 20.9399H20.0049V22.9399H18.0049V20.9399ZM11.0049 14.8139V17.9399H13.0049V14.8139C14.7301 14.3698 16.0049 12.8037 16.0049 10.9399C16.0049 8.7308 14.214 6.93994 12.0049 6.93994C9.79574 6.93994 8.00488 8.7308 8.00488 10.9399C8.00488 12.8037 9.27966 14.3698 11.0049 14.8139ZM12.0049 12.9399C10.9003 12.9399 10.0049 12.0445 10.0049 10.9399C10.0049 9.83537 10.9003 8.93994 12.0049 8.93994C13.1095 8.93994 14.0049 9.83537 14.0049 10.9399C14.0049 12.0445 13.1095 12.9399 12.0049 12.9399Z" fill="#F2F4FB"/>
</svg>
