<svg width="142" height="43" viewBox="0 0 142 43" fill="none" xmlns="http://www.w3.org/2000/svg">
<g clip-path="url(#clip0_986_25973)">
<path d="M134.056 0.167969H7.94406C3.55667 0.167969 0 3.72464 0 8.11202V31.9442C0 36.3316 3.55667 39.8882 7.94406 39.8882H134.056C138.443 39.8882 142 36.3316 142 31.9442V8.11202C142 3.72464 138.443 0.167969 134.056 0.167969Z" fill="black"/>
<path d="M136.948 42.242H4.97421C2.23203 42.242 0 40.0037 0 37.2636V5.13902C0 2.39789 2.23203 0.167969 4.97421 0.167969H136.948C139.689 0.167969 142 2.39789 142 5.13902V37.2636C142 40.0037 139.689 42.242 136.948 42.242Z" fill="#363A45"/>
<path d="M140.982 37.2641C140.982 39.4898 139.179 41.2927 136.949 41.2927H4.9741C2.74522 41.2927 0.936035 39.4898 0.936035 37.2641V5.13737C0.936035 2.9127 2.74522 1.10352 4.9741 1.10352H136.948C139.179 1.10352 140.981 2.9127 140.981 5.13737L140.982 37.2641Z" fill="#363A45"/>
<path fill-rule="evenodd" clip-rule="evenodd" d="M22.8391 29.9933H15.8881V19.0702H8.93701V12.1191H22.8391V29.9933ZM44.1888 12.1191L36.7412 29.9933H28.7971L36.2447 12.1191H44.1888ZM28.7971 20.0632C30.9908 20.0632 32.7692 18.2848 32.7692 16.0912C32.7692 13.8975 30.9908 12.1191 28.7971 12.1191C26.6035 12.1191 24.8251 13.8975 24.8251 16.0912C24.8251 18.2848 26.6035 20.0632 28.7971 20.0632Z" fill="white"/>
<mask id="mask0_986_25973" style="mask-type:luminance" maskUnits="userSpaceOnUse" x="46" y="5" width="90" height="32">
<path d="M135.049 5.16797H46.6709V36.9442H135.049V5.16797Z" fill="white"/>
</mask>
<g mask="url(#mask0_986_25973)">
<path d="M54.1025 30.9343H56.0047V23.4816H58.4932V21.6836H51.6399V23.4816H54.1025V30.9343Z" fill="white"/>
<path d="M58.4956 30.9336H60.2806V27.8196C60.2806 26.7381 60.8409 26.0867 61.6877 26.0867C61.9874 26.0867 62.222 26.1389 62.4955 26.23V24.419C62.2741 24.3538 62.0917 24.3408 61.8962 24.3408C61.1666 24.3408 60.5021 24.8228 60.2806 25.4613V24.419H58.4956V30.9336Z" fill="white"/>
<path d="M65.9218 31.0766C66.8208 31.0766 67.4983 30.6206 67.798 30.2036V30.9333H69.583V24.4187H67.798V25.1483C67.4983 24.7314 66.8208 24.2754 65.9218 24.2754C64.1889 24.2754 62.86 25.8389 62.86 27.6759C62.86 29.5131 64.1889 31.0766 65.9218 31.0766ZM66.2997 29.448C65.3094 29.448 64.658 28.7053 64.658 27.6759C64.658 26.6467 65.3094 25.904 66.2997 25.904C67.2899 25.904 67.9413 26.6467 67.9413 27.6759C67.9413 28.7053 67.2899 29.448 66.2997 29.448Z" fill="white"/>
<path d="M73.8332 31.0763C74.7322 31.0763 75.4097 30.6203 75.7094 30.2034V30.933H77.4943V21.1611H75.7094V25.1481C75.4097 24.7311 74.7322 24.2751 73.8332 24.2751C72.1003 24.2751 70.7712 25.8386 70.7712 27.6757C70.7712 29.5128 72.1003 31.0763 73.8332 31.0763ZM74.211 29.4477C73.2208 29.4477 72.5693 28.705 72.5693 27.6757C72.5693 26.6464 73.2208 25.9037 74.211 25.9037C75.2012 25.9037 75.8527 26.6464 75.8527 27.6757C75.8527 28.705 75.2012 29.4477 74.211 29.4477Z" fill="white"/>
<path d="M79.9853 23.3511C80.6237 23.3511 81.1318 22.843 81.1318 22.2176C81.1318 21.5921 80.6237 21.084 79.9853 21.084C79.3729 21.084 78.8518 21.5921 78.8518 22.2176C78.8518 22.843 79.3729 23.3511 79.9853 23.3511ZM79.0994 30.9341H80.8843V24.4195H79.0994V30.9341Z" fill="white"/>
<path d="M82.4683 30.9333H84.2532V27.7541C84.2532 26.5033 84.8656 25.904 85.6994 25.904C86.4421 25.904 86.846 26.4773 86.846 27.4154V30.9333H88.6311V27.1157C88.6311 25.4219 87.693 24.2754 86.1164 24.2754C85.2695 24.2754 84.605 24.6401 84.2532 25.1614V24.4187H82.4683V30.9333Z" fill="white"/>
<path d="M93.1733 29.2394C92.2743 29.2394 91.5186 28.5619 91.5186 27.5718C91.5186 26.5684 92.2743 25.904 93.1733 25.904C94.0723 25.904 94.828 26.5684 94.828 27.5718C94.828 28.5619 94.0723 29.2394 93.1733 29.2394ZM92.9648 33.7866C94.9583 33.7866 96.4697 32.7704 96.4697 30.4251V24.4187H94.6847V25.1483C94.3329 24.6401 93.6294 24.2754 92.7954 24.2754C91.0887 24.2754 89.7206 25.7346 89.7206 27.5718C89.7206 29.3958 91.0887 30.8551 92.7954 30.8551C93.6294 30.8551 94.3329 30.4772 94.6847 29.9951V30.4382C94.6847 31.4805 93.9942 32.2231 92.9388 32.2231C92.2092 32.2231 91.4795 31.9756 90.9062 31.4153L89.929 32.7443C90.6717 33.4609 91.8313 33.7866 92.9648 33.7866Z" fill="white"/>
<path d="M100.244 30.9343H101.925L105.755 21.6836H103.671L101.091 28.107L98.4719 21.6836H96.4263L100.244 30.9343Z" fill="white"/>
<path d="M107.393 23.3511C108.032 23.3511 108.539 22.843 108.539 22.2176C108.539 21.5921 108.032 21.084 107.393 21.084C106.781 21.084 106.259 21.5921 106.259 22.2176C106.259 22.843 106.781 23.3511 107.393 23.3511ZM106.507 30.9341H108.292V24.4195H106.507V30.9341Z" fill="white"/>
<path d="M112.911 31.0766C114.28 31.0766 115.321 30.5033 115.934 29.6173L114.605 28.6271C114.306 29.0831 113.746 29.448 112.924 29.448C112.064 29.448 111.296 28.9659 111.192 28.0929H116.064C116.104 27.8193 116.091 27.6369 116.091 27.4805C116.091 25.3568 114.593 24.2754 112.886 24.2754C110.905 24.2754 109.459 25.7476 109.459 27.6759C109.459 29.7345 110.97 31.0766 112.911 31.0766ZM111.257 26.8811C111.426 26.0864 112.169 25.7476 112.833 25.7476C113.497 25.7476 114.15 26.0994 114.306 26.8811H111.257Z" fill="white"/>
<path d="M122.778 30.9336H124.551L126.7 24.4189H124.785L123.56 28.5883L122.231 24.4189H120.863L119.547 28.5883L118.31 24.4189H116.407L118.57 30.9336H120.341L121.554 27.2332L122.778 30.9336Z" fill="white"/>
<path d="M53.547 17.0838H54.5406V12.0053H56.2986V11.0541H51.7975V12.0053H53.547V17.0838ZM56.8539 17.0838H57.8475V14.4341H58.2976L60.5057 17.0838H61.7287L59.4865 14.3747C60.3528 14.1708 60.8539 13.6188 60.8539 12.7696C60.8539 11.7759 60.149 11.0541 59.028 11.0541H56.8539V17.0838ZM57.8475 13.5679V11.9712H58.909C59.4951 11.9712 59.8602 12.2515 59.8602 12.7696C59.8602 13.2877 59.4951 13.5679 58.909 13.5679H57.8475ZM61.283 17.0838H62.3106L62.9901 15.5041H65.6907L66.3786 17.0838H67.4147L64.7819 11.0541H63.9157L61.283 17.0838ZM63.3722 14.621L64.3404 12.3874L65.3085 14.621H63.3722ZM67.8517 17.0838H69.7032C71.4951 17.0838 72.8624 15.7759 72.8624 14.0689C72.8624 12.362 71.4951 11.0541 69.7032 11.0541H67.8517V17.0838ZM68.8454 16.1581V11.9798H69.7032C70.994 11.9798 71.8518 12.8885 71.8518 14.0689C71.8518 15.2494 70.994 16.1581 69.7032 16.1581H68.8454ZM73.6161 17.0838H77.2425V16.1326H74.6097V14.5021H76.7329V13.5509H74.6097V12.0053H77.2425V11.0541H73.6161V17.0838ZM85.5557 14.0689C85.5557 12.3279 84.1629 10.9521 82.4389 10.9521C80.7064 10.9521 79.3221 12.3279 79.3221 14.0689C79.3221 15.8099 80.7064 17.1857 82.4389 17.1857C84.1629 17.1857 85.5557 15.8099 85.5557 14.0689ZM80.3243 14.0689C80.3243 12.8715 81.2414 11.9118 82.4389 11.9118C83.6278 11.9118 84.5451 12.8715 84.5451 14.0689C84.5451 15.2664 83.6278 16.2261 82.4389 16.2261C81.2414 16.2261 80.3243 15.2664 80.3243 14.0689ZM91.5632 17.0838V11.0541H90.5611V15.3768L87.1726 11.0541H86.3063V17.0838H87.3V12.7441L90.6969 17.0838H91.5632Z" fill="white"/>
</g>
</g>
<defs>
<clipPath id="clip0_986_25973">
<rect width="142" height="42" fill="white" transform="translate(0 0.167969)"/>
</clipPath>
</defs>
</svg>
