<svg width="68" height="65" viewBox="0 0 68 65" fill="none" xmlns="http://www.w3.org/2000/svg">
<rect x="0.340088" y="5.12256" width="47.2099" height="50.2012" rx="4.44826" fill="url(#paint0_linear_366_30689)"/>
<rect x="40.366" y="11.2703" width="4.10521" height="11.2697" rx="2.0526" transform="rotate(-180 40.366 11.2703)" fill="url(#paint1_linear_366_30689)"/>
<rect x="25.9976" y="11.2698" width="4.10521" height="11.2697" rx="2.0526" transform="rotate(-180 25.9976 11.2698)" fill="url(#paint2_linear_366_30689)"/>
<rect x="11.6294" y="11.2703" width="4.10521" height="11.2697" rx="2.0526" transform="rotate(-180 11.6294 11.2703)" fill="url(#paint3_linear_366_30689)"/>
<rect opacity="0.5" x="6.49805" y="17.417" width="8.21042" height="7.1716" rx="2.22413" fill="#F4F5F6"/>
<rect opacity="0.5" x="17.7874" y="17.417" width="8.21042" height="7.1716" rx="2.22413" fill="#F4F5F6"/>
<rect opacity="0.5" x="29.0767" y="17.417" width="8.21042" height="7.1716" rx="2.22413" fill="#F4F5F6"/>
<rect opacity="0.5" x="6.49805" y="28.6865" width="8.21042" height="7.1716" rx="2.22413" fill="#F4F5F6"/>
<rect opacity="0.5" x="17.7874" y="28.6865" width="8.21042" height="7.1716" rx="2.22413" fill="#F4F5F6"/>
<rect x="29.9163" y="33.3806" width="9.55393" height="8.34512" rx="2.58807" fill="#F4F4F5"/>
<rect opacity="0.5" x="6.49805" y="39.9563" width="8.21042" height="7.1716" rx="2.22413" fill="#F4F5F6"/>
<rect opacity="0.5" x="17.7874" y="39.9563" width="8.21042" height="7.1716" rx="2.22413" fill="#F4F5F6"/>
<rect x="29.9163" y="46.4946" width="9.55393" height="8.34512" rx="2.58807" fill="#F4F4F5"/>
<ellipse cx="46.6357" cy="43.1736" rx="20.8628" ry="20.8264" fill="url(#paint4_linear_366_30689)" stroke="#AC6CDA" stroke-width="0.397432"/>
<path d="M61.1759 39.3107C60.4007 38.0556 59.3051 37.0296 58.0019 36.3383C56.6986 35.647 55.2348 35.3153 53.7608 35.3775C52.6479 35.4458 51.5623 35.7506 50.5765 36.2717C49.796 36.6842 49.0924 37.2247 48.494 37.8692C48.2092 38.176 48.2107 38.6226 48.4065 38.9926L49.679 41.3842C49.7771 41.5685 50.0414 41.568 50.1388 41.3833C50.4887 40.6606 51.0204 40.0413 51.6817 39.5859C52.3431 39.1305 53.1114 38.8548 53.9113 38.7857C54.5651 38.7612 55.2172 38.8688 55.8284 39.102C56.4397 39.3353 56.9976 39.6895 57.4689 40.1434C57.9401 40.5973 58.3149 41.1415 58.571 41.7436C58.827 42.3457 58.959 42.9933 58.959 43.6475C58.959 44.3018 58.827 44.9493 58.571 45.5514C58.3149 46.1535 57.9401 46.6978 57.4689 47.1517C56.9976 47.6056 56.4397 47.9597 55.8284 48.193C55.2172 48.4263 54.5651 48.5339 53.9113 48.5094C53.1117 48.4405 52.3438 48.165 51.6827 47.7099C51.0217 47.2548 50.4902 46.6358 50.1405 45.9134L48.9366 43.6492L46.8965 39.7844C46.267 38.5339 45.3223 37.4691 44.1558 36.6951C42.9892 35.9211 41.641 35.4646 40.2441 35.3706C39.1287 35.3253 38.0155 35.5058 36.9716 35.9014C35.9276 36.297 34.9744 36.8995 34.1691 37.6727C33.3638 38.4459 32.7231 39.3739 32.2854 40.4009C31.8477 41.4279 31.6221 42.5328 31.6221 43.6492C31.6221 44.7656 31.8477 45.8705 32.2854 46.8975C32.7231 47.9246 33.3638 48.8526 34.1691 49.6258C34.9744 50.399 35.9276 51.0015 36.9716 51.3971C38.0155 51.7927 39.1287 51.9732 40.2441 51.9279C41.3571 51.8595 42.4427 51.5547 43.4285 51.0336C44.2089 50.6211 44.9126 50.0806 45.511 49.4362C45.7958 49.1294 45.7942 48.6828 45.5985 48.3127L44.3256 45.9145C44.2277 45.7302 43.9635 45.7306 43.8662 45.9151C43.5162 46.6378 42.9846 47.2572 42.3232 47.7126C41.6619 48.168 40.8936 48.4437 40.0937 48.5128C39.2215 48.5494 38.3556 48.3515 37.5859 47.9397C36.8163 47.528 36.1711 46.9174 35.7175 46.1716C35.254 45.4132 35.0088 44.5415 35.0088 43.6527C35.0088 42.7638 35.254 41.8921 35.7175 41.1337C36.1538 40.4169 36.767 39.8243 37.4983 39.4128C38.2296 39.0013 39.0545 38.7848 39.8936 38.784H40.1005C40.9001 38.8529 41.668 39.1283 42.3291 39.5834C42.9901 40.0385 43.5216 40.6576 43.8713 41.3799L45.0684 43.6492L47.1085 47.5141C47.738 48.7646 48.6826 49.8293 49.8492 50.6033C51.0158 51.3774 52.364 51.8339 53.7608 51.9279H54.1182C55.5906 51.9264 57.036 51.5326 58.3057 50.7871C59.5755 50.0417 60.6236 48.9713 61.3424 47.6863C62.0612 46.4013 62.4247 44.948 62.3954 43.4759C62.3661 42.0038 61.9452 40.5661 61.1759 39.3107Z" fill="#AC6CDA"/>
<defs>
<linearGradient id="paint0_linear_366_30689" x1="-10.4361" y1="56.8605" x2="31.5825" y2="21.955" gradientUnits="userSpaceOnUse">
<stop stop-color="#F5EAF9"/>
<stop offset="1" stop-color="#AC6CDA"/>
</linearGradient>
<linearGradient id="paint1_linear_366_30689" x1="42.4186" y1="11.2703" x2="39.3501" y2="30.7377" gradientUnits="userSpaceOnUse">
<stop stop-color="#F5EAF9"/>
<stop offset="0.778846" stop-color="#AC6CDA"/>
</linearGradient>
<linearGradient id="paint2_linear_366_30689" x1="28.0502" y1="11.2698" x2="24.9817" y2="30.7372" gradientUnits="userSpaceOnUse">
<stop stop-color="#F5EAF9"/>
<stop offset="0.778846" stop-color="#AC6CDA"/>
</linearGradient>
<linearGradient id="paint3_linear_366_30689" x1="13.682" y1="11.2703" x2="10.6136" y2="30.7377" gradientUnits="userSpaceOnUse">
<stop stop-color="#F5EAF9"/>
<stop offset="0.778846" stop-color="#AC6CDA"/>
</linearGradient>
<linearGradient id="paint4_linear_366_30689" x1="26.4534" y1="43.1736" x2="66.8933" y2="43.1736" gradientUnits="userSpaceOnUse">
<stop stop-color="#F6F6F6"/>
<stop offset="1" stop-color="white"/>
</linearGradient>
</defs>
</svg>
