<svg width="25" height="24" viewBox="0 0 25 24" fill="none" xmlns="http://www.w3.org/2000/svg">
<path d="M3.60591 0.362065C5.25003 -0.222442 7.1564 0.143278 8.47236 1.45924C9.78869 2.77557 10.1543 4.68265 9.56904 6.32709L24.0287 20.7869L21.2003 23.6153L6.73915 9.15608C5.09503 9.74062 3.18865 9.37489 1.87269 8.0589C0.556361 6.74257 0.190801 4.83549 0.776014 3.19105L3.75832 6.17329C4.53936 6.95433 5.80569 6.95433 6.58675 6.17329C7.36779 5.39224 7.36779 4.1259 6.58675 3.34486L3.60591 0.362065ZM17.4291 2.87345L21.6717 0.516438L23.5573 2.40205L21.2003 6.64469L18.8433 7.11609L16.0148 9.94449L14.1292 8.0589L16.9576 5.23048L17.4291 2.87345ZM8.00096 13.2444L10.8293 16.0728L4.22972 22.6725C3.44867 23.4536 2.18235 23.4536 1.40129 22.6725C0.666187 21.9373 0.622948 20.7724 1.27157 19.9866L1.40129 19.844L8.00096 13.2444Z" fill="#131319"/>
</svg>
