<svg width="26" height="28" viewBox="0 0 26 28" fill="none" xmlns="http://www.w3.org/2000/svg">
<path d="M11.1726 0.666626L20.9036 3.70757C21.4602 3.88152 21.8392 4.39704 21.8392 4.98021V7.33329H24.5059C25.2423 7.33329 25.8392 7.93025 25.8392 8.66663V11.3333H8.50586V8.66663C8.50586 7.93025 9.10282 7.33329 9.83922 7.33329H19.1726V5.95996L11.1726 3.45863L3.17253 5.95996V15.8325C3.17253 17.4924 3.94477 19.0512 5.25041 20.057L5.50141 20.239L11.1726 24.1053L16.2152 20.6666H9.83922C9.10282 20.6666 8.50586 20.0697 8.50586 19.3333V14H25.8392V19.3333C25.8392 20.0697 25.2423 20.6666 24.5059 20.6666L20.2124 20.6681C19.697 21.3477 19.0695 21.949 18.3459 22.4424L11.1726 27.3333L3.99917 22.4424C1.81353 20.9521 0.505859 18.4778 0.505859 15.8325V4.98021C0.505859 4.39704 0.884859 3.88152 1.4415 3.70757L11.1726 0.666626Z" fill="#131319"/>
</svg>
