<svg width="25" height="24" viewBox="0 0 25 24" fill="none" xmlns="http://www.w3.org/2000/svg">
<path d="M0.5 2.66012C0.5 1.19097 1.69016 0 3.16012 0H21.8399C23.3091 0 24.5 1.19016 24.5 2.66012V21.3399C24.5 22.8091 23.3099 24 21.8399 24H3.16012C1.69097 24 0.5 22.8099 0.5 21.3399V2.66012ZM4.97583 20H20.2967C18.61 17.582 15.8079 16 12.6363 16C9.46459 16 6.66243 17.582 4.97583 20ZM12.5 13.3333C15.0773 13.3333 17.1667 11.244 17.1667 8.66667C17.1667 6.08933 15.0773 4 12.5 4C9.92267 4 7.83333 6.08933 7.83333 8.66667C7.83333 11.244 9.92267 13.3333 12.5 13.3333Z" fill="#131319"/>
</svg>
