<svg width="32" height="32" viewBox="0 0 32 32" fill="none" xmlns="http://www.w3.org/2000/svg">
<path d="M12.0013 1.33301V3.99967H20.0013V1.33301H22.668V3.99967H28.0013C28.7377 3.99967 29.3346 4.59663 29.3346 5.33301V26.6663C29.3346 27.4027 28.7377 27.9997 28.0013 27.9997H4.0013C3.26493 27.9997 2.66797 27.4027 2.66797 26.6663V5.33301C2.66797 4.59663 3.26493 3.99967 4.0013 3.99967H9.33464V1.33301H12.0013ZM26.668 14.6663H5.33464V25.333H26.668V14.6663ZM10.668 18.6663V21.333H8.0013V18.6663H10.668ZM24.0013 18.6663V21.333H13.3346V18.6663H24.0013ZM9.33464 6.66634H5.33464V11.9997H26.668V6.66634H22.668V9.33301H20.0013V6.66634H12.0013V9.33301H9.33464V6.66634Z" fill="#182BFF"/>
</svg>
