<svg width="32" height="32" viewBox="0 0 32 32" fill="none" xmlns="http://www.w3.org/2000/svg">
<path d="M5.33854 6.67057V25.3372H26.6719V6.67057H5.33854ZM4.00521 4.00391H28.0052C28.7416 4.00391 29.3386 4.60085 29.3386 5.33724V26.6705C29.3386 27.4069 28.7416 28.0039 28.0052 28.0039H4.00521C3.26883 28.0039 2.67188 27.4069 2.67188 26.6705V5.33724C2.67188 4.60085 3.26883 4.00391 4.00521 4.00391ZM19.7291 13.0611L17.3386 10.6706H24.0052V17.3372L21.6147 14.9467L16.4627 20.0987L13.6343 17.2703L9.86307 21.0415L7.97746 19.1559L13.6343 13.4991L16.4627 16.3275L19.7291 13.0611Z" fill="#182BFF"/>
</svg>
