<svg width="32" height="32" viewBox="0 0 32 32" fill="none" xmlns="http://www.w3.org/2000/svg">
<path d="M13.2981 24.0003H14.6673V17.3337H17.334V24.0003H18.7032C18.8792 22.3982 19.6968 21.0757 21.0241 19.6305C21.1736 19.4678 22.1324 18.4755 22.2461 18.3338C23.3764 16.9245 24.0007 15.1803 24.0007 13.3337C24.0007 8.91538 20.4189 5.33366 16.0007 5.33366C11.5824 5.33366 8.00065 8.91538 8.00065 13.3337C8.00065 15.1794 8.6243 16.9226 9.75348 18.3315C9.86737 18.4737 10.8284 19.4686 10.976 19.6294C12.3042 21.0755 13.122 22.3982 13.2981 24.0003ZM13.334 26.667V28.0003H18.6673V26.667H13.334ZM7.67258 19.9993C6.20925 18.1733 5.33398 15.8557 5.33398 13.3337C5.33398 7.44262 10.1096 2.66699 16.0007 2.66699C21.8917 2.66699 26.6673 7.44262 26.6673 13.3337C26.6673 15.857 25.7911 18.1757 24.3264 20.0022C23.4993 21.0334 21.334 22.667 21.334 24.667V28.0003C21.334 29.4731 20.1401 30.667 18.6673 30.667H13.334C11.8612 30.667 10.6673 29.4731 10.6673 28.0003V24.667C10.6673 22.667 8.50009 21.0318 7.67258 19.9993Z" fill="#182BFF"/>
</svg>
