<svg width="32" height="32" viewBox="0 0 32 32" fill="none" xmlns="http://www.w3.org/2000/svg">
<path d="M5.33333 2.66699H26.6667C27.4031 2.66699 28 3.26395 28 4.00033V28.0003C28 28.7367 27.4031 29.3337 26.6667 29.3337H5.33333C4.59696 29.3337 4 28.7367 4 28.0003V4.00033C4 3.26395 4.59696 2.66699 5.33333 2.66699ZM6.66667 5.33366V26.667H25.3333V5.33366H6.66667ZM9.33333 8.00033H22.6667V13.3337H9.33333V8.00033ZM9.33333 16.0003H12V18.667H9.33333V16.0003ZM9.33333 21.3337H12V24.0003H9.33333V21.3337ZM14.6667 16.0003H17.3333V18.667H14.6667V16.0003ZM14.6667 21.3337H17.3333V24.0003H14.6667V21.3337ZM20 16.0003H22.6667V24.0003H20V16.0003Z" fill="#182BFF"/>
</svg>
