<svg width="32" height="32" viewBox="0 0 32 32" fill="none" xmlns="http://www.w3.org/2000/svg">
<path d="M18.6719 2.6709C24.563 2.6709 29.3386 7.44653 29.3386 13.3375C29.3386 17.6637 26.7631 21.3883 23.0618 23.0619C21.3883 26.7629 17.664 29.3375 13.3386 29.3375C7.4475 29.3375 2.67188 24.5619 2.67188 18.6709C2.67188 14.3454 5.24657 10.6212 8.94699 8.94731C10.6211 5.24633 14.3458 2.6709 18.6719 2.6709ZM13.3386 10.6709C8.92026 10.6709 5.33854 14.2526 5.33854 18.6709C5.33854 23.0891 8.92026 26.6709 13.3386 26.6709C17.7568 26.6709 21.3386 23.0891 21.3386 18.6709C21.3386 14.2526 17.7568 10.6709 13.3386 10.6709ZM14.6719 12.0042V13.3375H17.3386V16.0042H12.0052C11.637 16.0042 11.3385 16.3027 11.3385 16.6709C11.3385 16.9982 11.5744 17.2703 11.8854 17.3269L12.0052 17.3375H14.6719C16.5128 17.3375 18.0052 18.8299 18.0052 20.6709C18.0052 22.5118 16.5128 24.0042 14.6719 24.0042V25.3375H12.0052V24.0042H9.33854V21.3375H14.6719C15.04 21.3375 15.3386 21.0391 15.3386 20.6709C15.3386 20.3437 15.1027 20.0714 14.7918 20.015L14.6719 20.0042H12.0052C10.1643 20.0042 8.67187 18.5118 8.67187 16.6709C8.67187 14.8299 10.1643 13.3375 12.0052 13.3375V12.0042H14.6719ZM18.6719 5.33757C16.2939 5.33757 14.1582 6.37511 12.6929 8.02222C12.9071 8.01067 13.1221 8.00423 13.3386 8.00423C19.2296 8.00423 24.0052 12.7799 24.0052 18.6709C24.0052 18.8878 23.9987 19.1033 23.986 19.3169C25.634 17.8519 26.6719 15.7159 26.6719 13.3375C26.6719 8.91929 23.0902 5.33757 18.6719 5.33757Z" fill="#182BFF"/>
</svg>
