<svg width="32" height="32" viewBox="0 0 32 32" fill="none" xmlns="http://www.w3.org/2000/svg">
<path d="M14.6735 2.66797L24.4046 5.70892C24.9611 5.88286 25.3402 6.39838 25.3402 6.98156V9.33464H28.0069C28.7433 9.33464 29.3402 9.93159 29.3402 10.668V13.3346H12.0068V10.668C12.0068 9.93159 12.6038 9.33464 13.3402 9.33464H22.6735V7.9613L14.6735 5.45997L6.6735 7.9613V17.8338C6.6735 19.4937 7.44574 21.0525 8.75138 22.0584L9.00238 22.2404L14.6735 26.1066L19.7162 22.668H13.3402C12.6038 22.668 12.0068 22.071 12.0068 21.3346V16.0013H29.3402V21.3346C29.3402 22.071 28.7433 22.668 28.0069 22.668L23.7134 22.6694C23.1979 23.349 22.5705 23.9504 21.8469 24.4437L14.6735 29.3346L7.50014 24.4437C5.3145 22.9534 4.00684 20.4792 4.00684 17.8338V6.98156C4.00684 6.39838 4.38584 5.88286 4.94248 5.70892L14.6735 2.66797Z" fill="#F5FF0A"/>
</svg>
