<svg width="32" height="32" viewBox="0 0 32 32" fill="none" xmlns="http://www.w3.org/2000/svg">
<path d="M23.7886 20.8774L24.0233 21.1134L24.26 20.8774C25.4316 19.7058 27.331 19.7058 28.5026 20.8774C29.6742 22.049 29.6742 23.9484 28.5026 25.12L24.0244 29.5983L19.546 25.12C18.3744 23.9484 18.3744 22.049 19.546 20.8774C20.7176 19.7058 22.6171 19.7058 23.7886 20.8774ZM16.0007 18.6654V21.332C11.5824 21.332 8.00065 24.9138 8.00065 29.332H5.33398C5.33398 23.5522 9.9311 18.846 15.6684 18.6704L16.0007 18.6654ZM16.0007 1.33203C20.4207 1.33203 24.0007 4.91203 24.0007 9.33203C24.0007 13.6516 20.5816 17.1688 16.3007 17.3266L16.0007 17.332C11.5807 17.332 8.00065 13.752 8.00065 9.33203C8.00065 5.01248 11.4198 1.49519 15.7007 1.33755L16.0007 1.33203ZM16.0007 3.9987C13.0534 3.9987 10.6673 6.38479 10.6673 9.33203C10.6673 12.2793 13.0534 14.6654 16.0007 14.6654C18.9479 14.6654 21.334 12.2793 21.334 9.33203C21.334 6.38479 18.9479 3.9987 16.0007 3.9987Z" fill="#182BFF"/>
</svg>
