<svg width="32" height="32" viewBox="0 0 32 32" fill="none" xmlns="http://www.w3.org/2000/svg">
<path d="M18.6739 2.67188C24.5649 2.67188 29.3405 7.4475 29.3405 13.3385C29.3405 17.6646 26.7651 21.3893 23.0637 23.0629C21.3903 26.7638 17.666 29.3385 13.3405 29.3385C7.44945 29.3385 2.67383 24.5629 2.67383 18.6718C2.67383 14.3464 5.24852 10.6222 8.94895 8.94829C10.6231 5.2473 14.3477 2.67188 18.6739 2.67188ZM13.3405 10.6719C8.92221 10.6719 5.34049 14.2536 5.34049 18.6718C5.34049 23.0901 8.92221 26.6718 13.3405 26.6718C17.7588 26.6718 21.3405 23.0901 21.3405 18.6718C21.3405 14.2536 17.7588 10.6719 13.3405 10.6719ZM14.6739 12.0052V13.3385H17.3405V16.0052H12.0072C11.639 16.0052 11.3405 16.3037 11.3405 16.6718C11.3405 16.9992 11.5763 17.2713 11.8873 17.3278L12.0072 17.3385H14.6739C16.5148 17.3385 18.0072 18.8309 18.0072 20.6718C18.0072 22.5128 16.5148 24.0052 14.6739 24.0052V25.3385H12.0072V24.0052H9.34049V21.3385H14.6739C15.042 21.3385 15.3405 21.0401 15.3405 20.6718C15.3405 20.3446 15.1047 20.0724 14.7937 20.016L14.6739 20.0052H12.0072C10.1662 20.0052 8.67383 18.5128 8.67383 16.6718C8.67383 14.8309 10.1662 13.3385 12.0072 13.3385V12.0052H14.6739ZM18.6739 5.33854C16.2959 5.33854 14.1601 6.37609 12.6948 8.02319C12.9091 8.01165 13.124 8.00521 13.3405 8.00521C19.2316 8.00521 24.0072 12.7808 24.0072 18.6718C24.0072 18.8888 24.0007 19.1042 23.988 19.3178C25.636 17.8529 26.6739 15.7169 26.6739 13.3385C26.6739 8.92026 23.0921 5.33854 18.6739 5.33854Z" fill="#182BFF"/>
</svg>
