<svg width="32" height="32" viewBox="0 0 32 32" fill="none" xmlns="http://www.w3.org/2000/svg">
<path d="M16.0012 21.333C18.9467 21.333 21.3345 18.9451 21.3345 15.9997C21.3345 13.0542 18.9467 10.6663 16.0012 10.6663C13.0556 10.6663 10.6678 13.0542 10.6678 15.9997C10.6678 18.9451 13.0556 21.333 16.0012 21.333ZM28.0072 5.33691H4.00716C3.27079 5.33691 2.67383 5.93386 2.67383 6.67025V25.3369C2.67383 26.0733 3.27079 26.6702 4.00716 26.6702H28.0072C28.7436 26.6702 29.3405 26.0733 29.3405 25.3369V6.67025C29.3405 5.93386 28.7436 5.33691 28.0072 5.33691ZM5.34049 20.8614V11.138C6.84152 10.689 8.02513 9.5049 8.47339 8.00358H23.5289C23.9784 9.50891 25.1671 10.6953 26.6739 11.1415V20.8578C25.1645 21.3047 23.9743 22.4945 23.5265 24.0035H8.47572C8.02924 22.4986 6.84413 21.3111 5.34049 20.8614Z" fill="#182BFF"/>
</svg>
