<svg width="32" height="32" viewBox="0 0 32 32" fill="none" xmlns="http://www.w3.org/2000/svg">
<path d="M5.34001 6.67448V25.3411H26.6734V6.67448H5.34001ZM4.00667 4.00781H28.0067C28.7431 4.00781 29.34 4.60476 29.34 5.34115V26.6744C29.34 27.4108 28.7431 28.0078 28.0067 28.0078H4.00667C3.2703 28.0078 2.67334 27.4108 2.67334 26.6744V5.34115C2.67334 4.60476 3.2703 4.00781 4.00667 4.00781ZM19.7306 13.065L17.34 10.6745H24.0067V17.3411L21.6162 14.9506L16.4642 20.1026L13.6358 17.2742L9.86454 21.0454L7.97893 19.1598L13.6358 13.503L16.4642 16.3314L19.7306 13.065Z" fill="#182BFF"/>
</svg>
