<svg width="32" height="32" viewBox="0 0 32 32" fill="none" xmlns="http://www.w3.org/2000/svg">
<path d="M9.33317 6.66927V2.66927C9.33317 1.9329 9.93013 1.33594 10.6665 1.33594H21.3332C22.0696 1.33594 22.6665 1.9329 22.6665 2.66927V6.66927H27.9998C28.7362 6.66927 29.3332 7.26623 29.3332 8.0026V26.6693C29.3332 27.4057 28.7362 28.0026 27.9998 28.0026H3.99984C3.26346 28.0026 2.6665 27.4057 2.6665 26.6693V8.0026C2.6665 7.26623 3.26346 6.66927 3.99984 6.66927H9.33317ZM5.33317 21.3359V25.3359H26.6665V21.3359H5.33317ZM5.33317 18.6693H26.6665V9.33594H5.33317V18.6693ZM11.9998 4.0026V6.66927H19.9998V4.0026H11.9998ZM14.6665 14.6693H17.3332V17.3359H14.6665V14.6693Z" fill="#182BFF"/>
</svg>
