<svg width="32" height="32" viewBox="0 0 32 32" fill="none" xmlns="http://www.w3.org/2000/svg">
<path d="M26.6667 29.3307H5.33333C4.59696 29.3307 4 28.7338 4 27.9974V3.9974C4 3.26102 4.59696 2.66406 5.33333 2.66406H26.6667C27.4031 2.66406 28 3.26102 28 3.9974V27.9974C28 28.7338 27.4031 29.3307 26.6667 29.3307ZM25.3333 26.6641V5.33073H6.66667V26.6641H25.3333ZM9.33333 7.9974H14.6667V13.3307H9.33333V7.9974ZM9.33333 15.9974H22.6667V18.6641H9.33333V15.9974ZM9.33333 21.3307H22.6667V23.9974H9.33333V21.3307ZM17.3333 9.33073H22.6667V11.9974H17.3333V9.33073Z" fill="#182BFF"/>
</svg>
