<svg width="32" height="32" viewBox="0 0 32 32" fill="none" xmlns="http://www.w3.org/2000/svg">
<path d="M15.9998 5.33073C12.3351 5.33073 9.09994 7.17908 7.17908 9.9974H10.6665V12.6641H2.6665V4.66406H5.33317V7.99654C7.76492 4.75961 11.6367 2.66406 15.9998 2.66406C23.3636 2.66406 29.3332 8.6336 29.3332 15.9974H26.6665C26.6665 10.1064 21.8909 5.33073 15.9998 5.33073ZM5.33317 15.9974C5.33317 21.8885 10.1088 26.6641 15.9998 26.6641C19.6646 26.6641 22.8997 24.8157 24.8206 21.9974H21.3332V19.3307H29.3332V27.3307H26.6665V23.9982C24.2348 27.2351 20.363 29.3307 15.9998 29.3307C8.63604 29.3307 2.6665 23.3611 2.6665 15.9974H5.33317Z" fill="#182BFF"/>
</svg>
