<svg width="26" height="27" viewBox="0 0 26 27" fill="none" xmlns="http://www.w3.org/2000/svg">
<path d="M10.673 0.166626L20.4041 3.20757C20.9606 3.38152 21.3397 3.89704 21.3397 4.48021V6.83329H24.0064C24.7428 6.83329 25.3397 7.43025 25.3397 8.16663V10.8333H8.00635V8.16663C8.00635 7.43025 8.60331 6.83329 9.33971 6.83329H18.673V5.45996L10.673 2.95863L2.67301 5.45996V15.3325C2.67301 16.9924 3.44525 18.5512 4.75089 19.557L5.00189 19.739L10.673 23.6053L15.7157 20.1666H9.33971C8.60331 20.1666 8.00635 19.5697 8.00635 18.8333V13.5H25.3397V18.8333C25.3397 19.5697 24.7428 20.1666 24.0064 20.1666L19.7129 20.1681C19.1974 20.8477 18.57 21.449 17.8464 21.9424L10.673 26.8333L3.49965 21.9424C1.31401 20.4521 0.00634766 17.9778 0.00634766 15.3325V4.48021C0.00634766 3.89704 0.385348 3.38152 0.941988 3.20757L10.673 0.166626Z" fill="#101010"/>
</svg>
