<svg width="21" height="21" viewBox="0 0 21 21" fill="none" xmlns="http://www.w3.org/2000/svg">
<g id="add-circle-line">
<path id="Shape" fill-rule="evenodd" clip-rule="evenodd" d="M10.5 20.168C4.977 20.168 0.5 15.691 0.5 10.168C0.5 4.64497 4.977 0.167969 10.5 0.167969C16.023 0.167969 20.5 4.64497 20.5 10.168C20.5 15.691 16.023 20.168 10.5 20.168ZM9.5 9.16797V5.16797H11.5V9.16797H15.5V11.168H11.5V15.168H9.5V11.168H5.5V9.16797H9.5ZM16.1569 15.8249C14.6566 17.3251 12.6217 18.168 10.5 18.168C8.37827 18.168 6.34344 17.3251 4.84315 15.8249C3.34285 14.3246 2.5 12.2897 2.5 10.168C2.5 8.04624 3.34285 6.01141 4.84315 4.51112C6.34344 3.01082 8.37827 2.16797 10.5 2.16797C12.6217 2.16797 14.6566 3.01082 16.1569 4.51112C17.6571 6.01141 18.5 8.04624 18.5 10.168C18.5 12.2897 17.6571 14.3246 16.1569 15.8249Z" fill="#6A7582"/>
</g>
</svg>
