<svg width="142" height="43" viewBox="0 0 142 43" fill="none" xmlns="http://www.w3.org/2000/svg">
<g clip-path="url(#clip0_986_26005)">
<path d="M136.948 42.242H4.97421C2.23203 42.242 0 40.0037 0 37.2636V5.13902C0 2.39789 2.23203 0.167969 4.97421 0.167969H136.948C139.689 0.167969 142 2.39789 142 5.13902V37.2636C142 40.0037 139.689 42.242 136.948 42.242Z" fill="black"/>
<path d="M140.982 37.2641C140.982 39.4898 139.179 41.2927 136.949 41.2927H4.97397C2.7451 41.2927 0.935913 39.4898 0.935913 37.2641V5.13737C0.935913 2.9127 2.7451 1.10352 4.97397 1.10352H136.948C139.179 1.10352 140.981 2.9127 140.981 5.13737L140.982 37.2641Z" fill="black"/>
<path d="M31.6902 20.9782C31.6597 17.588 34.466 15.9387 34.5944 15.8619C33.005 13.5447 30.5416 13.2281 29.6759 13.2029C27.6069 12.9851 25.6 14.4409 24.546 14.4409C23.471 14.4409 21.848 13.2239 20.0988 13.2597C17.8478 13.2944 15.742 14.5976 14.5871 16.6214C12.2036 20.7478 13.9812 26.8117 16.2648 30.1471C17.4071 31.7807 18.7419 33.6046 20.489 33.5404C22.1983 33.4699 22.8368 32.4507 24.8995 32.4507C26.9432 32.4507 27.5428 33.5404 29.3246 33.4994C31.159 33.4699 32.314 31.8585 33.4163 30.2103C34.7364 28.338 35.2665 26.4941 35.2875 26.3994C35.2444 26.3847 31.7249 25.0415 31.6902 20.9782Z" fill="white"/>
<path d="M28.3243 11.0081C29.2436 9.85838 29.8726 8.29428 29.698 6.70703C28.3674 6.76593 26.7034 7.6274 25.7452 8.75183C24.8974 9.74268 24.14 11.3667 24.3357 12.894C25.8304 13.0055 27.365 12.1398 28.3243 11.0081Z" fill="white"/>
<path d="M56.4267 33.3066H54.0379L52.7294 29.195H48.1812L46.9348 33.3066H44.6091L49.1153 19.3086H51.8985L56.4267 33.3066ZM52.335 27.4699L51.1516 23.8147C51.0265 23.4413 50.7919 22.562 50.4459 21.1777H50.4038C50.266 21.7731 50.044 22.6524 49.739 23.8147L48.5767 27.4699H52.335Z" fill="white"/>
<path d="M68.015 28.1357C68.015 29.8524 67.5511 31.2093 66.6234 32.2054C65.7924 33.0921 64.7605 33.5349 63.5288 33.5349C62.1993 33.5349 61.2442 33.0574 60.6625 32.1023H60.6204V37.4194H58.3779V26.5359C58.3779 25.4567 58.3495 24.3491 58.2948 23.2131H60.267L60.3922 24.8129H60.4343C61.1821 23.6075 62.3171 23.0059 63.8402 23.0059C65.0309 23.0059 66.0249 23.476 66.8201 24.4174C67.6174 25.3599 68.015 26.599 68.015 28.1357ZM65.7303 28.2178C65.7303 27.2354 65.5095 26.4254 65.0656 25.788C64.5807 25.1232 63.9296 24.7909 63.1133 24.7909C62.5601 24.7909 62.0573 24.976 61.6081 25.341C61.1579 25.7091 60.8634 26.1898 60.7256 26.7852C60.6562 27.0629 60.6215 27.2901 60.6215 27.4689V29.1518C60.6215 29.886 60.8466 30.5056 61.2968 31.0115C61.747 31.5174 62.3318 31.7699 63.0513 31.7699C63.8959 31.7699 64.5533 31.4438 65.0235 30.7938C65.4947 30.1427 65.7303 29.2844 65.7303 28.2178Z" fill="white"/>
<path d="M79.6244 28.1357C79.6244 29.8524 79.1605 31.2093 78.2317 32.2054C77.4018 33.0921 76.37 33.5349 75.1382 33.5349C73.8087 33.5349 72.8536 33.0574 72.273 32.1023H72.2309V37.4194H69.9884V26.5359C69.9884 25.4567 69.96 24.3491 69.9053 23.2131H71.8775L72.0027 24.8129H72.0447C72.7916 23.6075 73.9265 23.0059 75.4506 23.0059C76.6403 23.0059 77.6343 23.476 78.4316 24.4174C79.2257 25.3599 79.6244 26.599 79.6244 28.1357ZM77.3398 28.2178C77.3398 27.2354 77.1178 26.4254 76.6739 25.788C76.189 25.1232 75.54 24.7909 74.7228 24.7909C74.1684 24.7909 73.6667 24.976 73.2165 25.341C72.7663 25.7091 72.4728 26.1898 72.335 26.7852C72.2667 27.0629 72.2309 27.2901 72.2309 27.4689V29.1518C72.2309 29.886 72.456 30.5056 72.9041 31.0115C73.3543 31.5164 73.9391 31.7699 74.6607 31.7699C75.5053 31.7699 76.1627 31.4438 76.6329 30.7938C77.1042 30.1427 77.3398 29.2844 77.3398 28.2178Z" fill="white"/>
<path d="M92.6041 29.3812C92.6041 30.5719 92.1908 31.5406 91.3608 32.2885C90.4489 33.1058 89.1793 33.5139 87.5479 33.5139C86.0416 33.5139 84.8341 33.2236 83.92 32.6419L84.4397 30.7728C85.4242 31.3681 86.5044 31.6668 87.6815 31.6668C88.5261 31.6668 89.1835 31.4754 89.6558 31.0946C90.126 30.7139 90.3605 30.2027 90.3605 29.5652C90.3605 28.9972 90.167 28.5186 89.7789 28.1305C89.3928 27.7424 88.748 27.3816 87.8477 27.0482C85.3968 26.1341 84.1725 24.7951 84.1725 23.0343C84.1725 21.8836 84.6016 20.94 85.461 20.2059C86.3172 19.4706 87.4595 19.1035 88.8879 19.1035C90.1617 19.1035 91.2199 19.3255 92.0645 19.7683L91.5039 21.5964C90.715 21.1672 89.823 20.9527 88.8248 20.9527C88.0359 20.9527 87.4196 21.1473 86.9778 21.5343C86.6044 21.8804 86.4171 22.3022 86.4171 22.8018C86.4171 23.3551 86.6307 23.8127 87.0598 24.1724C87.4332 24.5048 88.1117 24.8645 89.0962 25.2526C90.3006 25.7375 91.1852 26.3045 91.7542 26.9545C92.3212 27.6025 92.6041 28.4135 92.6041 29.3812Z" fill="white"/>
<path d="M100.018 24.8952H97.5466V29.7958C97.5466 31.0422 97.9821 31.6649 98.8551 31.6649C99.2559 31.6649 99.5883 31.6302 99.8512 31.5608L99.9133 33.2637C99.4715 33.4289 98.8898 33.512 98.1693 33.512C97.2837 33.512 96.5915 33.2417 96.0919 32.7021C95.5944 32.1614 95.344 31.2547 95.344 29.9809V24.8931H93.8715V23.2101H95.344V21.362L97.5466 20.6973V23.2101H100.018V24.8952Z" fill="white"/>
<path d="M111.172 28.1767C111.172 29.7282 110.728 31.002 109.842 31.9981C108.913 33.0236 107.68 33.5348 106.144 33.5348C104.663 33.5348 103.484 33.0436 102.604 32.0612C101.725 31.0787 101.285 29.8386 101.285 28.3439C101.285 26.7798 101.737 25.4987 102.645 24.5026C103.551 23.5054 104.773 23.0068 106.31 23.0068C107.791 23.0068 108.983 23.4981 109.882 24.4815C110.742 25.4356 111.172 26.6673 111.172 28.1767ZM108.845 28.2493C108.845 27.3184 108.646 26.52 108.243 25.8542C107.773 25.0485 107.101 24.6467 106.23 24.6467C105.328 24.6467 104.644 25.0495 104.174 25.8542C103.771 26.5211 103.572 27.3321 103.572 28.2913C103.572 29.2222 103.771 30.0206 104.174 30.6854C104.658 31.4911 105.336 31.8929 106.21 31.8929C107.066 31.8929 107.738 31.4827 108.223 30.6643C108.637 29.9859 108.845 29.1791 108.845 28.2493Z" fill="white"/>
<path d="M118.461 25.1853C118.239 25.1443 118.002 25.1232 117.754 25.1232C116.965 25.1232 116.355 25.4209 115.926 26.0173C115.552 26.5432 115.365 27.208 115.365 28.0106V33.3066H113.124L113.145 26.3918C113.145 25.2284 113.116 24.1692 113.06 23.2141H115.014L115.096 25.1453H115.158C115.394 24.4816 115.768 23.9473 116.279 23.5465C116.779 23.1857 117.318 23.0059 117.9 23.0059C118.107 23.0059 118.294 23.0206 118.461 23.0469V25.1853Z" fill="white"/>
<path d="M128.49 27.7827C128.49 28.1845 128.464 28.5232 128.408 28.7998H121.68C121.707 29.797 122.032 30.5596 122.656 31.0855C123.223 31.5557 123.956 31.7913 124.857 31.7913C125.853 31.7913 126.762 31.6325 127.579 31.3138L127.93 32.8705C126.975 33.287 125.848 33.4943 124.547 33.4943C122.981 33.4943 121.753 33.0335 120.859 32.1132C119.967 31.1928 119.52 29.9569 119.52 28.4064C119.52 26.8844 119.935 25.6169 120.767 24.6061C121.638 23.5269 122.815 22.9873 124.296 22.9873C125.751 22.9873 126.852 23.5269 127.6 24.6061C128.192 25.4634 128.49 26.5236 128.49 27.7827ZM126.352 27.201C126.366 26.5363 126.22 25.9619 125.916 25.477C125.528 24.8533 124.932 24.5419 124.129 24.5419C123.396 24.5419 122.799 24.8459 122.344 25.456C121.971 25.9409 121.749 26.5226 121.68 27.2L126.352 27.201Z" fill="white"/>
<path d="M51.5934 10.6952C51.5934 11.9332 51.2221 12.8651 50.4806 13.491C49.7937 14.0685 48.8176 14.3577 47.5533 14.3577C46.9264 14.3577 46.3899 14.3304 45.9408 14.2757V7.51122C46.5267 7.41655 47.1578 7.36816 47.8394 7.36816C49.0438 7.36816 49.9515 7.63007 50.5637 8.1539C51.2495 8.74609 51.5934 9.59283 51.5934 10.6952ZM50.4312 10.7257C50.4312 9.92311 50.2187 9.30778 49.7937 8.87862C49.3688 8.45052 48.7482 8.23594 47.9309 8.23594C47.5838 8.23594 47.2882 8.25908 47.0431 8.30747V13.45C47.1788 13.471 47.4271 13.4805 47.7878 13.4805C48.6314 13.4805 49.2825 13.2459 49.7411 12.7768C50.1997 12.3077 50.4312 11.624 50.4312 10.7257Z" fill="white"/>
<path d="M57.7561 11.7775C57.7561 12.54 57.5383 13.1648 57.1029 13.655C56.6464 14.1588 56.0415 14.4102 55.2863 14.4102C54.5584 14.4102 53.9789 14.1694 53.5465 13.6855C53.1153 13.2027 52.8997 12.5937 52.8997 11.8595C52.8997 11.0916 53.1216 10.4616 53.5676 9.97247C54.0136 9.48336 54.6131 9.23828 55.3684 9.23828C56.0962 9.23828 56.6811 9.47916 57.1239 9.96195C57.5446 10.4311 57.7561 11.0369 57.7561 11.7775ZM56.6127 11.8132C56.6127 11.3557 56.5138 10.9633 56.3171 10.6362C56.0857 10.2407 55.7565 10.0429 55.3284 10.0429C54.8856 10.0429 54.549 10.2407 54.3176 10.6362C54.1198 10.9633 54.022 11.362 54.022 11.8332C54.022 12.2908 54.1209 12.6831 54.3176 13.0102C54.5563 13.4057 54.8887 13.6035 55.3179 13.6035C55.7386 13.6035 56.0689 13.4026 56.3066 12.9997C56.5107 12.6663 56.6127 12.2708 56.6127 11.8132Z" fill="white"/>
<path d="M66.0197 9.33887L64.4682 14.2973H63.4585L62.8158 12.1442C62.6527 11.6067 62.5202 11.0723 62.4171 10.5422H62.3971C62.3014 11.087 62.1689 11.6203 61.9985 12.1442L61.3158 14.2973H60.2945L58.8356 9.33887H59.9684L60.529 11.6961C60.6647 12.2535 60.7762 12.7847 60.8656 13.2875H60.8856C60.9677 12.8731 61.1034 12.3451 61.2948 11.7066L61.9985 9.33992H62.8968L63.571 11.6561C63.734 12.2209 63.8666 12.7647 63.9686 13.2886H63.9991C64.0738 12.7784 64.1863 12.2346 64.3357 11.6561L64.9374 9.33992H66.0197V9.33887Z" fill="white"/>
<path d="M71.7342 14.2979H70.6319V11.4579C70.6319 10.5828 70.2995 10.1452 69.6326 10.1452C69.3055 10.1452 69.0414 10.2651 68.8363 10.506C68.6333 10.7469 68.5302 11.0309 68.5302 11.3559V14.2969H67.4279V10.7563C67.4279 10.3209 67.4142 9.84858 67.3879 9.33738H68.3567L68.4082 10.1126H68.4387C68.5671 9.87172 68.7585 9.67292 69.0099 9.51409C69.3086 9.32897 69.6431 9.23535 70.0092 9.23535C70.472 9.23535 70.8569 9.38471 71.163 9.68449C71.5438 10.0516 71.7342 10.5996 71.7342 11.3275V14.2979Z" fill="white"/>
<path d="M74.774 14.2971H73.6727V7.06348H74.774V14.2971Z" fill="white"/>
<path d="M81.2641 11.7775C81.2641 12.54 81.0464 13.1648 80.6109 13.655C80.1544 14.1588 79.5485 14.4102 78.7944 14.4102C78.0654 14.4102 77.4859 14.1694 77.0546 13.6855C76.6233 13.2027 76.4077 12.5937 76.4077 11.8595C76.4077 11.0916 76.6297 10.4616 77.0756 9.97247C77.5216 9.48336 78.1212 9.23828 78.8754 9.23828C79.6043 9.23828 80.1881 9.47916 80.632 9.96195C81.0527 10.4311 81.2641 11.0369 81.2641 11.7775ZM80.1197 11.8132C80.1197 11.3557 80.0208 10.9633 79.8241 10.6362C79.5938 10.2407 79.2635 10.0429 78.8364 10.0429C78.3926 10.0429 78.056 10.2407 77.8256 10.6362C77.6279 10.9633 77.53 11.362 77.53 11.8332C77.53 12.2908 77.6289 12.6831 77.8256 13.0102C78.0644 13.4057 78.3968 13.6035 78.8259 13.6035C79.2467 13.6035 79.5759 13.4026 79.8136 12.9997C80.0187 12.6663 80.1197 12.2708 80.1197 11.8132Z" fill="white"/>
<path d="M86.5991 14.2977H85.6093L85.5273 13.7265H85.4968C85.1581 14.182 84.6753 14.4102 84.0484 14.4102C83.5803 14.4102 83.2016 14.2598 82.9166 13.9611C82.6578 13.6897 82.5284 13.3521 82.5284 12.9513C82.5284 12.3455 82.7809 11.8837 83.2889 11.5639C83.7959 11.2442 84.5091 11.0874 85.4274 11.0948V11.0022C85.4274 10.349 85.0844 10.023 84.3976 10.023C83.9085 10.023 83.4772 10.146 83.1049 10.3901L82.8808 9.66638C83.3415 9.38133 83.9106 9.23828 84.5817 9.23828C85.8775 9.23828 86.5276 9.92198 86.5276 11.2894V13.1154C86.5276 13.6108 86.5518 14.0053 86.5991 14.2977ZM85.4547 12.5937V11.829C84.2388 11.808 83.6308 12.1414 83.6308 12.8283C83.6308 13.087 83.7002 13.2805 83.8422 13.4099C83.9842 13.5393 84.1651 13.6035 84.3808 13.6035C84.6227 13.6035 84.8488 13.5267 85.055 13.3742C85.2622 13.2206 85.3895 13.026 85.4368 12.7872C85.4484 12.7336 85.4547 12.6684 85.4547 12.5937Z" fill="white"/>
<path d="M92.8626 14.2971H91.8844L91.8328 13.5008H91.8023C91.4899 14.1067 90.9577 14.4096 90.2098 14.4096C89.6124 14.4096 89.1149 14.175 88.7204 13.7059C88.326 13.2368 88.1293 12.6278 88.1293 11.8799C88.1293 11.0773 88.3428 10.4273 88.772 9.93082C89.1874 9.46801 89.6965 9.2366 90.3024 9.2366C90.9682 9.2366 91.4342 9.46065 91.6993 9.90979H91.7203V7.06348H92.8237V12.9612C92.8237 13.444 92.8363 13.8889 92.8626 14.2971ZM91.7203 12.206V11.3792C91.7203 11.2362 91.7098 11.1205 91.6898 11.0321C91.6277 10.767 91.4941 10.5441 91.2911 10.3642C91.086 10.1843 90.8388 10.0939 90.5538 10.0939C90.1425 10.0939 89.8206 10.2569 89.584 10.584C89.3494 10.9112 89.2306 11.3287 89.2306 11.8389C89.2306 12.329 89.3431 12.7266 89.5693 13.0327C89.808 13.3588 90.1299 13.5218 90.5327 13.5218C90.8946 13.5218 91.1838 13.3862 91.4037 13.1137C91.6162 12.8623 91.7203 12.5594 91.7203 12.206Z" fill="white"/>
<path d="M102.291 11.7775C102.291 12.54 102.073 13.1648 101.638 13.655C101.181 14.1588 100.577 14.4102 99.821 14.4102C99.0942 14.4102 98.5146 14.1694 98.0812 13.6855C97.65 13.2027 97.4343 12.5937 97.4343 11.8595C97.4343 11.0916 97.6563 10.4616 98.1023 9.97247C98.5482 9.48336 99.1478 9.23828 99.9041 9.23828C100.631 9.23828 101.217 9.47916 101.659 9.96195C102.079 10.4311 102.291 11.0369 102.291 11.7775ZM101.148 11.8132C101.148 11.3557 101.05 10.9633 100.853 10.6362C100.62 10.2407 100.292 10.0429 99.8631 10.0429C99.4213 10.0429 99.0847 10.2407 98.8522 10.6362C98.6545 10.9633 98.5567 11.362 98.5567 11.8332C98.5567 12.2908 98.6555 12.6831 98.8522 13.0102C99.091 13.4057 99.4234 13.6035 99.8525 13.6035C100.273 13.6035 100.605 13.4026 100.842 12.9997C101.045 12.6663 101.148 12.2708 101.148 11.8132Z" fill="white"/>
<path d="M108.218 14.2979H107.116V11.4579C107.116 10.5828 106.784 10.1452 106.116 10.1452C105.789 10.1452 105.525 10.2651 105.321 10.506C105.117 10.7469 105.015 11.0309 105.015 11.3559V14.2969H103.911V10.7563C103.911 10.3209 103.899 9.84858 103.872 9.33738H104.84L104.892 10.1126H104.922C105.052 9.87172 105.243 9.67292 105.493 9.51409C105.793 9.32897 106.127 9.23535 106.494 9.23535C106.955 9.23535 107.34 9.38471 107.646 9.68449C108.028 10.0516 108.218 10.5996 108.218 11.3275V14.2979Z" fill="white"/>
<path d="M115.636 10.1651H114.423V12.5738C114.423 13.186 114.638 13.4921 115.065 13.4921C115.263 13.4921 115.427 13.4752 115.557 13.4405L115.585 14.2768C115.367 14.3588 115.081 14.3998 114.729 14.3998C114.293 14.3998 113.955 14.2673 113.709 14.0022C113.463 13.7372 113.341 13.2912 113.341 12.6653V10.1651H112.617V9.33937H113.341V8.43057L114.422 8.10449V9.33831H115.635L115.636 10.1651Z" fill="white"/>
<path d="M121.472 14.2971H120.369V11.4781C120.369 10.5893 120.037 10.1444 119.371 10.1444C118.859 10.1444 118.51 10.4021 118.319 10.9175C118.286 11.0258 118.267 11.1583 118.267 11.314V14.296H117.166V7.06348H118.267V10.0518H118.288C118.635 9.50798 119.133 9.2366 119.778 9.2366C120.234 9.2366 120.612 9.38597 120.912 9.68574C121.285 10.0592 121.472 10.6145 121.472 11.3487V14.2971Z" fill="white"/>
<path d="M127.492 11.5826C127.492 11.7804 127.477 11.9466 127.451 12.0823H124.145C124.16 12.5724 124.318 12.9458 124.624 13.2046C124.903 13.436 125.264 13.5517 125.706 13.5517C126.195 13.5517 126.641 13.4739 127.043 13.3171L127.215 14.0829C126.745 14.2869 126.192 14.389 125.551 14.389C124.784 14.389 124.179 14.1628 123.741 13.7105C123.301 13.2582 123.084 12.6513 123.084 11.8898C123.084 11.1419 123.287 10.5192 123.696 10.0227C124.123 9.49261 124.7 9.22754 125.429 9.22754C126.143 9.22754 126.684 9.49261 127.05 10.0227C127.346 10.4435 127.492 10.9641 127.492 11.5826ZM126.44 11.2976C126.449 10.9705 126.376 10.6886 126.227 10.4508C126.035 10.1448 125.744 9.99118 125.349 9.99118C124.99 9.99118 124.696 10.1405 124.472 10.4403C124.289 10.6791 124.181 10.9641 124.145 11.2976H126.44Z" fill="white"/>
</g>
<defs>
<clipPath id="clip0_986_26005">
<rect width="142" height="42.0741" fill="white" transform="translate(0 0.167969)"/>
</clipPath>
</defs>
</svg>
