<svg width="32" height="32" viewBox="0 0 32 32" fill="none" xmlns="http://www.w3.org/2000/svg">
<path d="M18.6668 18.0001V10.6667C18.6668 7.72123 16.279 5.33341 13.3335 5.33341C10.388 5.33341 8.00016 7.72123 8.00016 10.6667V18.0001C8.00016 22.7866 11.8804 26.6667 16.6668 26.6667C21.4534 26.6667 25.3335 22.7866 25.3335 18.0001V5.33341H28.0002V18.0001C28.0002 24.2593 22.926 29.3334 16.6668 29.3334C10.4076 29.3334 5.3335 24.2593 5.3335 18.0001V10.6667C5.3335 6.24847 8.91522 2.66675 13.3335 2.66675C17.7518 2.66675 21.3335 6.24847 21.3335 10.6667V18.0001C21.3335 20.5774 19.2442 22.6667 16.6668 22.6667C14.0895 22.6667 12.0002 20.5774 12.0002 18.0001V10.6667H14.6668V18.0001C14.6668 19.1046 15.5623 20.0001 16.6668 20.0001C17.7714 20.0001 18.6668 19.1046 18.6668 18.0001Z" fill="#131319"/>
</svg>
