<svg width="107" height="71" viewBox="0 0 107 71" fill="none" xmlns="http://www.w3.org/2000/svg">
<path d="M106.5 21.6798L95.9212 23.2276L102.551 31.6152L106.5 21.6798ZM92.9754 32.37L92.2975 33.0006L92.8794 33.6261L93.5496 33.0964L92.9754 32.37ZM87.2377 26.2026L87.9156 25.5719L87.3477 24.9615L86.6813 25.4625L87.2377 26.2026ZM99.9625 26.8472L99.3883 26.1208L92.4013 31.6436L92.9754 32.37L93.5496 33.0964L100.537 27.5736L99.9625 26.8472ZM92.9754 32.37L93.6533 31.7393L87.9156 25.5719L87.2377 26.2026L86.5598 26.8332L92.2975 33.0006L92.9754 32.37ZM87.2377 26.2026L86.6813 25.4625L71.5176 36.8617L72.074 37.6018L72.6303 38.3419L87.7941 26.9427L87.2377 26.2026Z" fill="#C9CDD2"/>
<g filter="url(#filter0_d_366_30708)">
<path d="M71.2541 4H14.6967C10.1698 4 6.5 7.68165 6.5 12.2232V54.1614C6.5 58.703 10.1698 62.3846 14.6967 62.3846H71.2541C75.781 62.3846 79.4508 58.703 79.4508 54.1614V12.2232C79.4508 7.68165 75.781 4 71.2541 4Z" fill="white"/>
</g>
<path d="M75.3795 68H71.228C70.9679 68.0001 70.7155 67.9109 70.5129 67.7473C70.3102 67.5838 70.1693 67.3556 70.1137 67.1007L69.6495 64.945C69.0303 64.6728 68.4431 64.3324 67.8988 63.9301L65.8037 64.5995C65.5557 64.6788 65.2881 64.6706 65.0453 64.5764C64.8026 64.4821 64.5993 64.3073 64.4692 64.0811L62.3889 60.4757C62.2602 60.2493 62.2119 59.9858 62.2519 59.7283C62.2919 59.4708 62.4178 59.2345 62.6091 59.0581L64.2343 57.5706C64.1604 56.8968 64.1604 56.2169 64.2343 55.5431L62.6091 54.0591C62.4175 53.8826 62.2914 53.6461 62.2514 53.3883C62.2115 53.1305 62.2599 52.8668 62.3889 52.6402L64.4647 49.0326C64.5948 48.8064 64.798 48.6316 65.0408 48.5373C65.2835 48.4431 65.5511 48.4349 65.7991 48.5142L67.8942 49.1836C68.1725 48.9777 68.4622 48.7854 68.761 48.6115C69.0496 48.449 69.3461 48.3014 69.6495 48.1698L70.1148 46.0165C70.1702 45.7615 70.3108 45.5332 70.5133 45.3695C70.7157 45.2057 70.9679 45.1162 71.228 45.116H75.3795C75.6395 45.1162 75.8917 45.2057 76.0942 45.3695C76.2966 45.5332 76.4372 45.7615 76.4926 46.0165L76.9625 48.171C77.581 48.4448 78.168 48.7851 78.7132 49.1859L80.8095 48.5165C81.0573 48.4375 81.3246 48.4458 81.5671 48.5401C81.8096 48.6343 82.0127 48.8089 82.1428 49.0349L84.2185 52.6425C84.4831 53.1082 84.3919 53.6975 83.9984 54.0602L82.3731 55.5477C82.447 56.2215 82.447 56.9014 82.3731 57.5752L83.9984 59.0627C84.3919 59.4265 84.4831 60.0146 84.2185 60.4803L82.1428 64.088C82.0127 64.3142 81.8094 64.4889 81.5667 64.5832C81.3239 64.6775 81.0563 64.6857 80.8083 64.6063L78.7132 63.937C78.1693 64.339 77.5825 64.679 76.9636 64.9507L76.4926 67.1007C76.437 67.3554 76.2963 67.5834 76.0939 67.747C75.8914 67.9105 75.6394 67.9998 75.3795 68ZM73.2992 51.9812C72.0892 51.9812 70.9288 52.4634 70.0733 53.3217C69.2177 54.18 68.7371 55.3442 68.7371 56.558C68.7371 57.7718 69.2177 58.936 70.0733 59.7943C70.9288 60.6526 72.0892 61.1348 73.2992 61.1348C74.5091 61.1348 75.6695 60.6526 76.525 59.7943C77.3806 58.936 77.8612 57.7718 77.8612 56.558C77.8612 55.3442 77.3806 54.18 76.525 53.3217C75.6695 52.4634 74.5091 51.9812 73.2992 51.9812Z" fill="#C9CDD2"/>
<rect x="16.3362" y="18.489" width="7.89656" height="21.7857" rx="2.40845" fill="#2ADEA1"/>
<path d="M20.2849 13.8679V45.2261" stroke="#2ADEA1" stroke-width="1.35676" stroke-linecap="round"/>
<path d="M33.4453 20.4697V51.8279" stroke="#E94656" stroke-width="1.35676" stroke-linecap="round"/>
<path d="M45.9482 15.5474V46.9055" stroke="#2ADEA1" stroke-width="1.35676" stroke-linecap="round"/>
<rect x="29.4973" y="26.4111" width="7.89656" height="19.145" rx="2.40845" fill="#E94656"/>
<rect x="41.7458" y="21.2688" width="8.19672" height="20.558" rx="2.40845" fill="#2ADEA1"/>
<defs>
<filter id="filter0_d_366_30708" x="0.5" y="0" width="84.9509" height="70.3845" filterUnits="userSpaceOnUse" color-interpolation-filters="sRGB">
<feFlood flood-opacity="0" result="BackgroundImageFix"/>
<feColorMatrix in="SourceAlpha" type="matrix" values="0 0 0 0 0 0 0 0 0 0 0 0 0 0 0 0 0 0 127 0" result="hardAlpha"/>
<feOffset dy="2"/>
<feGaussianBlur stdDeviation="3"/>
<feColorMatrix type="matrix" values="0 0 0 0 0.262745 0 0 0 0 0.337255 0 0 0 0 0.627451 0 0 0 0.196338 0"/>
<feBlend mode="normal" in2="BackgroundImageFix" result="effect1_dropShadow_366_30708"/>
<feBlend mode="normal" in="SourceGraphic" in2="effect1_dropShadow_366_30708" result="shape"/>
</filter>
</defs>
</svg>
