<svg width="33" height="32" viewBox="0 0 33 32" fill="none" xmlns="http://www.w3.org/2000/svg">
<g clip-path="url(#clip0_8_32830)">
<path d="M7.00362 4.00391H26.0094C26.4359 4.00391 26.8367 4.20801 27.0876 4.55301L32.1847 11.5615C32.3718 11.8187 32.3511 12.1722 32.1355 12.4058L16.9963 28.8065C16.7466 29.0771 16.3248 29.094 16.0543 28.8443C16.0456 28.8361 10.9866 23.3567 0.877486 12.4058C0.661798 12.1722 0.641163 11.8187 0.828198 11.5615L5.92531 4.55301C6.17622 4.20801 6.57704 4.00391 7.00362 4.00391ZM7.68259 6.67057L3.95 11.8029L16.5064 25.4057L29.063 11.8029L25.3303 6.67057H7.68259Z" fill="#131319"/>
</g>
<defs>
<clipPath id="clip0_8_32830">
<rect width="32" height="32" fill="white" transform="translate(0.5)"/>
</clipPath>
</defs>
</svg>
