<svg width="24" height="24" viewBox="0 0 24 24" fill="none" xmlns="http://www.w3.org/2000/svg">
<path d="M5.37736 4.51353C7.14167 2.95131 9.46204 2.00293 12.0039 2.00293C17.5267 2.00293 22.0039 6.48008 22.0039 12.0029C22.0039 14.1279 21.3411 16.098 20.211 17.7179L17.5039 12.0029H20.0039C20.0039 7.58465 16.4222 4.00293 12.0039 4.00293C9.75961 4.00293 7.73116 4.92709 6.27835 6.41563L5.37736 4.51353ZM18.6304 19.4923C16.8661 21.0545 14.5458 22.0029 12.0039 22.0029C6.48107 22.0029 2.00391 17.5258 2.00391 12.0029C2.00391 9.87798 2.6667 7.90784 3.79681 6.28794L6.50391 12.0029H4.00391C4.00391 16.4212 7.58563 20.0029 12.0039 20.0029C14.2482 20.0029 16.2766 19.0788 17.7294 17.5902L18.6304 19.4923ZM8.50391 14.0029H14.0039C14.28 14.0029 14.5039 13.7791 14.5039 13.5029C14.5039 13.2268 14.28 13.0029 14.0039 13.0029H10.0039C8.6232 13.0029 7.50391 11.8836 7.50391 10.5029C7.50391 9.12222 8.6232 8.00293 10.0039 8.00293H11.0039V7.00293H13.0039V8.00293H15.5039V10.0029H10.0039C9.72777 10.0029 9.50391 10.2268 9.50391 10.5029C9.50391 10.7791 9.72777 11.0029 10.0039 11.0029H14.0039C15.3846 11.0029 16.5039 12.1222 16.5039 13.5029C16.5039 14.8836 15.3846 16.0029 14.0039 16.0029H13.0039V17.0029H11.0039V16.0029H8.50391V14.0029Z" fill="#F2F4FB"/>
</svg>
