<svg width="32" height="32" viewBox="0 0 32 32" fill="none" xmlns="http://www.w3.org/2000/svg">
<path d="M1.57617 16C2.83019 9.17301 8.81148 4 16.0011 4C23.1905 4 29.1719 9.17301 30.4258 16C29.1719 22.8269 23.1905 28 16.0011 28C8.81148 28 2.83019 22.8269 1.57617 16ZM16.0011 22.6667C19.6829 22.6667 22.6677 19.6819 22.6677 16C22.6677 12.3181 19.6829 9.33333 16.0011 9.33333C12.3191 9.33333 9.33433 12.3181 9.33433 16C9.33433 19.6819 12.3191 22.6667 16.0011 22.6667ZM16.0011 20C13.7919 20 12.001 18.2092 12.001 16C12.001 13.7908 13.7919 12 16.0011 12C18.2101 12 20.0011 13.7908 20.0011 16C20.0011 18.2092 18.2101 20 16.0011 20Z" fill="#182BFF"/>
</svg>
