<svg width="411" height="300" viewBox="0 0 411 300" fill="none" xmlns="http://www.w3.org/2000/svg">
<g filter="url(#filter0_d_302_13555)">
<mask id="path-1-inside-1_302_13555" fill="white">
<path d="M0 0H410.667V300H0V0Z"/>
</mask>
<path d="M0 0H410.667V300H0V0Z" fill="#F2F4FB" shape-rendering="crispEdges"/>
<path d="M0 0V1H410.667V0V-1H0V0ZM410.667 300V299H0V300V301H410.667V300Z" fill="#C5C6CA" mask="url(#path-1-inside-1_302_13555)"/>
<rect x="0.246543" width="164.901" height="164.901" transform="matrix(0.866025 -0.5 0.866025 0.5 62.3123 196.53)" stroke="#2638FF" stroke-width="0.284684"/>
<rect x="0.246543" width="128.987" height="128.987" transform="matrix(0.866025 -0.5 0.866025 0.5 93.4158 196.562)" stroke="#2638FF" stroke-width="0.284684"/>
<rect x="0.246543" width="151.146" height="151.146" transform="matrix(0.866025 -0.5 0.866025 0.5 74.2244 196.53)" stroke="#2638FF" stroke-width="0.284684" stroke-dasharray="0.57 1.14"/>
<rect width="102.806" height="102.806" transform="matrix(0.866025 -0.5 0.866025 0.5 116.303 200.393)" fill="#F2F4FB"/>
<rect x="0.493087" width="102.236" height="102.236" transform="matrix(0.866025 -0.5 0.866025 0.5 116.369 196.654)" fill="#F2F4FB" stroke="#2638FF" stroke-width="0.569368"/>
<rect x="0.246543" width="89.3925" height="89.3925" transform="matrix(0.866025 -0.5 0.866025 0.5 127.705 196.53)" fill="#F2F4FB" stroke="#2638FF" stroke-width="0.284684" stroke-dasharray="0.57 1.14"/>
<rect width="102.5" height="16.794" transform="matrix(0.866025 0.5 0 1 116.576 158.279)" fill="#939CFF" stroke="#2638FF" stroke-width="0.284684"/>
<rect width="102.5" height="17.1854" transform="matrix(0.866025 -0.5 0 1 205.455 209.362)" fill="#939CFF" stroke="#2638FF" stroke-width="0.284684"/>
<rect width="77.5606" height="17.3474" transform="matrix(0.866025 0.5 0 1 138.174 124.525)" fill="#B7BDFF" stroke="#2638FF" stroke-width="0.284684"/>
<rect width="77.5606" height="17.315" transform="matrix(0.866025 -0.5 0 1 205.441 163.209)" fill="#B7BDFF" stroke="#2638FF" stroke-width="0.284684"/>
<rect width="52.6986" height="13.1703" transform="matrix(0.866025 -0.5 0 1 205.441 121.644)" fill="#DBDEFF" stroke="#2638FF" stroke-width="0.284684"/>
<rect x="0.493087" width="52.1292" height="52.1292" transform="matrix(0.866025 -0.5 0.866025 0.5 159.771 95.5976)" stroke="#2638FF" stroke-width="0.569368"/>
<rect width="52.6986" height="13.2261" transform="matrix(0.866025 0.5 0 1 159.705 95.3511)" fill="#DBDEFF" stroke="#2638FF" stroke-width="0.284684"/>
<rect x="0.493087" width="76.9912" height="76.9912" transform="matrix(0.866025 -0.5 0.866025 0.5 138.24 124.772)" stroke="#2638FF" stroke-width="0.569368"/>
<rect x="0.493087" width="101.931" height="101.931" transform="matrix(0.866025 -0.5 0.866025 0.5 116.642 158.526)" stroke="#2638FF" stroke-width="0.569368"/>
<path d="M116.641 194.655L117.462 193.833L116.641 193.011L115.819 193.833L116.641 194.655ZM116.641 177.069L115.819 177.891L116.641 178.712L117.462 177.891L116.641 177.069ZM116.641 177.891L116.498 177.891L116.498 178.186L116.641 178.186L116.783 178.186L116.783 177.891L116.641 177.891ZM116.641 179.367L116.498 179.367L116.498 179.957L116.641 179.957L116.783 179.957L116.783 179.367L116.641 179.367ZM116.641 181.138L116.498 181.138L116.498 181.729L116.641 181.729L116.783 181.729L116.783 181.138L116.641 181.138ZM116.641 182.909L116.498 182.909L116.498 183.5L116.641 183.5L116.783 183.5L116.783 182.909L116.641 182.909ZM116.641 184.681L116.498 184.681L116.498 185.271L116.641 185.271L116.783 185.271L116.783 184.681L116.641 184.681ZM116.641 186.452L116.498 186.452L116.498 187.043L116.641 187.043L116.783 187.043L116.783 186.452L116.641 186.452ZM116.641 188.224L116.498 188.224L116.498 188.814L116.641 188.814L116.783 188.814L116.783 188.224L116.641 188.224ZM116.641 189.995L116.498 189.995L116.498 190.585L116.641 190.585L116.783 190.585L116.783 189.995L116.641 189.995ZM116.641 191.766L116.498 191.766L116.498 192.357L116.641 192.357L116.783 192.357L116.783 191.766L116.641 191.766ZM116.641 193.538L116.498 193.538L116.498 193.833L116.641 193.833L116.783 193.833L116.783 193.538L116.641 193.538Z" fill="#2638FF"/>
<path d="M294.283 194.655L295.105 193.833L294.283 193.011L293.461 193.833L294.283 194.655ZM294.283 177.069L293.461 177.891L294.283 178.712L295.105 177.891L294.283 177.069ZM294.283 177.891L294.141 177.891L294.141 178.186L294.283 178.186L294.426 178.186L294.426 177.891L294.283 177.891ZM294.283 179.367L294.141 179.367L294.141 179.957L294.283 179.957L294.426 179.957L294.426 179.367L294.283 179.367ZM294.283 181.138L294.141 181.138L294.141 181.729L294.283 181.729L294.426 181.729L294.426 181.138L294.283 181.138ZM294.283 182.909L294.141 182.909L294.141 183.5L294.283 183.5L294.426 183.5L294.426 182.909L294.283 182.909ZM294.283 184.681L294.141 184.681L294.141 185.271L294.283 185.271L294.426 185.271L294.426 184.681L294.283 184.681ZM294.283 186.452L294.141 186.452L294.141 187.043L294.283 187.043L294.426 187.043L294.426 186.452L294.283 186.452ZM294.283 188.224L294.141 188.224L294.141 188.814L294.283 188.814L294.426 188.814L294.426 188.224L294.283 188.224ZM294.283 189.995L294.141 189.995L294.141 190.585L294.283 190.585L294.426 190.585L294.426 189.995L294.283 189.995ZM294.283 191.766L294.141 191.766L294.141 192.357L294.283 192.357L294.426 192.357L294.426 191.766L294.283 191.766ZM294.283 193.538L294.141 193.538L294.141 193.833L294.283 193.833L294.426 193.833L294.426 193.538L294.283 193.538Z" fill="#2638FF"/>
<path d="M201.201 36.9653C201.343 36.697 201.595 36.5518 201.736 36.6567L223.228 52.6792C223.428 52.8284 223.265 53.3365 222.96 53.5122L206.781 62.8535C206.449 63.0452 206.18 63.5104 206.18 63.8936V98.0459C206.18 98.272 206.021 98.5481 205.825 98.6611L197.237 103.62C197.041 103.733 196.882 103.64 196.882 103.414V69.2617C196.882 68.8788 196.613 68.7241 196.281 68.9155L179.977 78.3286C179.673 78.5042 179.51 78.1844 179.71 77.8042L201.201 36.9653Z" fill="#B7BDFF" stroke="#2638FF" stroke-width="0.284684"/>
<path d="M205.761 34.7788C205.853 34.6039 206.017 34.5093 206.11 34.5776L227.601 50.6001C227.732 50.6975 227.626 51.0284 227.427 51.1431L211.247 60.4844C210.848 60.7154 210.524 61.2765 210.524 61.7383V95.8906C210.524 96.0381 210.42 96.2182 210.292 96.292L201.703 101.25C201.576 101.324 201.472 101.264 201.472 101.117V66.9644C201.472 66.5028 201.148 66.3156 200.748 66.5464L184.444 75.9595C184.245 76.0739 184.139 75.8656 184.27 75.6177L205.761 34.7788Z" fill="white" stroke="#2638FF" stroke-width="0.569368"/>
<path d="M205.623 245.898L206.445 245.076L205.623 244.254L204.801 245.076L205.623 245.898ZM205.623 227.743L204.801 228.564L205.623 229.386L206.445 228.564L205.623 227.743ZM205.623 228.564L205.481 228.564L205.481 228.84L205.623 228.84L205.765 228.84L205.765 228.564L205.623 228.564ZM205.623 229.94L205.481 229.94L205.481 230.491L205.623 230.491L205.765 230.491L205.765 229.94L205.623 229.94ZM205.623 231.592L205.481 231.592L205.481 232.142L205.623 232.142L205.765 232.142L205.765 231.592L205.623 231.592ZM205.623 233.243L205.481 233.243L205.481 233.793L205.623 233.793L205.765 233.793L205.765 233.243L205.623 233.243ZM205.623 234.894L205.481 234.894L205.481 235.444L205.623 235.444L205.765 235.444L205.765 234.894L205.623 234.894ZM205.623 236.545L205.481 236.545L205.481 237.095L205.623 237.095L205.765 237.095L205.765 236.545L205.623 236.545ZM205.623 238.196L205.481 238.196L205.481 238.747L205.623 238.747L205.765 238.747L205.765 238.196L205.623 238.196ZM205.623 239.847L205.481 239.847L205.481 240.398L205.623 240.398L205.765 240.398L205.765 239.847L205.623 239.847ZM205.623 241.499L205.481 241.499L205.481 242.049L205.623 242.049L205.765 242.049L205.765 241.499L205.623 241.499ZM205.623 243.15L205.481 243.15L205.481 243.7L205.623 243.7L205.765 243.7L205.765 243.15L205.623 243.15ZM205.623 244.801L205.481 244.801L205.481 245.076L205.623 245.076L205.765 245.076L205.765 244.801L205.623 244.801Z" fill="#2638FF"/>
</g>
<defs>
<filter id="filter0_d_302_13555" x="-0.5" y="0" width="411.666" height="301.5" filterUnits="userSpaceOnUse" color-interpolation-filters="sRGB">
<feFlood flood-opacity="0" result="BackgroundImageFix"/>
<feColorMatrix in="SourceAlpha" type="matrix" values="0 0 0 0 0 0 0 0 0 0 0 0 0 0 0 0 0 0 127 0" result="hardAlpha"/>
<feOffset dy="1"/>
<feGaussianBlur stdDeviation="0.25"/>
<feComposite in2="hardAlpha" operator="out"/>
<feColorMatrix type="matrix" values="0 0 0 0 0.584314 0 0 0 0 0.627451 0 0 0 0 0.698039 0 0 0 0.08 0"/>
<feBlend mode="normal" in2="BackgroundImageFix" result="effect1_dropShadow_302_13555"/>
<feBlend mode="normal" in="SourceGraphic" in2="effect1_dropShadow_302_13555" result="shape"/>
</filter>
</defs>
</svg>
