<svg width="412" height="300" viewBox="0 0 412 300" fill="none" xmlns="http://www.w3.org/2000/svg">
<g filter="url(#filter0_d_302_13588)">
<mask id="path-1-inside-1_302_13588" fill="white">
<path d="M0.666016 0H411.333V300H0.666016V0Z"/>
</mask>
<path d="M0.666016 0H411.333V300H0.666016V0Z" fill="#F2F4FB" shape-rendering="crispEdges"/>
<path d="M0.666016 0V1H411.333V0V-1H0.666016V0ZM411.333 300V299H0.666016V300V301H411.333V300Z" fill="#C5C6CA" mask="url(#path-1-inside-1_302_13588)"/>
<path d="M38.5859 187.886L251.646 310.896" stroke="url(#paint0_linear_302_13588)" stroke-width="0.287543" stroke-linecap="round" stroke-dasharray="0.58 1.15"/>
<path d="M373.414 190.991L160.354 314.001" stroke="url(#paint1_linear_302_13588)" stroke-width="0.287543" stroke-linecap="round" stroke-dasharray="0.58 1.15"/>
<path d="M263.65 124.237L50.5905 247.247" stroke="url(#paint2_linear_302_13588)" stroke-width="0.287543" stroke-linecap="round" stroke-dasharray="0.58 1.15"/>
<path d="M313.117 156.238L100.057 279.248" stroke="url(#paint3_linear_302_13588)" stroke-width="0.287543" stroke-linecap="round" stroke-dasharray="0.58 1.15"/>
<path d="M98.2383 148.605L311.298 271.616" stroke="url(#paint4_linear_302_13588)" stroke-width="0.287543" stroke-linecap="round" stroke-dasharray="0.58 1.15"/>
<path d="M154.826 122.424L367.886 245.434" stroke="url(#paint5_linear_302_13588)" stroke-width="0.287543" stroke-linecap="round" stroke-dasharray="0.58 1.15"/>
<rect x="0.24902" width="172.62" height="172.62" transform="matrix(0.866025 -0.5 0.866025 0.5 58.7521 191.779)" fill="#DBDEFF" stroke="#2638FF" stroke-width="0.287543"/>
<rect x="0.24902" width="172.62" height="172.62" transform="matrix(0.866025 -0.5 0.866025 0.5 58.7521 184.604)" fill="#F2F4FB" stroke="#2638FF" stroke-width="0.287543"/>
<rect x="0.49804" width="137.838" height="137.838" transform="matrix(0.866025 -0.5 0.866025 0.5 88.9261 184.705)" fill="white" stroke="#2638FF" stroke-width="0.575087"/>
<rect x="0.24902" width="10.8939" height="4.94545" transform="matrix(0.866025 -0.5 0.866025 0.5 79.4533 178.553)" fill="#F2F4FB" stroke="#2638FF" stroke-width="0.287543"/>
<rect x="0.24902" width="5.43857" height="4.94545" transform="matrix(0.866025 -0.5 0.866025 0.5 90.9533 171.808)" fill="#F2F4FB" stroke="#2638FF" stroke-width="0.287543"/>
<path d="M96.6778 183.898C97.2966 183.541 98.3001 183.541 98.919 183.898C99.5379 184.255 99.5379 184.835 98.919 185.192C98.3001 185.549 97.2966 185.549 96.6778 185.192C96.0592 184.835 96.0592 184.255 96.6778 183.898Z" fill="#F2F4FB" stroke="#2638FF" stroke-width="0.287543"/>
<path d="M318.467 183.898C319.086 183.541 320.089 183.541 320.708 183.898C321.327 184.255 321.327 184.835 320.708 185.192C320.089 185.549 319.086 185.549 318.467 185.192C317.848 184.835 317.848 184.255 318.467 183.898Z" fill="#F2F4FB" stroke="#2638FF" stroke-width="0.287543"/>
<path d="M65.8185 183.898C66.4373 183.541 67.4407 183.541 68.0596 183.898C68.6785 184.255 68.6785 184.835 68.0596 185.192C67.4407 185.549 66.4373 185.549 65.8185 185.192C65.1998 184.835 65.1998 184.255 65.8185 183.898Z" fill="#F2F4FB" stroke="#2638FF" stroke-width="0.287543"/>
<path d="M347.887 183.898C348.506 183.541 349.509 183.541 350.128 183.898C350.747 184.255 350.747 184.835 350.128 185.192C349.509 185.549 348.506 185.549 347.887 185.192C347.268 184.835 347.268 184.255 347.887 183.898Z" fill="#F2F4FB" stroke="#2638FF" stroke-width="0.287543"/>
<rect x="0.24902" width="18.7183" height="6.243" transform="matrix(0.866025 -0.5 0.866025 0.5 213.053 256.375)" fill="#F2F4FB" stroke="#2638FF" stroke-width="0.287543"/>
<rect x="0.24902" width="115.767" height="6.243" transform="matrix(0.866025 -0.5 0.866025 0.5 232.477 245.167)" fill="#F2F4FB" stroke="#2638FF" stroke-width="0.287543"/>
<rect x="0.24902" width="32.7702" height="2.8636" transform="matrix(0.866025 -0.5 0.866025 0.5 259.846 193.383)" stroke="#2638FF" stroke-width="0.287543"/>
<rect x="0.252102" width="28.3148" height="2.86004" transform="matrix(0.866025 -0.5 0.866025 0.5 259.846 193.383)" fill="#2638FF" stroke="#2638FF" stroke-width="0.291102"/>
<rect x="0.24902" width="32.7702" height="2.8636" transform="matrix(0.866025 -0.5 0.866025 0.5 201.736 226.522)" stroke="#2638FF" stroke-width="0.287543"/>
<rect x="0.252102" width="17.5151" height="2.86004" transform="matrix(0.866025 -0.5 0.866025 0.5 201.737 226.524)" fill="#2638FF" stroke="#2638FF" stroke-width="0.291102"/>
<circle cx="4.36654" cy="4.36654" r="4.22276" transform="matrix(0.866025 -0.5 0.866025 0.5 181.848 225.596)" stroke="#2638FF" stroke-width="0.287543"/>
<circle cx="1.45551" cy="1.45551" r="1.24131" transform="matrix(0.866025 -0.5 0.866025 0.5 186.893 225.596)" fill="#2638FF" stroke="#2638FF" stroke-width="0.428399"/>
<path d="M199.808 222.094L195.534 219.626L197.184 218.673C197.226 218.649 197.274 218.624 197.329 218.596C197.385 218.566 197.444 218.539 197.508 218.514C197.765 218.404 198.032 218.34 198.309 218.322C198.586 218.301 198.856 218.321 199.119 218.382C199.384 218.441 199.629 218.536 199.852 218.665C200.074 218.793 200.236 218.933 200.339 219.086C200.442 219.239 200.477 219.396 200.443 219.557C200.409 219.716 200.298 219.869 200.111 220.017C200.065 220.052 200.018 220.086 199.968 220.12C199.921 220.152 199.876 220.18 199.834 220.203L198.621 220.904L200.244 221.842L199.808 222.094ZM198.205 220.664L199.407 219.97C199.443 219.95 199.482 219.925 199.526 219.895C199.569 219.865 199.609 219.835 199.645 219.803C199.759 219.7 199.819 219.596 199.823 219.491C199.829 219.384 199.793 219.283 199.716 219.186C199.641 219.087 199.537 219 199.404 218.923C199.272 218.847 199.12 218.787 198.95 218.744C198.78 218.698 198.603 218.677 198.419 218.68C198.237 218.682 198.057 218.717 197.879 218.783C197.823 218.803 197.771 218.827 197.721 218.853C197.67 218.878 197.626 218.901 197.591 218.922L196.389 219.616L198.205 220.664ZM202.798 220.367L199.996 217.05L200.575 216.716L206.321 218.333L205.867 218.595L200.438 217.075L200.61 216.976L203.252 220.105L202.798 220.367ZM202.418 219.391L202.008 219.154L204.217 217.879L204.626 218.116L202.418 219.391ZM206.857 218.024L202.583 215.556L204.233 214.603C204.275 214.579 204.323 214.554 204.379 214.526C204.434 214.497 204.493 214.469 204.557 214.444C204.814 214.334 205.081 214.27 205.358 214.252C205.635 214.232 205.905 214.252 206.168 214.312C206.433 214.372 206.678 214.466 206.901 214.595C207.224 214.781 207.419 214.992 207.486 215.227C207.553 215.463 207.459 215.689 207.204 215.908L207.088 216.015L205.67 216.835L207.293 217.772L206.857 218.024ZM209.445 216.53L206.863 216.012L207.121 215.678L209.947 216.24L209.445 216.53ZM205.254 216.595L206.456 215.901C206.492 215.88 206.531 215.855 206.575 215.825C206.618 215.796 206.658 215.765 206.694 215.733C206.808 215.63 206.868 215.526 206.872 215.421C206.878 215.315 206.842 215.213 206.765 215.116C206.69 215.018 206.586 214.93 206.453 214.854C206.321 214.777 206.169 214.717 205.999 214.674C205.829 214.628 205.652 214.607 205.468 214.61C205.286 214.613 205.106 214.647 204.928 214.713C204.872 214.734 204.82 214.757 204.77 214.783C204.719 214.809 204.675 214.831 204.64 214.852L203.438 215.546L205.254 216.595ZM210.305 216.033L207.503 212.716L208.082 212.381L213.828 213.999L213.374 214.261L207.945 212.741L208.117 212.642L210.759 215.771L210.305 216.033ZM209.925 215.056L209.515 214.82L211.724 213.545L212.133 213.781L209.925 215.056ZM214.364 213.69L210.09 211.222L210.491 210.991L215.765 212.096L213.842 209.056L214.248 208.821L218.519 211.287L218.104 211.527L214.806 209.623L216.584 212.408L216.302 212.571L211.482 211.542L214.782 213.448L214.364 213.69ZM219.438 210.76L218.931 210.467L219.438 210.174L219.946 210.467L219.438 210.76ZM222.796 208.822L219.008 206.635L218.688 207.379L218.198 207.096L218.522 206.354L218.964 206.099L223.238 208.566L222.796 208.822Z" fill="#2638FF"/>
<circle cx="4.36654" cy="4.36654" r="4.22276" transform="matrix(0.866025 -0.5 0.866025 0.5 238.91 191.965)" stroke="#2638FF" stroke-width="0.287543"/>
<circle cx="1.45551" cy="1.45551" r="1.24131" transform="matrix(0.866025 -0.5 0.866025 0.5 243.949 191.965)" fill="#2638FF" stroke="#2638FF" stroke-width="0.428399"/>
<path d="M256.87 188.463L252.596 185.995L254.247 185.042C254.288 185.018 254.337 184.993 254.392 184.965C254.447 184.936 254.507 184.908 254.57 184.883C254.827 184.773 255.094 184.709 255.371 184.691C255.648 184.671 255.919 184.691 256.182 184.751C256.447 184.81 256.691 184.905 256.915 185.034C257.136 185.162 257.299 185.302 257.402 185.455C257.504 185.608 257.539 185.766 257.505 185.927C257.472 186.085 257.361 186.238 257.173 186.386C257.128 186.421 257.08 186.456 257.031 186.489C256.983 186.521 256.939 186.549 256.897 186.573L255.683 187.273L257.307 188.211L256.87 188.463ZM255.268 187.034L256.47 186.34C256.505 186.319 256.545 186.294 256.588 186.264C256.632 186.234 256.671 186.204 256.707 186.172C256.822 186.069 256.881 185.965 256.885 185.86C256.891 185.754 256.855 185.652 256.778 185.555C256.703 185.457 256.599 185.369 256.467 185.293C256.334 185.216 256.183 185.156 256.013 185.113C255.842 185.067 255.665 185.046 255.481 185.049C255.299 185.052 255.119 185.086 254.941 185.152C254.886 185.173 254.833 185.196 254.784 185.222C254.732 185.247 254.689 185.27 254.653 185.291L253.451 185.985L255.268 187.034ZM259.86 186.736L257.059 183.419L257.637 183.085L263.383 184.702L262.929 184.965L257.501 183.445L257.673 183.345L260.314 186.474L259.86 186.736ZM259.48 185.76L259.071 185.523L261.279 184.248L261.689 184.485L259.48 185.76ZM263.919 184.393L259.645 181.925L261.296 180.973C261.337 180.949 261.386 180.923 261.441 180.895C261.496 180.866 261.556 180.838 261.619 180.813C261.876 180.704 262.143 180.64 262.421 180.621C262.698 180.601 262.968 180.621 263.231 180.681C263.496 180.741 263.74 180.835 263.964 180.964C264.286 181.15 264.481 181.361 264.549 181.596C264.616 181.832 264.522 182.058 264.267 182.277L264.151 182.385L262.732 183.204L264.356 184.141L263.919 184.393ZM266.507 182.899L263.925 182.381L264.184 182.047L267.009 182.609L266.507 182.899ZM262.317 182.964L263.519 182.27C263.554 182.249 263.594 182.224 263.637 182.194C263.681 182.165 263.721 182.134 263.756 182.102C263.871 181.999 263.93 181.895 263.934 181.79C263.94 181.684 263.905 181.582 263.827 181.485C263.752 181.387 263.648 181.299 263.516 181.223C263.383 181.146 263.232 181.086 263.062 181.043C262.891 180.997 262.714 180.976 262.53 180.979C262.348 180.982 262.168 181.016 261.99 181.082C261.935 181.103 261.882 181.126 261.833 181.153C261.781 181.178 261.738 181.201 261.702 181.221L260.5 181.915L262.317 182.964ZM267.367 182.402L264.566 179.085L265.144 178.751L270.89 180.368L270.436 180.63L265.008 179.11L265.18 179.011L267.821 182.14L267.367 182.402ZM266.987 181.425L266.578 181.189L268.786 179.914L269.196 180.151L266.987 181.425ZM271.426 180.059L267.152 177.591L267.553 177.36L272.827 178.465L270.904 175.425L271.311 175.19L275.582 177.656L275.166 177.896L271.869 175.992L273.647 178.777L273.365 178.94L268.544 177.912L271.845 179.817L271.426 180.059ZM276.501 177.129L275.993 176.836L276.501 176.543L277.008 176.836L276.501 177.129ZM278.991 175.688L278.597 175.456L278.784 173.333C278.8 173.15 278.767 173.005 278.686 172.896C278.605 172.785 278.49 172.687 278.341 172.601C278.165 172.5 277.965 172.432 277.739 172.398C277.513 172.363 277.289 172.363 277.065 172.396C276.84 172.428 276.64 172.494 276.466 172.595C276.284 172.7 276.165 172.818 276.11 172.951C276.054 173.084 276.056 173.215 276.115 173.345C276.177 173.474 276.293 173.587 276.463 173.683L276.017 173.94C275.758 173.79 275.587 173.62 275.504 173.431C275.421 173.241 275.426 173.052 275.519 172.864C275.61 172.674 275.788 172.503 276.053 172.35C276.312 172.2 276.606 172.101 276.935 172.053C277.263 172.003 277.591 172.003 277.917 172.055C278.244 172.104 278.533 172.202 278.787 172.348C278.965 172.451 279.1 172.554 279.193 172.658C279.286 172.76 279.346 172.87 279.371 172.99C279.397 173.108 279.402 173.242 279.386 173.393L279.22 175.278L278.974 175.215L281.363 173.835L281.781 174.077L278.991 175.688Z" fill="#2638FF"/>
<rect width="39.5001" height="39.5001" transform="matrix(0.866025 -0.5 0.866025 0.5 198.656 57.7935)" fill="#DBDEFF" stroke="#2638FF" stroke-width="0.575087" stroke-linejoin="bevel"/>
<rect width="39.5001" height="39.5001" transform="matrix(0.866025 -0.5 0.866025 0.5 198.656 52.0405)" fill="white" stroke="#2638FF" stroke-width="0.575087" stroke-linejoin="bevel"/>
<rect width="39.5001" height="39.5001" transform="matrix(0.866025 -0.5 0.866025 0.5 139.352 198.926)" fill="#F2F4FB" stroke="#2638FF" stroke-width="0.287543" stroke-linejoin="bevel"/>
<rect width="39.5001" height="39.5001" transform="matrix(0.866025 -0.5 0.866025 0.5 199.115 164.421)" fill="#F2F4FB" stroke="#2638FF" stroke-width="0.287543" stroke-linejoin="bevel"/>
<path d="M232.969 78.8516L232.139 79.6816L232.969 80.5117L233.799 79.6816L232.969 78.8516ZM232.969 182.302L233.799 181.472L232.969 180.642L232.139 181.472L232.969 182.302ZM232.969 79.6816L232.825 79.6816L232.825 79.9692L232.969 79.9692L233.113 79.9692L233.113 79.6816L232.969 79.6816ZM232.969 81.1194L232.825 81.1194L232.825 81.6944L232.969 81.6944L233.113 81.6944L233.113 81.1194L232.969 81.1194ZM232.969 82.8446L232.825 82.8446L232.825 83.4197L232.969 83.4197L233.113 83.4197L233.113 82.8446L232.969 82.8446ZM232.969 84.5699L232.825 84.5699L232.825 85.145L232.969 85.145L233.113 85.145L233.113 84.5699L232.969 84.5699ZM232.969 86.2951L232.825 86.2951L232.825 86.8702L232.969 86.8702L233.113 86.8702L233.113 86.2951L232.969 86.2951ZM232.969 88.0204L232.825 88.0204L232.825 88.5955L232.969 88.5955L233.113 88.5955L233.113 88.0204L232.969 88.0204ZM232.969 89.7457L232.825 89.7457L232.825 90.3207L232.969 90.3207L233.113 90.3207L233.113 89.7457L232.969 89.7457ZM232.969 91.4709L232.825 91.4709L232.825 92.046L232.969 92.046L233.113 92.046L233.113 91.4709L232.969 91.4709ZM232.969 93.1962L232.825 93.1962L232.825 93.7713L232.969 93.7713L233.113 93.7713L233.113 93.1962L232.969 93.1962ZM232.969 94.9214L232.825 94.9214L232.825 95.4965L232.969 95.4965L233.113 95.4965L233.113 94.9214L232.969 94.9214ZM232.969 96.6467L232.825 96.6467L232.825 97.2218L232.969 97.2218L233.113 97.2218L233.113 96.6467L232.969 96.6467ZM232.969 98.372L232.825 98.372L232.825 98.947L232.969 98.947L233.113 98.947L233.113 98.372L232.969 98.372ZM232.969 100.097L232.825 100.097L232.825 100.672L232.969 100.672L233.113 100.672L233.113 100.097L232.969 100.097ZM232.969 101.822L232.825 101.822L232.825 102.398L232.969 102.398L233.113 102.398L233.113 101.822L232.969 101.822ZM232.969 103.548L232.825 103.548L232.825 104.123L232.969 104.123L233.113 104.123L233.113 103.548L232.969 103.548ZM232.969 105.273L232.825 105.273L232.825 105.848L232.969 105.848L233.113 105.848L233.113 105.273L232.969 105.273ZM232.969 106.998L232.825 106.998L232.825 107.573L232.969 107.573L233.113 107.573L233.113 106.998L232.969 106.998ZM232.969 108.724L232.825 108.724L232.825 109.299L232.969 109.299L233.113 109.299L233.113 108.724L232.969 108.724ZM232.969 110.449L232.825 110.449L232.825 111.024L232.969 111.024L233.113 111.024L233.113 110.449L232.969 110.449ZM232.969 112.174L232.825 112.174L232.825 112.749L232.969 112.749L233.113 112.749L233.113 112.174L232.969 112.174ZM232.969 113.899L232.825 113.899L232.825 114.474L232.969 114.474L233.113 114.474L233.113 113.899L232.969 113.899ZM232.969 115.625L232.825 115.625L232.825 116.2L232.969 116.2L233.113 116.2L233.113 115.625L232.969 115.625ZM232.969 117.35L232.825 117.35L232.825 117.925L232.969 117.925L233.113 117.925L233.113 117.35L232.969 117.35ZM232.969 119.075L232.825 119.075L232.825 119.65L232.969 119.65L233.113 119.65L233.113 119.075L232.969 119.075ZM232.969 120.8L232.825 120.8L232.825 121.375L232.969 121.375L233.113 121.375L233.113 120.8L232.969 120.8ZM232.969 122.526L232.825 122.526L232.825 123.101L232.969 123.101L233.113 123.101L233.113 122.526L232.969 122.526ZM232.969 124.251L232.825 124.251L232.825 124.826L232.969 124.826L233.113 124.826L233.113 124.251L232.969 124.251ZM232.969 125.976L232.825 125.976L232.825 126.551L232.969 126.551L233.113 126.551L233.113 125.976L232.969 125.976ZM232.969 127.701L232.825 127.701L232.825 128.276L232.969 128.276L233.113 128.276L233.113 127.701L232.969 127.701ZM232.969 129.427L232.825 129.427L232.825 130.002L232.969 130.002L233.113 130.002L233.113 129.427L232.969 129.427ZM232.969 131.152L232.825 131.152L232.825 131.727L232.969 131.727L233.113 131.727L233.113 131.152L232.969 131.152ZM232.969 132.877L232.825 132.877L232.825 133.452L232.969 133.452L233.113 133.452L233.113 132.877L232.969 132.877ZM232.969 134.602L232.825 134.602L232.825 135.178L232.969 135.178L233.113 135.178L233.113 134.602L232.969 134.602ZM232.969 136.328L232.825 136.328L232.825 136.903L232.969 136.903L233.113 136.903L233.113 136.328L232.969 136.328ZM232.969 138.053L232.825 138.053L232.825 138.628L232.969 138.628L233.113 138.628L233.113 138.053L232.969 138.053ZM232.969 139.778L232.825 139.778L232.825 140.353L232.969 140.353L233.113 140.353L233.113 139.778L232.969 139.778ZM232.969 141.503L232.825 141.503L232.825 142.079L232.969 142.079L233.113 142.079L233.113 141.503L232.969 141.503ZM232.969 143.229L232.825 143.229L232.825 143.804L232.969 143.804L233.113 143.804L233.113 143.229L232.969 143.229ZM232.969 144.954L232.825 144.954L232.825 145.529L232.969 145.529L233.113 145.529L233.113 144.954L232.969 144.954ZM232.969 146.679L232.825 146.679L232.825 147.254L232.969 147.254L233.113 147.254L233.113 146.679L232.969 146.679ZM232.969 148.405L232.825 148.405L232.825 148.98L232.969 148.98L233.113 148.98L233.113 148.405L232.969 148.405ZM232.969 150.13L232.825 150.13L232.825 150.705L232.969 150.705L233.113 150.705L233.113 150.13L232.969 150.13ZM232.969 151.855L232.825 151.855L232.825 152.43L232.969 152.43L233.113 152.43L233.113 151.855L232.969 151.855ZM232.969 153.58L232.825 153.58L232.825 154.155L232.969 154.155L233.113 154.155L233.113 153.58L232.969 153.58ZM232.969 155.306L232.825 155.306L232.825 155.881L232.969 155.881L233.113 155.881L233.113 155.306L232.969 155.306ZM232.969 157.031L232.825 157.031L232.825 157.606L232.969 157.606L233.113 157.606L233.113 157.031L232.969 157.031ZM232.969 158.756L232.825 158.756L232.825 159.331L232.969 159.331L233.113 159.331L233.113 158.756L232.969 158.756ZM232.969 160.481L232.825 160.481L232.825 161.056L232.969 161.056L233.113 161.056L233.113 160.481L232.969 160.481ZM232.969 162.207L232.825 162.207L232.825 162.782L232.969 162.782L233.113 162.782L233.113 162.207L232.969 162.207ZM232.969 163.932L232.825 163.932L232.825 164.507L232.969 164.507L233.113 164.507L233.113 163.932L232.969 163.932ZM232.969 165.657L232.825 165.657L232.825 166.232L232.969 166.232L233.113 166.232L233.113 165.657L232.969 165.657ZM232.969 167.382L232.825 167.382L232.825 167.958L232.969 167.958L233.113 167.958L233.113 167.382L232.969 167.382ZM232.969 169.108L232.825 169.108L232.825 169.683L232.969 169.683L233.113 169.683L233.113 169.108L232.969 169.108ZM232.969 170.833L232.825 170.833L232.825 171.408L232.969 171.408L233.113 171.408L233.113 170.833L232.969 170.833ZM232.969 172.558L232.825 172.558L232.825 173.133L232.969 173.133L233.113 173.133L233.113 172.558L232.969 172.558ZM232.969 174.284L232.825 174.284L232.825 174.859L232.969 174.859L233.113 174.859L233.113 174.284L232.969 174.284ZM232.969 176.009L232.825 176.009L232.825 176.584L232.969 176.584L233.113 176.584L233.113 176.009L232.969 176.009ZM232.969 177.734L232.825 177.734L232.825 178.309L232.969 178.309L233.113 178.309L233.113 177.734L232.969 177.734ZM232.969 179.459L232.825 179.459L232.825 180.034L232.969 180.034L233.113 180.034L233.113 179.459L232.969 179.459ZM232.969 181.185L232.825 181.185L232.825 181.472L232.969 181.472L233.113 181.472L233.113 181.185L232.969 181.185Z" fill="#2638FF"/>
<path d="M266.895 59.8726L266.064 60.7026L266.895 61.5327L267.725 60.7026L266.895 59.8726ZM266.895 163.323L267.725 162.493L266.895 161.663L266.064 162.493L266.895 163.323ZM266.895 60.7026L266.751 60.7026L266.751 60.9902L266.895 60.9902L267.038 60.9902L267.038 60.7026L266.895 60.7026ZM266.895 62.1404L266.751 62.1404L266.751 62.7154L266.895 62.7154L267.038 62.7154L267.038 62.1404L266.895 62.1404ZM266.895 63.8656L266.751 63.8656L266.751 64.4407L266.895 64.4407L267.038 64.4407L267.038 63.8656L266.895 63.8656ZM266.895 65.5909L266.751 65.5909L266.751 66.166L266.895 66.166L267.038 66.166L267.038 65.5909L266.895 65.5909ZM266.895 67.3161L266.751 67.3161L266.751 67.8912L266.895 67.8912L267.038 67.8912L267.038 67.3161L266.895 67.3161ZM266.895 69.0414L266.751 69.0414L266.751 69.6165L266.895 69.6165L267.038 69.6165L267.038 69.0414L266.895 69.0414ZM266.895 70.7667L266.751 70.7667L266.751 71.3417L266.895 71.3417L267.038 71.3417L267.038 70.7667L266.895 70.7667ZM266.895 72.4919L266.751 72.4919L266.751 73.067L266.895 73.067L267.038 73.067L267.038 72.4919L266.895 72.4919ZM266.895 74.2172L266.751 74.2172L266.751 74.7923L266.895 74.7923L267.038 74.7923L267.038 74.2172L266.895 74.2172ZM266.895 75.9424L266.751 75.9424L266.751 76.5175L266.895 76.5175L267.038 76.5175L267.038 75.9424L266.895 75.9424ZM266.895 77.6677L266.751 77.6677L266.751 78.2428L266.895 78.2428L267.038 78.2428L267.038 77.6677L266.895 77.6677ZM266.895 79.393L266.751 79.393L266.751 79.968L266.895 79.968L267.038 79.968L267.038 79.393L266.895 79.393ZM266.895 81.1182L266.751 81.1182L266.751 81.6933L266.895 81.6933L267.038 81.6933L267.038 81.1182L266.895 81.1182ZM266.895 82.8435L266.751 82.8435L266.751 83.4186L266.895 83.4186L267.038 83.4186L267.038 82.8435L266.895 82.8435ZM266.895 84.5687L266.751 84.5687L266.751 85.1438L266.895 85.1438L267.038 85.1438L267.038 84.5687L266.895 84.5687ZM266.895 86.294L266.751 86.294L266.751 86.8691L266.895 86.8691L267.038 86.8691L267.038 86.294L266.895 86.294ZM266.895 88.0193L266.751 88.0193L266.751 88.5943L266.895 88.5943L267.038 88.5943L267.038 88.0193L266.895 88.0193ZM266.895 89.7445L266.751 89.7445L266.751 90.3196L266.895 90.3196L267.038 90.3196L267.038 89.7445L266.895 89.7445ZM266.895 91.4698L266.751 91.4698L266.751 92.0449L266.895 92.0449L267.038 92.0449L267.038 91.4698L266.895 91.4698ZM266.895 93.195L266.751 93.195L266.751 93.7701L266.895 93.7701L267.038 93.7701L267.038 93.195L266.895 93.195ZM266.895 94.9203L266.751 94.9203L266.751 95.4954L266.895 95.4954L267.038 95.4954L267.038 94.9203L266.895 94.9203ZM266.895 96.6456L266.751 96.6456L266.751 97.2206L266.895 97.2206L267.038 97.2206L267.038 96.6456L266.895 96.6456ZM266.895 98.3708L266.751 98.3708L266.751 98.9459L266.895 98.9459L267.038 98.9459L267.038 98.3708L266.895 98.3708ZM266.895 100.096L266.751 100.096L266.751 100.671L266.895 100.671L267.038 100.671L267.038 100.096L266.895 100.096ZM266.895 101.821L266.751 101.821L266.751 102.396L266.895 102.396L267.038 102.396L267.038 101.821L266.895 101.821ZM266.895 103.547L266.751 103.547L266.751 104.122L266.895 104.122L267.038 104.122L267.038 103.547L266.895 103.547ZM266.895 105.272L266.751 105.272L266.751 105.847L266.895 105.847L267.038 105.847L267.038 105.272L266.895 105.272ZM266.895 106.997L266.751 106.997L266.751 107.572L266.895 107.572L267.038 107.572L267.038 106.997L266.895 106.997ZM266.895 108.722L266.751 108.722L266.751 109.297L266.895 109.297L267.038 109.297L267.038 108.722L266.895 108.722ZM266.895 110.448L266.751 110.448L266.751 111.023L266.895 111.023L267.038 111.023L267.038 110.448L266.895 110.448ZM266.895 112.173L266.751 112.173L266.751 112.748L266.895 112.748L267.038 112.748L267.038 112.173L266.895 112.173ZM266.895 113.898L266.751 113.898L266.751 114.473L266.895 114.473L267.038 114.473L267.038 113.898L266.895 113.898ZM266.895 115.623L266.751 115.623L266.751 116.199L266.895 116.199L267.038 116.199L267.038 115.623L266.895 115.623ZM266.895 117.349L266.751 117.349L266.751 117.924L266.895 117.924L267.038 117.924L267.038 117.349L266.895 117.349ZM266.895 119.074L266.751 119.074L266.751 119.649L266.895 119.649L267.038 119.649L267.038 119.074L266.895 119.074ZM266.895 120.799L266.751 120.799L266.751 121.374L266.895 121.374L267.038 121.374L267.038 120.799L266.895 120.799ZM266.895 122.524L266.751 122.524L266.751 123.1L266.895 123.1L267.038 123.1L267.038 122.524L266.895 122.524ZM266.895 124.25L266.751 124.25L266.751 124.825L266.895 124.825L267.038 124.825L267.038 124.25L266.895 124.25ZM266.895 125.975L266.751 125.975L266.751 126.55L266.895 126.55L267.038 126.55L267.038 125.975L266.895 125.975ZM266.895 127.7L266.751 127.7L266.751 128.275L266.895 128.275L267.038 128.275L267.038 127.7L266.895 127.7ZM266.895 129.426L266.751 129.426L266.751 130.001L266.895 130.001L267.038 130.001L267.038 129.426L266.895 129.426ZM266.895 131.151L266.751 131.151L266.751 131.726L266.895 131.726L267.038 131.726L267.038 131.151L266.895 131.151ZM266.895 132.876L266.751 132.876L266.751 133.451L266.895 133.451L267.038 133.451L267.038 132.876L266.895 132.876ZM266.895 134.601L266.751 134.601L266.751 135.176L266.895 135.176L267.038 135.176L267.038 134.601L266.895 134.601ZM266.895 136.327L266.751 136.327L266.751 136.902L266.895 136.902L267.038 136.902L267.038 136.327L266.895 136.327ZM266.895 138.052L266.751 138.052L266.751 138.627L266.895 138.627L267.038 138.627L267.038 138.052L266.895 138.052ZM266.895 139.777L266.751 139.777L266.751 140.352L266.895 140.352L267.038 140.352L267.038 139.777L266.895 139.777ZM266.895 141.502L266.751 141.502L266.751 142.077L266.895 142.077L267.038 142.077L267.038 141.502L266.895 141.502ZM266.895 143.228L266.751 143.228L266.751 143.803L266.895 143.803L267.038 143.803L267.038 143.228L266.895 143.228ZM266.895 144.953L266.751 144.953L266.751 145.528L266.895 145.528L267.038 145.528L267.038 144.953L266.895 144.953ZM266.895 146.678L266.751 146.678L266.751 147.253L266.895 147.253L267.038 147.253L267.038 146.678L266.895 146.678ZM266.895 148.403L266.751 148.403L266.751 148.979L266.895 148.979L267.038 148.979L267.038 148.403L266.895 148.403ZM266.895 150.129L266.751 150.129L266.751 150.704L266.895 150.704L267.038 150.704L267.038 150.129L266.895 150.129ZM266.895 151.854L266.751 151.854L266.751 152.429L266.895 152.429L267.038 152.429L267.038 151.854L266.895 151.854ZM266.895 153.579L266.751 153.579L266.751 154.154L266.895 154.154L267.038 154.154L267.038 153.579L266.895 153.579ZM266.895 155.305L266.751 155.305L266.751 155.88L266.895 155.88L267.038 155.88L267.038 155.305L266.895 155.305ZM266.895 157.03L266.751 157.03L266.751 157.605L266.895 157.605L267.038 157.605L267.038 157.03L266.895 157.03ZM266.895 158.755L266.751 158.755L266.751 159.33L266.895 159.33L267.038 159.33L267.038 158.755L266.895 158.755ZM266.895 160.48L266.751 160.48L266.751 161.055L266.895 161.055L267.038 161.055L267.038 160.48L266.895 160.48ZM266.895 162.206L266.751 162.206L266.751 162.493L266.895 162.493L267.038 162.493L267.038 162.206L266.895 162.206Z" fill="#2638FF"/>
<path d="M198.463 59.8726L197.633 60.7026L198.463 61.5327L199.293 60.7026L198.463 59.8726ZM198.463 163.323L199.293 162.493L198.463 161.663L197.633 162.493L198.463 163.323ZM198.463 60.7026L198.319 60.7026L198.319 60.9902L198.463 60.9902L198.607 60.9902L198.607 60.7026L198.463 60.7026ZM198.463 62.1404L198.319 62.1404L198.319 62.7154L198.463 62.7154L198.607 62.7154L198.607 62.1404L198.463 62.1404ZM198.463 63.8656L198.319 63.8656L198.319 64.4407L198.463 64.4407L198.607 64.4407L198.607 63.8656L198.463 63.8656ZM198.463 65.5909L198.319 65.5909L198.319 66.166L198.463 66.166L198.607 66.166L198.607 65.5909L198.463 65.5909ZM198.463 67.3161L198.319 67.3161L198.319 67.8912L198.463 67.8912L198.607 67.8912L198.607 67.3161L198.463 67.3161ZM198.463 69.0414L198.319 69.0414L198.319 69.6165L198.463 69.6165L198.607 69.6165L198.607 69.0414L198.463 69.0414ZM198.463 70.7667L198.319 70.7667L198.319 71.3417L198.463 71.3417L198.607 71.3417L198.607 70.7667L198.463 70.7667ZM198.463 72.4919L198.319 72.4919L198.319 73.067L198.463 73.067L198.607 73.067L198.607 72.4919L198.463 72.4919ZM198.463 74.2172L198.319 74.2172L198.319 74.7923L198.463 74.7923L198.607 74.7923L198.607 74.2172L198.463 74.2172ZM198.463 75.9424L198.319 75.9424L198.319 76.5175L198.463 76.5175L198.607 76.5175L198.607 75.9424L198.463 75.9424ZM198.463 77.6677L198.319 77.6677L198.319 78.2428L198.463 78.2428L198.607 78.2428L198.607 77.6677L198.463 77.6677ZM198.463 79.393L198.319 79.393L198.319 79.968L198.463 79.968L198.607 79.968L198.607 79.393L198.463 79.393ZM198.463 81.1182L198.319 81.1182L198.319 81.6933L198.463 81.6933L198.607 81.6933L198.607 81.1182L198.463 81.1182ZM198.463 82.8435L198.319 82.8435L198.319 83.4186L198.463 83.4186L198.607 83.4186L198.607 82.8435L198.463 82.8435ZM198.463 84.5687L198.319 84.5687L198.319 85.1438L198.463 85.1438L198.607 85.1438L198.607 84.5687L198.463 84.5687ZM198.463 86.294L198.319 86.294L198.319 86.8691L198.463 86.8691L198.607 86.8691L198.607 86.294L198.463 86.294ZM198.463 88.0193L198.319 88.0193L198.319 88.5943L198.463 88.5943L198.607 88.5943L198.607 88.0193L198.463 88.0193ZM198.463 89.7445L198.319 89.7445L198.319 90.3196L198.463 90.3196L198.607 90.3196L198.607 89.7445L198.463 89.7445ZM198.463 91.4698L198.319 91.4698L198.319 92.0449L198.463 92.0449L198.607 92.0449L198.607 91.4698L198.463 91.4698ZM198.463 93.195L198.319 93.195L198.319 93.7701L198.463 93.7701L198.607 93.7701L198.607 93.195L198.463 93.195ZM198.463 94.9203L198.319 94.9203L198.319 95.4954L198.463 95.4954L198.607 95.4954L198.607 94.9203L198.463 94.9203ZM198.463 96.6456L198.319 96.6456L198.319 97.2206L198.463 97.2206L198.607 97.2206L198.607 96.6456L198.463 96.6456ZM198.463 98.3708L198.319 98.3708L198.319 98.9459L198.463 98.9459L198.607 98.9459L198.607 98.3708L198.463 98.3708ZM198.463 100.096L198.319 100.096L198.319 100.671L198.463 100.671L198.607 100.671L198.607 100.096L198.463 100.096ZM198.463 101.821L198.319 101.821L198.319 102.396L198.463 102.396L198.607 102.396L198.607 101.821L198.463 101.821ZM198.463 103.547L198.319 103.547L198.319 104.122L198.463 104.122L198.607 104.122L198.607 103.547L198.463 103.547ZM198.463 105.272L198.319 105.272L198.319 105.847L198.463 105.847L198.607 105.847L198.607 105.272L198.463 105.272ZM198.463 106.997L198.319 106.997L198.319 107.572L198.463 107.572L198.607 107.572L198.607 106.997L198.463 106.997ZM198.463 108.722L198.319 108.722L198.319 109.297L198.463 109.297L198.607 109.297L198.607 108.722L198.463 108.722ZM198.463 110.448L198.319 110.448L198.319 111.023L198.463 111.023L198.607 111.023L198.607 110.448L198.463 110.448ZM198.463 112.173L198.319 112.173L198.319 112.748L198.463 112.748L198.607 112.748L198.607 112.173L198.463 112.173ZM198.463 113.898L198.319 113.898L198.319 114.473L198.463 114.473L198.607 114.473L198.607 113.898L198.463 113.898ZM198.463 115.623L198.319 115.623L198.319 116.199L198.463 116.199L198.607 116.199L198.607 115.623L198.463 115.623ZM198.463 117.349L198.319 117.349L198.319 117.924L198.463 117.924L198.607 117.924L198.607 117.349L198.463 117.349ZM198.463 119.074L198.319 119.074L198.319 119.649L198.463 119.649L198.607 119.649L198.607 119.074L198.463 119.074ZM198.463 120.799L198.319 120.799L198.319 121.374L198.463 121.374L198.607 121.374L198.607 120.799L198.463 120.799ZM198.463 122.524L198.319 122.524L198.319 123.1L198.463 123.1L198.607 123.1L198.607 122.524L198.463 122.524ZM198.463 124.25L198.319 124.25L198.319 124.825L198.463 124.825L198.607 124.825L198.607 124.25L198.463 124.25ZM198.463 125.975L198.319 125.975L198.319 126.55L198.463 126.55L198.607 126.55L198.607 125.975L198.463 125.975ZM198.463 127.7L198.319 127.7L198.319 128.275L198.463 128.275L198.607 128.275L198.607 127.7L198.463 127.7ZM198.463 129.426L198.319 129.426L198.319 130.001L198.463 130.001L198.607 130.001L198.607 129.426L198.463 129.426ZM198.463 131.151L198.319 131.151L198.319 131.726L198.463 131.726L198.607 131.726L198.607 131.151L198.463 131.151ZM198.463 132.876L198.319 132.876L198.319 133.451L198.463 133.451L198.607 133.451L198.607 132.876L198.463 132.876ZM198.463 134.601L198.319 134.601L198.319 135.176L198.463 135.176L198.607 135.176L198.607 134.601L198.463 134.601ZM198.463 136.327L198.319 136.327L198.319 136.902L198.463 136.902L198.607 136.902L198.607 136.327L198.463 136.327ZM198.463 138.052L198.319 138.052L198.319 138.627L198.463 138.627L198.607 138.627L198.607 138.052L198.463 138.052ZM198.463 139.777L198.319 139.777L198.319 140.352L198.463 140.352L198.607 140.352L198.607 139.777L198.463 139.777ZM198.463 141.502L198.319 141.502L198.319 142.077L198.463 142.077L198.607 142.077L198.607 141.502L198.463 141.502ZM198.463 143.228L198.319 143.228L198.319 143.803L198.463 143.803L198.607 143.803L198.607 143.228L198.463 143.228ZM198.463 144.953L198.319 144.953L198.319 145.528L198.463 145.528L198.607 145.528L198.607 144.953L198.463 144.953ZM198.463 146.678L198.319 146.678L198.319 147.253L198.463 147.253L198.607 147.253L198.607 146.678L198.463 146.678ZM198.463 148.403L198.319 148.403L198.319 148.979L198.463 148.979L198.607 148.979L198.607 148.403L198.463 148.403ZM198.463 150.129L198.319 150.129L198.319 150.704L198.463 150.704L198.607 150.704L198.607 150.129L198.463 150.129ZM198.463 151.854L198.319 151.854L198.319 152.429L198.463 152.429L198.607 152.429L198.607 151.854L198.463 151.854ZM198.463 153.579L198.319 153.579L198.319 154.154L198.463 154.154L198.607 154.154L198.607 153.579L198.463 153.579ZM198.463 155.305L198.319 155.305L198.319 155.88L198.463 155.88L198.607 155.88L198.607 155.305L198.463 155.305ZM198.463 157.03L198.319 157.03L198.319 157.605L198.463 157.605L198.607 157.605L198.607 157.03L198.463 157.03ZM198.463 158.755L198.319 158.755L198.319 159.33L198.463 159.33L198.607 159.33L198.607 158.755L198.463 158.755ZM198.463 160.48L198.319 160.48L198.319 161.055L198.463 161.055L198.607 161.055L198.607 160.48L198.463 160.48ZM198.463 162.206L198.319 162.206L198.319 162.493L198.463 162.493L198.607 162.493L198.607 162.206L198.463 162.206Z" fill="#2638FF"/>
<path d="M139.516 127.159L138.686 127.989L139.516 128.819L140.346 127.989L139.516 127.159ZM139.516 197.83L140.346 197L139.516 196.17L138.686 197L139.516 197.83ZM139.516 127.989L139.372 127.989L139.372 128.277L139.516 128.277L139.659 128.277L139.659 127.989L139.516 127.989ZM139.516 129.427L139.372 129.427L139.372 130.002L139.516 130.002L139.659 130.002L139.659 129.427L139.516 129.427ZM139.516 131.152L139.372 131.152L139.372 131.727L139.516 131.727L139.659 131.727L139.659 131.152L139.516 131.152ZM139.516 132.877L139.372 132.877L139.372 133.453L139.516 133.453L139.659 133.453L139.659 132.877L139.516 132.877ZM139.516 134.603L139.372 134.603L139.372 135.178L139.516 135.178L139.659 135.178L139.659 134.603L139.516 134.603ZM139.516 136.328L139.372 136.328L139.372 136.903L139.516 136.903L139.659 136.903L139.659 136.328L139.516 136.328ZM139.516 138.053L139.372 138.053L139.372 138.628L139.516 138.628L139.659 138.628L139.659 138.053L139.516 138.053ZM139.516 139.779L139.372 139.779L139.372 140.354L139.516 140.354L139.659 140.354L139.659 139.779L139.516 139.779ZM139.516 141.504L139.372 141.504L139.372 142.079L139.516 142.079L139.659 142.079L139.659 141.504L139.516 141.504ZM139.516 143.229L139.372 143.229L139.372 143.804L139.516 143.804L139.659 143.804L139.659 143.229L139.516 143.229ZM139.516 144.954L139.372 144.954L139.372 145.529L139.516 145.529L139.659 145.529L139.659 144.954L139.516 144.954ZM139.516 146.68L139.372 146.68L139.372 147.255L139.516 147.255L139.659 147.255L139.659 146.68L139.516 146.68ZM139.516 148.405L139.372 148.405L139.372 148.98L139.516 148.98L139.659 148.98L139.659 148.405L139.516 148.405ZM139.516 150.13L139.372 150.13L139.372 150.705L139.516 150.705L139.659 150.705L139.659 150.13L139.516 150.13ZM139.516 151.855L139.372 151.855L139.372 152.43L139.516 152.43L139.659 152.43L139.659 151.855L139.516 151.855ZM139.516 153.581L139.372 153.581L139.372 154.156L139.516 154.156L139.659 154.156L139.659 153.581L139.516 153.581ZM139.516 155.306L139.372 155.306L139.372 155.881L139.516 155.881L139.659 155.881L139.659 155.306L139.516 155.306ZM139.516 157.031L139.372 157.031L139.372 157.606L139.516 157.606L139.659 157.606L139.659 157.031L139.516 157.031ZM139.516 158.756L139.372 158.756L139.372 159.331L139.516 159.331L139.659 159.331L139.659 158.756L139.516 158.756ZM139.516 160.482L139.372 160.482L139.372 161.057L139.516 161.057L139.659 161.057L139.659 160.482L139.516 160.482ZM139.516 162.207L139.372 162.207L139.372 162.782L139.516 162.782L139.659 162.782L139.659 162.207L139.516 162.207ZM139.516 163.932L139.372 163.932L139.372 164.507L139.516 164.507L139.659 164.507L139.659 163.932L139.516 163.932ZM139.516 165.657L139.372 165.657L139.372 166.233L139.516 166.233L139.659 166.233L139.659 165.657L139.516 165.657ZM139.516 167.383L139.372 167.383L139.372 167.958L139.516 167.958L139.659 167.958L139.659 167.383L139.516 167.383ZM139.516 169.108L139.372 169.108L139.372 169.683L139.516 169.683L139.659 169.683L139.659 169.108L139.516 169.108ZM139.516 170.833L139.372 170.833L139.372 171.408L139.516 171.408L139.659 171.408L139.659 170.833L139.516 170.833ZM139.516 172.558L139.372 172.558L139.372 173.134L139.516 173.134L139.659 173.134L139.659 172.558L139.516 172.558ZM139.516 174.284L139.372 174.284L139.372 174.859L139.516 174.859L139.659 174.859L139.659 174.284L139.516 174.284ZM139.516 176.009L139.372 176.009L139.372 176.584L139.516 176.584L139.659 176.584L139.659 176.009L139.516 176.009ZM139.516 177.734L139.372 177.734L139.372 178.309L139.516 178.309L139.659 178.309L139.659 177.734L139.516 177.734ZM139.516 179.46L139.372 179.46L139.372 180.035L139.516 180.035L139.659 180.035L139.659 179.46L139.516 179.46ZM139.516 181.185L139.372 181.185L139.372 181.76L139.516 181.76L139.659 181.76L139.659 181.185L139.516 181.185ZM139.516 182.91L139.372 182.91L139.372 183.485L139.516 183.485L139.659 183.485L139.659 182.91L139.516 182.91ZM139.516 184.635L139.372 184.635L139.372 185.21L139.516 185.21L139.659 185.21L139.659 184.635L139.516 184.635ZM139.516 186.361L139.372 186.361L139.372 186.936L139.516 186.936L139.659 186.936L139.659 186.361L139.516 186.361ZM139.516 188.086L139.372 188.086L139.372 188.661L139.516 188.661L139.659 188.661L139.659 188.086L139.516 188.086ZM139.516 189.811L139.372 189.811L139.372 190.386L139.516 190.386L139.659 190.386L139.659 189.811L139.516 189.811ZM139.516 191.536L139.372 191.536L139.372 192.111L139.516 192.111L139.659 192.111L139.659 191.536L139.516 191.536ZM139.516 193.262L139.372 193.262L139.372 193.837L139.516 193.837L139.659 193.837L139.659 193.262L139.516 193.262ZM139.516 194.987L139.372 194.987L139.372 195.562L139.516 195.562L139.659 195.562L139.659 194.987L139.516 194.987ZM139.516 196.712L139.372 196.712L139.372 197L139.516 197L139.659 197L139.659 196.712L139.516 196.712Z" fill="#2638FF"/>
<path d="M207.666 127.159L206.836 127.989L207.666 128.819L208.496 127.989L207.666 127.159ZM207.666 197.83L208.496 197L207.666 196.17L206.836 197L207.666 197.83ZM207.666 127.989L207.522 127.989L207.522 128.277L207.666 128.277L207.81 128.277L207.81 127.989L207.666 127.989ZM207.666 129.427L207.522 129.427L207.522 130.002L207.666 130.002L207.81 130.002L207.81 129.427L207.666 129.427ZM207.666 131.152L207.522 131.152L207.522 131.727L207.666 131.727L207.81 131.727L207.81 131.152L207.666 131.152ZM207.666 132.877L207.522 132.877L207.522 133.453L207.666 133.453L207.81 133.453L207.81 132.877L207.666 132.877ZM207.666 134.603L207.522 134.603L207.522 135.178L207.666 135.178L207.81 135.178L207.81 134.603L207.666 134.603ZM207.666 136.328L207.522 136.328L207.522 136.903L207.666 136.903L207.81 136.903L207.81 136.328L207.666 136.328ZM207.666 138.053L207.522 138.053L207.522 138.628L207.666 138.628L207.81 138.628L207.81 138.053L207.666 138.053ZM207.666 139.779L207.522 139.779L207.522 140.354L207.666 140.354L207.81 140.354L207.81 139.779L207.666 139.779ZM207.666 141.504L207.522 141.504L207.522 142.079L207.666 142.079L207.81 142.079L207.81 141.504L207.666 141.504ZM207.666 143.229L207.522 143.229L207.522 143.804L207.666 143.804L207.81 143.804L207.81 143.229L207.666 143.229ZM207.666 144.954L207.522 144.954L207.522 145.529L207.666 145.529L207.81 145.529L207.81 144.954L207.666 144.954ZM207.666 146.68L207.522 146.68L207.522 147.255L207.666 147.255L207.81 147.255L207.81 146.68L207.666 146.68ZM207.666 148.405L207.522 148.405L207.522 148.98L207.666 148.98L207.81 148.98L207.81 148.405L207.666 148.405ZM207.666 150.13L207.522 150.13L207.522 150.705L207.666 150.705L207.81 150.705L207.81 150.13L207.666 150.13ZM207.666 151.855L207.522 151.855L207.522 152.43L207.666 152.43L207.81 152.43L207.81 151.855L207.666 151.855ZM207.666 153.581L207.522 153.581L207.522 154.156L207.666 154.156L207.81 154.156L207.81 153.581L207.666 153.581ZM207.666 155.306L207.522 155.306L207.522 155.881L207.666 155.881L207.81 155.881L207.81 155.306L207.666 155.306ZM207.666 157.031L207.522 157.031L207.522 157.606L207.666 157.606L207.81 157.606L207.81 157.031L207.666 157.031ZM207.666 158.756L207.522 158.756L207.522 159.331L207.666 159.331L207.81 159.331L207.81 158.756L207.666 158.756ZM207.666 160.482L207.522 160.482L207.522 161.057L207.666 161.057L207.81 161.057L207.81 160.482L207.666 160.482ZM207.666 162.207L207.522 162.207L207.522 162.782L207.666 162.782L207.81 162.782L207.81 162.207L207.666 162.207ZM207.666 163.932L207.522 163.932L207.522 164.507L207.666 164.507L207.81 164.507L207.81 163.932L207.666 163.932ZM207.666 165.657L207.522 165.657L207.522 166.233L207.666 166.233L207.81 166.233L207.81 165.657L207.666 165.657ZM207.666 167.383L207.522 167.383L207.522 167.958L207.666 167.958L207.81 167.958L207.81 167.383L207.666 167.383ZM207.666 169.108L207.522 169.108L207.522 169.683L207.666 169.683L207.81 169.683L207.81 169.108L207.666 169.108ZM207.666 170.833L207.522 170.833L207.522 171.408L207.666 171.408L207.81 171.408L207.81 170.833L207.666 170.833ZM207.666 172.558L207.522 172.558L207.522 173.134L207.666 173.134L207.81 173.134L207.81 172.558L207.666 172.558ZM207.666 174.284L207.522 174.284L207.522 174.859L207.666 174.859L207.81 174.859L207.81 174.284L207.666 174.284ZM207.666 176.009L207.522 176.009L207.522 176.584L207.666 176.584L207.81 176.584L207.81 176.009L207.666 176.009ZM207.666 177.734L207.522 177.734L207.522 178.309L207.666 178.309L207.81 178.309L207.81 177.734L207.666 177.734ZM207.666 179.46L207.522 179.46L207.522 180.035L207.666 180.035L207.81 180.035L207.81 179.46L207.666 179.46ZM207.666 181.185L207.522 181.185L207.522 181.76L207.666 181.76L207.81 181.76L207.81 181.185L207.666 181.185ZM207.666 182.91L207.522 182.91L207.522 183.485L207.666 183.485L207.81 183.485L207.81 182.91L207.666 182.91ZM207.666 184.635L207.522 184.635L207.522 185.21L207.666 185.21L207.81 185.21L207.81 184.635L207.666 184.635ZM207.666 186.361L207.522 186.361L207.522 186.936L207.666 186.936L207.81 186.936L207.81 186.361L207.666 186.361ZM207.666 188.086L207.522 188.086L207.522 188.661L207.666 188.661L207.81 188.661L207.81 188.086L207.666 188.086ZM207.666 189.811L207.522 189.811L207.522 190.386L207.666 190.386L207.81 190.386L207.81 189.811L207.666 189.811ZM207.666 191.536L207.522 191.536L207.522 192.111L207.666 192.111L207.81 192.111L207.81 191.536L207.666 191.536ZM207.666 193.262L207.522 193.262L207.522 193.837L207.666 193.837L207.81 193.837L207.81 193.262L207.666 193.262ZM207.666 194.987L207.522 194.987L207.522 195.562L207.666 195.562L207.81 195.562L207.81 194.987L207.666 194.987ZM207.666 196.712L207.522 196.712L207.522 197L207.666 197L207.81 197L207.81 196.712L207.666 196.712Z" fill="#2638FF"/>
<path d="M173.738 146.71L172.908 147.541L173.738 148.371L174.568 147.541L173.738 146.71ZM173.738 217.381L174.568 216.551L173.738 215.721L172.908 216.551L173.738 217.381ZM173.738 147.541L173.595 147.541L173.595 147.828L173.738 147.828L173.882 147.828L173.882 147.541L173.738 147.541ZM173.738 148.978L173.595 148.978L173.595 149.553L173.738 149.553L173.882 149.553L173.882 148.978L173.738 148.978ZM173.738 150.704L173.595 150.704L173.595 151.279L173.738 151.279L173.882 151.279L173.882 150.704L173.738 150.704ZM173.738 152.429L173.595 152.429L173.595 153.004L173.738 153.004L173.882 153.004L173.882 152.429L173.738 152.429ZM173.738 154.154L173.595 154.154L173.595 154.729L173.738 154.729L173.882 154.729L173.882 154.154L173.738 154.154ZM173.738 155.879L173.595 155.879L173.595 156.454L173.738 156.454L173.882 156.454L173.882 155.879L173.738 155.879ZM173.738 157.605L173.595 157.605L173.595 158.18L173.738 158.18L173.882 158.18L173.882 157.605L173.738 157.605ZM173.738 159.33L173.595 159.33L173.595 159.905L173.738 159.905L173.882 159.905L173.882 159.33L173.738 159.33ZM173.738 161.055L173.595 161.055L173.595 161.63L173.738 161.63L173.882 161.63L173.882 161.055L173.738 161.055ZM173.738 162.78L173.595 162.78L173.595 163.355L173.738 163.355L173.882 163.355L173.882 162.78L173.738 162.78ZM173.738 164.506L173.595 164.506L173.595 165.081L173.738 165.081L173.882 165.081L173.882 164.506L173.738 164.506ZM173.738 166.231L173.595 166.231L173.595 166.806L173.738 166.806L173.882 166.806L173.882 166.231L173.738 166.231ZM173.738 167.956L173.595 167.956L173.595 168.531L173.738 168.531L173.882 168.531L173.882 167.956L173.738 167.956ZM173.738 169.681L173.595 169.681L173.595 170.256L173.738 170.256L173.882 170.256L173.882 169.681L173.738 169.681ZM173.738 171.407L173.595 171.407L173.595 171.982L173.738 171.982L173.882 171.982L173.882 171.407L173.738 171.407ZM173.738 173.132L173.595 173.132L173.595 173.707L173.738 173.707L173.882 173.707L173.882 173.132L173.738 173.132ZM173.738 174.857L173.595 174.857L173.595 175.432L173.738 175.432L173.882 175.432L173.882 174.857L173.738 174.857ZM173.738 176.582L173.595 176.582L173.595 177.157L173.738 177.157L173.882 177.157L173.882 176.582L173.738 176.582ZM173.738 178.308L173.595 178.308L173.595 178.883L173.738 178.883L173.882 178.883L173.882 178.308L173.738 178.308ZM173.738 180.033L173.595 180.033L173.595 180.608L173.738 180.608L173.882 180.608L173.882 180.033L173.738 180.033ZM173.738 181.758L173.595 181.758L173.595 182.333L173.738 182.333L173.882 182.333L173.882 181.758L173.738 181.758ZM173.738 183.483L173.595 183.483L173.595 184.059L173.738 184.059L173.882 184.059L173.882 183.483L173.738 183.483ZM173.738 185.209L173.595 185.209L173.595 185.784L173.738 185.784L173.882 185.784L173.882 185.209L173.738 185.209ZM173.738 186.934L173.595 186.934L173.595 187.509L173.738 187.509L173.882 187.509L173.882 186.934L173.738 186.934ZM173.738 188.659L173.595 188.659L173.595 189.234L173.738 189.234L173.882 189.234L173.882 188.659L173.738 188.659ZM173.738 190.384L173.595 190.384L173.595 190.96L173.738 190.96L173.882 190.96L173.882 190.384L173.738 190.384ZM173.738 192.11L173.595 192.11L173.595 192.685L173.738 192.685L173.882 192.685L173.882 192.11L173.738 192.11ZM173.738 193.835L173.595 193.835L173.595 194.41L173.738 194.41L173.882 194.41L173.882 193.835L173.738 193.835ZM173.738 195.56L173.595 195.56L173.595 196.135L173.738 196.135L173.882 196.135L173.882 195.56L173.738 195.56ZM173.738 197.286L173.595 197.286L173.595 197.861L173.738 197.861L173.882 197.861L173.882 197.286L173.738 197.286ZM173.738 199.011L173.595 199.011L173.595 199.586L173.738 199.586L173.882 199.586L173.882 199.011L173.738 199.011ZM173.738 200.736L173.595 200.736L173.595 201.311L173.738 201.311L173.882 201.311L173.882 200.736L173.738 200.736ZM173.738 202.461L173.595 202.461L173.595 203.036L173.738 203.036L173.882 203.036L173.882 202.461L173.738 202.461ZM173.738 204.187L173.595 204.187L173.595 204.762L173.738 204.762L173.882 204.762L173.882 204.187L173.738 204.187ZM173.738 205.912L173.595 205.912L173.595 206.487L173.738 206.487L173.882 206.487L173.882 205.912L173.738 205.912ZM173.738 207.637L173.595 207.637L173.595 208.212L173.738 208.212L173.882 208.212L173.882 207.637L173.738 207.637ZM173.738 209.362L173.595 209.362L173.595 209.937L173.738 209.937L173.882 209.937L173.882 209.362L173.738 209.362ZM173.738 211.088L173.595 211.088L173.595 211.663L173.738 211.663L173.882 211.663L173.882 211.088L173.738 211.088ZM173.738 212.813L173.595 212.813L173.595 213.388L173.738 213.388L173.882 213.388L173.882 212.813L173.738 212.813ZM173.738 214.538L173.595 214.538L173.595 215.113L173.738 215.113L173.882 215.113L173.882 214.538L173.738 214.538ZM173.738 216.263L173.595 216.263L173.595 216.551L173.738 216.551L173.882 216.551L173.882 216.263L173.738 216.263Z" fill="#2638FF"/>
<rect width="39.5001" height="39.5001" transform="matrix(0.866025 -0.5 0.866025 0.5 139.352 125.885)" fill="#DBDEFF" stroke="#2638FF" stroke-width="0.575087" stroke-linejoin="bevel"/>
<rect width="39.5001" height="39.5001" transform="matrix(0.866025 -0.5 0.866025 0.5 139.352 120.134)" fill="white" stroke="#2638FF" stroke-width="0.575087" stroke-linejoin="bevel"/>
<g filter="url(#filter1_d_302_13588)">
<path d="M161.316 126.778C161.116 127.111 161.107 127.481 161.296 127.602C161.485 127.724 161.8 127.552 162 127.219L161.658 126.998L161.316 126.778ZM238.289 19.4921C238.171 19.2742 237.873 19.3247 237.625 19.6051L233.582 24.1735C233.334 24.4538 233.229 24.8578 233.348 25.0757C233.466 25.2937 233.764 25.2431 234.012 24.9628L237.606 20.902L239.326 24.0592C239.444 24.2771 239.742 24.2266 239.99 23.9462C240.238 23.6659 240.343 23.2619 240.224 23.044L238.289 19.4921ZM229.361 46.2477L229.703 45.6322L229.361 46.2477ZM231.5 44.4152L231.03 44.495L231.5 44.4152ZM227.221 48.0803L227.691 48.0004L227.221 48.0803ZM220.656 67.8296L220.856 67.1874L220.656 67.8296ZM222.652 65.6782L223.121 65.5983L222.652 65.6782ZM217.049 68.0854L216.849 68.7276L217.049 68.0854ZM203.834 87.2577L204.034 86.6156L203.834 87.2577ZM205.449 86.0013L205.791 86.2218L205.449 86.0013ZM189.905 89.8647L189.48 89.8103L189.905 89.8647ZM191.768 88.1135L191.568 88.7557L191.768 88.1135ZM182.332 108.55L181.907 108.496L182.332 108.55ZM174.012 106.384L173.67 106.164L174.012 106.384ZM176.298 105.416L175.873 105.962L176.298 105.416ZM161.658 126.998L162 127.219L174.354 106.604L174.012 106.384L173.67 106.164L161.316 126.778L161.658 126.998ZM176.298 105.416L175.873 105.962L179.374 110.558L179.799 110.013L180.224 109.468L176.723 104.871L176.298 105.416ZM182.332 108.55L182.757 108.605L190.33 89.9192L189.905 89.8647L189.48 89.8103L181.907 108.496L182.332 108.55ZM191.768 88.1135L191.568 88.7557L203.634 87.8999L203.834 87.2577L204.034 86.6156L191.968 87.4714L191.768 88.1135ZM205.449 86.0013L205.791 86.2218L215.776 69.5624L215.434 69.3419L215.092 69.1214L205.107 85.7808L205.449 86.0013ZM217.049 68.0854L216.849 68.7276L220.456 68.4717L220.656 67.8296L220.856 67.1874L217.249 67.4433L217.049 68.0854ZM222.652 65.6782L223.121 65.5983L227.691 48.0004L227.221 48.0803L226.752 48.1601L222.182 65.758L222.652 65.6782ZM231.5 44.4152L231.97 44.3353L238.31 19.9199L237.84 19.9997L237.37 20.0796L231.03 44.495L231.5 44.4152ZM229.361 46.2477L229.019 46.8632C229.971 47.3525 231.534 46.0135 231.97 44.3353L231.5 44.4152L231.03 44.495C230.834 45.25 230.131 45.8523 229.703 45.6322L229.361 46.2477ZM227.221 48.0803L227.691 48.0004C227.887 47.2454 228.59 46.6431 229.019 46.8632L229.361 46.2477L229.703 45.6322C228.751 45.143 227.187 46.4819 226.752 48.1601L227.221 48.0803ZM220.656 67.8296L220.456 68.4717C221.511 68.3969 222.738 67.0747 223.121 65.5983L222.652 65.6782L222.182 65.758C221.991 66.4925 221.381 67.1502 220.856 67.1874L220.656 67.8296ZM215.434 69.3419L215.776 69.5624C216.064 69.0821 216.486 68.7533 216.849 68.7276L217.049 68.0854L217.249 67.4433C216.52 67.495 215.67 68.1559 215.092 69.1214L215.434 69.3419ZM203.834 87.2577L203.634 87.8999C204.363 87.8482 205.213 87.1873 205.791 86.2218L205.449 86.0013L205.107 85.7808C204.819 86.2611 204.397 86.5899 204.034 86.6156L203.834 87.2577ZM189.905 89.8647L190.33 89.9192C190.587 89.2847 191.116 88.7877 191.568 88.7557L191.768 88.1135L191.968 87.4714C191.06 87.5358 189.997 88.5349 189.48 89.8103L189.905 89.8647ZM179.799 110.013L179.374 110.558C180.147 111.572 181.984 110.512 182.757 108.605L182.332 108.55L181.907 108.496C181.523 109.445 180.609 109.972 180.224 109.468L179.799 110.013ZM174.012 106.384L174.354 106.604C174.81 105.844 175.546 105.533 175.873 105.962L176.298 105.416L176.723 104.871C176.066 104.009 174.586 104.636 173.67 106.164L174.012 106.384Z" fill="#2638FF"/>
</g>
</g>
<defs>
<filter id="filter0_d_302_13588" x="0.166016" y="0" width="411.666" height="315.603" filterUnits="userSpaceOnUse" color-interpolation-filters="sRGB">
<feFlood flood-opacity="0" result="BackgroundImageFix"/>
<feColorMatrix in="SourceAlpha" type="matrix" values="0 0 0 0 0 0 0 0 0 0 0 0 0 0 0 0 0 0 127 0" result="hardAlpha"/>
<feOffset dy="1"/>
<feGaussianBlur stdDeviation="0.25"/>
<feComposite in2="hardAlpha" operator="out"/>
<feColorMatrix type="matrix" values="0 0 0 0 0.584314 0 0 0 0 0.627451 0 0 0 0 0.698039 0 0 0 0.08 0"/>
<feBlend mode="normal" in2="BackgroundImageFix" result="effect1_dropShadow_302_13588"/>
<feBlend mode="normal" in="SourceGraphic" in2="effect1_dropShadow_302_13588" result="shape"/>
</filter>
<filter id="filter1_d_302_13588" x="158.831" y="17.0281" width="83.7709" height="112.942" filterUnits="userSpaceOnUse" color-interpolation-filters="sRGB">
<feFlood flood-opacity="0" result="BackgroundImageFix"/>
<feColorMatrix in="SourceAlpha" type="matrix" values="0 0 0 0 0 0 0 0 0 0 0 0 0 0 0 0 0 0 127 0" result="hardAlpha"/>
<feOffset/>
<feGaussianBlur stdDeviation="1.16441"/>
<feComposite in2="hardAlpha" operator="out"/>
<feColorMatrix type="matrix" values="0 0 0 0 1 0 0 0 0 1 0 0 0 0 1 0 0 0 0.25 0"/>
<feBlend mode="normal" in2="BackgroundImageFix" result="effect1_dropShadow_302_13588"/>
<feBlend mode="normal" in="SourceGraphic" in2="effect1_dropShadow_302_13588" result="shape"/>
</filter>
<linearGradient id="paint0_linear_302_13588" x1="39.019" y1="187.636" x2="145.549" y2="372.151" gradientUnits="userSpaceOnUse">
<stop stop-color="#2638FF" stop-opacity="0"/>
<stop offset="0.206731" stop-color="#2638FF"/>
<stop offset="0.769231" stop-color="#2638FF"/>
<stop offset="1" stop-color="#2638FF" stop-opacity="0"/>
</linearGradient>
<linearGradient id="paint1_linear_302_13588" x1="373.847" y1="191.241" x2="267.317" y2="375.756" gradientUnits="userSpaceOnUse">
<stop stop-color="#2638FF" stop-opacity="0"/>
<stop offset="0.206731" stop-color="#2638FF"/>
<stop offset="0.769231" stop-color="#2638FF"/>
<stop offset="1" stop-color="#2638FF" stop-opacity="0"/>
</linearGradient>
<linearGradient id="paint2_linear_302_13588" x1="264.083" y1="124.487" x2="157.553" y2="309.003" gradientUnits="userSpaceOnUse">
<stop stop-color="#2638FF" stop-opacity="0"/>
<stop offset="0.206731" stop-color="#2638FF"/>
<stop offset="0.769231" stop-color="#2638FF"/>
<stop offset="1" stop-color="#2638FF" stop-opacity="0"/>
</linearGradient>
<linearGradient id="paint3_linear_302_13588" x1="313.55" y1="156.488" x2="207.02" y2="341.003" gradientUnits="userSpaceOnUse">
<stop stop-color="#2638FF" stop-opacity="0"/>
<stop offset="0.206731" stop-color="#2638FF"/>
<stop offset="0.769231" stop-color="#2638FF"/>
<stop offset="1" stop-color="#2638FF" stop-opacity="0"/>
</linearGradient>
<linearGradient id="paint4_linear_302_13588" x1="98.6713" y1="148.355" x2="205.201" y2="332.871" gradientUnits="userSpaceOnUse">
<stop stop-color="#2638FF" stop-opacity="0"/>
<stop offset="0.206731" stop-color="#2638FF"/>
<stop offset="0.769231" stop-color="#2638FF"/>
<stop offset="1" stop-color="#2638FF" stop-opacity="0"/>
</linearGradient>
<linearGradient id="paint5_linear_302_13588" x1="155.259" y1="122.174" x2="261.789" y2="306.689" gradientUnits="userSpaceOnUse">
<stop stop-color="#2638FF" stop-opacity="0"/>
<stop offset="0.206731" stop-color="#2638FF"/>
<stop offset="0.769231" stop-color="#2638FF"/>
<stop offset="1" stop-color="#2638FF" stop-opacity="0"/>
</linearGradient>
</defs>
</svg>
