<svg width="32" height="33" viewBox="0 0 32 33" fill="none" xmlns="http://www.w3.org/2000/svg">
<path d="M29.6855 5.71826L27.3576 9.64555H19.8529V12.2637H25.5831C25.5864 12.3273 25.5402 12.379 25.5112 12.4326C24.9798 13.4087 24.3241 14.3289 23.7762 15.297H19.8529V21.9223L17.0532 26.3442V5.71826H29.6855Z" fill="#182BFF"/>
<path d="M15.4627 5.71826V26.3442L12.6627 21.8585V15.2332H8.73939L6.89758 12.3139L6.8673 12.1999H12.6138C12.6174 12.1999 12.6627 12.1555 12.6627 12.152V9.64555H5.15799C4.42901 8.47662 3.75962 7.27289 3.05147 6.09183C3.00199 6.00914 2.9271 5.83001 2.83008 5.81405V5.71826H15.4627Z" fill="#182BFF"/>
</svg>
