<svg width="24" height="24" viewBox="0 0 24 24" fill="none" xmlns="http://www.w3.org/2000/svg">
<path fill-rule="evenodd" clip-rule="evenodd" d="M1.94141 11.1596C1.94141 5.82964 6.26216 1.50888 11.5921 1.50888C16.922 1.50888 21.2428 5.82964 21.2428 11.1596C21.2428 16.4895 16.922 20.8103 11.5921 20.8103C6.26216 20.8103 1.94141 16.4895 1.94141 11.1596ZM18.3699 11.1596C18.3699 7.42807 15.2063 4.67027 11.5921 4.67027C7.97793 4.67027 4.8641 7.44647 4.8641 11.1596C4.8641 15.114 7.63763 18.3198 11.5921 18.3198C15.5466 18.3198 18.3699 15.114 18.3699 11.1596Z" fill="#CACACA"/>
<mask id="mask0_659_17528" style="mask-type:luminance" maskUnits="userSpaceOnUse" x="1" y="4" width="22" height="19">
<path fill-rule="evenodd" clip-rule="evenodd" d="M1.3457 14.7371L8.96263 9.21749L11.6098 11.9773L19.7473 4.00293L22.6531 11.1591L20.33 20.4931L9.58 22.4911L2.57825 18.3152L1.3457 14.7371Z" fill="#F2F4FB"/>
</mask>
<g mask="url(#mask0_659_17528)">
<path fill-rule="evenodd" clip-rule="evenodd" d="M1.95508 11.1591C1.95508 5.83219 6.27754 1.51392 11.6095 1.51392C16.9415 1.51392 21.264 5.83219 21.264 11.1591C21.264 16.486 16.9415 20.8043 11.6095 20.8043C6.27754 20.8043 1.95508 16.486 1.95508 11.1591ZM18.4141 11.1591C18.4141 7.54879 15.2954 4.75197 11.6095 4.63125C7.99143 4.63125 4.8928 7.35921 4.8928 11.3114C4.8928 15.2636 7.6535 18.1928 11.6095 18.1928C15.5655 18.1928 18.4141 15.1113 18.4141 11.1591Z" fill="#F2F4FB"/>
</g>
<path fill-rule="evenodd" clip-rule="evenodd" d="M2.64648 13.8657L8.98787 9.23865C9.00176 9.22856 9.01982 9.22628 9.03577 9.23269L12.3757 10.5788C12.3932 10.5859 12.4131 10.5824 12.4272 10.5699L18.5663 5.14142L20.1045 7.26925L12.4287 13.8447C12.4138 13.8574 12.3928 13.8603 12.3751 13.8519L9.03659 12.2729C9.02026 12.2652 9.00105 12.2668 8.9864 12.2774L3.73296 16.0391L2.64648 13.8657Z" fill="#F2F4FB"/>
</svg>
