<svg width="32" height="33" viewBox="0 0 32 33" fill="none" xmlns="http://www.w3.org/2000/svg">
<path d="M24.2583 26.4214C27.3118 23.9889 29.269 20.2386 29.269 16.0312C29.269 8.69859 23.3247 2.75439 15.9922 2.75439C9.53078 2.75439 4.14743 7.37011 2.95947 13.4841L12.7053 20.3229L14.0715 21.2706L21.9996 13.8888L22.8305 14.7292V10.7837H18.93L19.8183 11.6823L13.7463 17.2164L6.95494 12.4616C8.45076 8.72737 11.7235 6.25018 15.9922 6.25018C21.5926 6.25018 25.9621 10.4307 25.9621 16.0312C25.9621 18.2211 25.4386 20.2487 24.2583 21.9064V26.4214Z" fill="#676768"/>
<path d="M2.73096 16.668L13.4574 24.4323L17.0253 21.1674V29.211C16.4462 29.2881 16.5929 29.308 15.9927 29.308C8.87367 29.308 3.06325 23.7048 2.73096 16.668Z" fill="#131319"/>
<path d="M18.7681 29.0175V19.3017L22.3985 15.8662V27.6633C21.2774 28.282 20.0573 28.7433 18.7681 29.0175Z" fill="#131319"/>
</svg>
