<svg width="8" height="9" viewBox="0 0 8 9" fill="none" xmlns="http://www.w3.org/2000/svg">
<path d="M2.31382 2.16672C2.3137 2.43816 2.14902 2.68242 1.89744 2.78432C1.64586 2.88623 1.35762 2.82543 1.16863 2.6306C0.979635 2.43576 0.927642 2.1458 1.03716 1.89744C1.14668 1.64908 1.39584 1.49191 1.66715 1.50006C2.02751 1.51087 2.31398 1.8062 2.31382 2.16672ZM2.33382 3.32672H1.00049V7.50005H2.33382V3.32672ZM4.44049 3.32672H3.11382V7.50005H4.42716V5.31005C4.42716 4.09005 6.01716 3.97671 6.01716 5.31005V7.50005H7.33383V4.85671C7.33383 2.80006 4.98049 2.87672 4.42716 3.88671L4.44049 3.32672Z" fill="#F2F4FB"/>
</svg>
