<svg width="32" height="33" viewBox="0 0 32 33" fill="none" xmlns="http://www.w3.org/2000/svg">
<path d="M26.666 25.3889L27.1993 26.1C27.4203 26.3945 27.3605 26.8124 27.066 27.0333C26.9507 27.1198 26.8103 27.1666 26.666 27.1666H5.33268C4.9645 27.1666 4.66602 26.8681 4.66602 26.5C4.66602 26.3557 4.7128 26.2153 4.79935 26.1L5.33268 25.3889V13.8333C5.33268 7.94225 10.1083 3.16663 15.9993 3.16663C21.8904 3.16663 26.666 7.94225 26.666 13.8333V25.3889ZM12.666 28.5H19.3327C19.3327 30.3409 17.8403 31.8333 15.9993 31.8333C14.1584 31.8333 12.666 30.3409 12.666 28.5Z" fill="#182BFF"/>
</svg>
