<svg width="147" height="49" viewBox="0 0 147 49" fill="none" xmlns="http://www.w3.org/2000/svg">
<g clip-path="url(#clip0_19_5452)">
<path d="M33.366 26.3706L35.9066 25.0425V5.17018H33.9638L29.2313 11.368H28.6833L29.032 4.38316H49.5562L49.8551 11.368H49.3072L44.6245 5.17018H42.6318V24.9933L45.2222 26.3214V27.01H33.366V26.3706ZM51.8478 25.4852V3.44857L49.8551 2.66155V2.26804L57.0287 0.939941H57.8257V11.4172L57.9752 11.2696C59.7187 9.84312 61.8608 9.00691 64.1524 9.00691C67.2908 9.00691 68.6856 10.7777 68.6856 14.0242V25.4852L70.3794 26.3706V27.01H60.9641V26.3706L62.6579 25.4852V13.975C62.6579 12.155 61.8608 11.4664 60.3663 11.4664C59.4696 11.4664 58.573 11.7123 57.8755 12.2534V25.4852L59.5195 26.3706V27.01H50.1042V26.4198L51.8478 25.4852ZM75.5104 18.6971C75.7097 22.3371 77.3536 25.1408 81.2891 25.1408C83.1821 25.1408 84.5271 24.2554 85.7725 23.616V24.3538C84.0788 26.4198 81.5382 27.5511 78.8481 27.5511C72.7705 27.5511 69.6819 24.2063 69.6819 18.4512C69.6819 12.7944 73.0694 9.30204 78.5492 9.30204C83.7301 9.30204 86.3703 11.8599 86.3703 18.5495V18.6971H75.5104ZM75.4108 17.8609L80.7411 17.5166C80.7411 12.9912 79.9441 9.99069 78.3997 9.99069C76.706 10.0399 75.4108 13.5323 75.4108 17.8609ZM-0.0107422 35.8148C-0.0107422 26.223 6.41553 22.829 13.589 22.829C16.6278 22.829 19.5172 23.3209 21.1113 23.9603L21.2607 30.65H20.5633L16.3787 24.1571C15.5319 23.8127 14.6352 23.6652 13.7385 23.7144C9.95247 23.7144 7.95983 28.043 8.05946 35.1754C8.10928 43.685 9.65357 47.571 13.1407 47.571C13.8381 47.571 14.5854 47.4726 15.233 47.2266V38.1267L12.8418 36.8478V36.0608H24.0006V36.897L21.7091 38.1759V47.1774C19.019 48.112 16.1795 48.6039 13.2901 48.6039C5.17013 48.5547 -0.0107422 44.8164 -0.0107422 35.8148ZM22.9545 31.3386V30.7976L30.4269 29.4695L31.2737 29.5187V44.0785C31.2737 45.8493 32.1206 46.3904 33.5653 46.3904C34.5118 46.3904 35.4085 45.9969 36.0063 45.2591V32.224L33.914 31.3386V30.7484L41.3864 29.4695L42.1336 29.5187V46.2429L44.1761 47.0791V47.6201L36.8531 48.5055L36.1059 48.4564V46.2429H35.9066C34.4122 47.7185 32.4195 48.5055 30.2774 48.5547C26.6907 48.5547 25.0467 46.4396 25.0467 43.2915V32.224L22.9545 31.3386ZM69.931 29.4695L70.5288 29.5187V34.9294H70.6783C71.4753 30.9943 73.2189 29.5187 75.4108 29.5187C75.7097 29.5187 76.0584 29.5678 76.3573 29.6662V35.1262C75.8591 35.0278 75.3112 34.9786 74.813 34.9786C73.4181 34.9294 72.0233 35.2246 70.7281 35.7656V46.4396L72.4218 47.3742V48.1612H62.7077V47.4234L64.4512 46.4888V31.9289L62.4088 31.3386V30.8468L69.931 29.4695ZM88.7117 29.9122V24.2063L86.6692 23.5176V23.0749L94.2413 21.6976L94.9387 21.796V46.2429L97.031 46.9807V47.6201L89.5585 48.6039L88.9608 48.5547V46.538H88.8113C87.5161 47.8661 85.7227 48.6531 83.8297 48.6039C79.7448 48.6039 76.8056 45.5542 76.8056 39.258C76.8056 32.6175 80.2429 29.3711 85.4736 29.3711C86.5696 29.3219 87.6655 29.5187 88.7117 29.9122ZM88.7117 45.5542V30.9451C88.1637 30.4532 87.4165 30.2565 86.6692 30.3057C84.6268 30.3549 83.3814 33.4046 83.3814 38.7662C83.3814 43.5867 84.278 46.292 86.9681 46.1937C87.6157 46.1937 88.2135 45.9969 88.7117 45.5542ZM105.201 29.4695L105.848 29.5187V46.4888L107.542 47.4234V48.1612H97.828V47.4234L99.5716 46.4888V32.1749L97.4793 31.3386V30.7484L105.201 29.4695ZM105.898 24.8949C105.848 26.6657 104.354 28.043 102.561 27.9938C101.365 28.043 100.269 27.4527 99.6712 26.4689C99.0734 25.4852 99.0734 24.2554 99.6712 23.2225C100.269 22.2387 101.365 21.6484 102.561 21.6976C104.404 21.6484 105.898 23.0749 105.898 24.8949ZM127.718 46.4888V32.0273L125.675 31.3386V30.65L133.148 29.2727L133.895 29.3219V31.4862H134.094C135.887 30.0105 138.129 29.1743 140.471 29.1743C143.709 29.1743 145.153 30.6992 145.153 34.0932V46.4888L146.897 47.4726V48.1612H137.183V47.4234L138.926 46.4888V34.3883C138.926 32.5192 138.129 31.7813 136.585 31.7813C135.638 31.7322 134.742 32.0273 134.044 32.5684V46.4396L135.738 47.3742V48.1612H126.024V47.4234L127.718 46.4888ZM117.157 37.3889V34.9786C117.157 31.3386 116.36 30.1581 114.068 30.1581C113.819 30.1581 113.57 30.2073 113.271 30.2073L109.186 35.6673H108.638V30.65C110.83 29.9122 113.122 29.5187 115.463 29.4695C120.445 29.4695 123.334 30.8468 123.334 34.9294V46.7347L125.127 47.1774V47.6693C123.981 48.2596 122.736 48.5055 121.441 48.5055C119 48.5055 117.804 47.7185 117.256 46.3904H117.107C116.061 47.7677 114.566 48.5547 112.275 48.5547C109.336 48.5547 107.293 46.7347 107.293 43.5867C107.293 40.5369 109.236 38.8645 113.122 38.1267L117.157 37.3889ZM117.157 45.5542V38.2743L115.911 38.3726C113.968 38.5202 113.271 39.7499 113.271 42.5045C113.271 45.4558 114.267 46.2429 115.612 46.2429C116.21 46.2429 116.758 46.0461 117.157 45.5542ZM54.0895 37.3889V34.9786C54.0895 31.3386 53.2924 30.1581 51.0009 30.1581C50.7518 30.1581 50.5027 30.2073 50.2038 30.2073L46.1189 35.6673H45.571V30.65C47.7629 29.9122 50.0544 29.5187 52.3958 29.4695C57.3774 29.4695 60.2667 30.8468 60.2667 34.9294V46.7347L62.0601 47.1774V47.6693C60.9143 48.2596 59.6689 48.5055 58.3737 48.5055C55.9327 48.5055 54.7371 47.7185 54.1891 46.3904H54.0397C52.9936 47.7677 51.4991 48.5547 49.2075 48.5547C46.2684 48.5547 44.2259 46.7347 44.2259 43.5867C44.2259 40.5369 46.1189 38.8645 50.0544 38.1267L54.0895 37.3889ZM54.0895 45.5542V38.2743L52.8441 38.3726C50.9013 38.5202 50.2038 39.7499 50.2038 42.5045C50.2038 45.4558 51.2002 46.2429 52.5452 46.2429C53.0932 46.2429 53.691 46.0461 54.0895 45.5542Z" fill="#131319"/>
</g>
<defs>
<clipPath id="clip0_19_5452">
<rect width="147" height="48" fill="white" transform="translate(0 0.939941)"/>
</clipPath>
</defs>
</svg>
