<svg width="32" height="32" viewBox="0 0 32 32" fill="none" xmlns="http://www.w3.org/2000/svg">
<path d="M7.99742 2.66663C7.99742 3.35041 8.65075 3.99996 9.33075 3.99996H22.664C23.3479 3.99996 23.9973 3.34663 23.9973 2.66663H26.664C26.664 4.87576 24.8732 6.66663 22.664 6.66663H17.3307L17.332 9.41597C22.5932 10.0727 26.664 14.5609 26.664 20V28C26.664 28.7364 26.0671 29.3333 25.3307 29.3333H6.66408C5.9277 29.3333 5.33075 28.7364 5.33075 28V20C5.33075 14.5605 9.40236 10.0719 14.6642 9.41581L14.664 6.66663H9.33075C7.11742 6.66663 5.33075 4.87996 5.33075 2.66663H7.99742ZM15.9974 14.6666C13.0519 14.6666 10.6641 17.0545 10.6641 20C10.6641 22.9454 13.0519 25.3333 15.9974 25.3333C18.943 25.3333 21.3307 22.9454 21.3307 20C21.3307 19.0109 21.0615 18.0846 20.5923 17.2906L16.9403 20.9428L16.8146 21.0537C16.2916 21.4604 15.5352 21.4234 15.0546 20.9428C14.5339 20.4221 14.5339 19.5778 15.0546 19.0572L18.7067 15.405C17.9127 14.9358 16.9866 14.6666 15.9974 14.6666Z" fill="#131319"/>
</svg>
