<svg width="32" height="33" viewBox="0 0 32 33" fill="none" xmlns="http://www.w3.org/2000/svg">
<path d="M16.0072 3.16663C20.4255 3.16663 24.0072 6.74835 24.0072 11.1666V12.5H29.3405V15.1666H27.7845L26.7757 27.2773C26.7181 27.9684 26.1404 28.5 25.4469 28.5H6.56735C5.87389 28.5 5.2962 27.9684 5.23861 27.2773L4.22849 15.1666H2.67383V12.5H8.00716V11.1666C8.00716 6.74835 11.5889 3.16663 16.0072 3.16663ZM17.3405 17.8333H14.6739V23.1666H17.3405V17.8333ZM12.0072 17.8333H9.34049V23.1666H12.0072V17.8333ZM22.6739 17.8333H20.0072V23.1666H22.6739V17.8333ZM16.0072 5.83329C13.1509 5.83329 10.8191 8.07859 10.6804 10.9004L10.6738 11.1666V12.5H21.3405V11.1666C21.3405 8.31036 19.0952 5.97852 16.2733 5.83983L16.0072 5.83329Z" fill="#182BFF"/>
</svg>
