<svg width="33" height="32" viewBox="0 0 33 32" fill="none" xmlns="http://www.w3.org/2000/svg">
<path d="M8.16602 5.33329V10.6666H24.166V5.33329H26.8415C27.5729 5.33329 28.166 5.92656 28.166 6.65783V28.0088C28.166 28.7402 27.5728 29.3333 26.8415 29.3333H5.49055C4.75903 29.3333 4.16602 28.7401 4.16602 28.0088V6.65783C4.16602 5.92631 4.75928 5.33329 5.49055 5.33329H8.16602ZM12.166 22.6666H9.49935V25.3333H12.166V22.6666ZM12.166 18.6666H9.49935V21.3333H12.166V18.6666ZM12.166 14.6666H9.49935V17.3333H12.166V14.6666ZM21.4993 2.66663V7.99996H10.8327V2.66663H21.4993Z" fill="#131319"/>
</svg>
