<svg width="32" height="32" viewBox="0 0 32 32" fill="none" xmlns="http://www.w3.org/2000/svg">
<path d="M17.3333 13.3333V18.6667H25.3333V13.3333H17.3333ZM14.6667 13.3333H6.66667V18.6667H14.6667V13.3333ZM17.3333 25.3333H25.3333V21.3333H17.3333V25.3333ZM14.6667 25.3333V21.3333H6.66667V25.3333H14.6667ZM17.3333 6.66667V10.6667H25.3333V6.66667H17.3333ZM14.6667 6.66667H6.66667V10.6667H14.6667V6.66667ZM5.33333 4H26.6667C27.4031 4 28 4.59696 28 5.33333V26.6667C28 27.4031 27.4031 28 26.6667 28H5.33333C4.59696 28 4 27.4031 4 26.6667V5.33333C4 4.59696 4.59696 4 5.33333 4Z" fill="#182BFF"/>
</svg>
