<?xml version="1.0" encoding="UTF-8"?><svg version="1.1" width="64px" height="64px" viewBox="0 0 64.0 64.0" xmlns="http://www.w3.org/2000/svg" xmlns:xlink="http://www.w3.org/1999/xlink"><defs><clipPath id="i0"><path d="M32,0 C49.673112,0 64,14.326888 64,32 C64,49.673112 49.673112,64 32,64 C14.326888,64 0,49.673112 0,32 C0,14.326888 14.326888,0 32,0 Z"></path></clipPath><clipPath id="i1"><path d="M103.68,0 L103.68,72 L0,72 L0,0 L103.68,0 Z"></path></clipPath><linearGradient id="i2" x1="103.68px" y1="3.58975364px" x2="6.90647539e-14px" y2="76.2927252px" gradientUnits="userSpaceOnUse"><stop stop-color="#B8ABFF" offset="0%"></stop><stop stop-color="#879EF5" offset="100%"></stop></linearGradient><clipPath id="i3"><path d="M9.5,0 C14.7467051,-9.63804095e-16 19,4.25329488 19,9.5 L19,17 C19,19.7614237 16.7614237,22 14,22 L5,22 C2.23857625,22 3.38176876e-16,19.7614237 0,17 L0,9.5 C-6.42536064e-16,4.25329488 4.25329488,9.63804095e-16 9.5,0 Z"></path></clipPath><clipPath id="i4"><path d="M24,0 C37.254834,-2.4348735e-15 48,10.745166 48,24 L48,35 L0,35 L0,24 C-1.623249e-15,10.745166 10.745166,2.4348735e-15 24,0 Z"></path></clipPath><linearGradient id="i5" x1="25.9322838px" y1="52.5637195px" x2="25.9322838px" y2="15.6474942px" gradientUnits="userSpaceOnUse"><stop stop-color="#A5A6FB" offset="0%"></stop><stop stop-color="#FFFFFF" offset="100%"></stop></linearGradient></defs><g clip-path="url(#i0)"><polygon points="0,0 64,0 64,64 0,64 0,0" stroke="none" fill="#ECF0FE"></polygon><g transform="translate(-16.91999999999993 -2.0)"><g clip-path="url(#i1)"><polygon points="16.92,2 80.92,2 80.92,66 16.92,66 16.92,2" stroke="none" fill="url(#i2)" opacity="89.9999976%"></polygon></g></g><g transform="translate(23.0 9.0)"><g clip-path="url(#i3)"><polygon points="0,0 19,0 19,22 0,22 0,0" stroke="none" fill="#FFFFFF"></polygon></g></g><g transform="translate(8.0 34.0)"><g clip-path="url(#i4)"><polygon points="0,0 48,0 48,30 0,30 0,0" stroke="none" fill="#FFFFFF"></polygon></g><g clip-path="url(#i4)"><polygon points="0,0 48,0 48,30 0,30 0,0" stroke="none" fill="url(#i5)"></polygon></g></g></g></svg>