<svg width="27" height="22" viewBox="0 0 27 22" fill="none" xmlns="http://www.w3.org/2000/svg">
<path d="M1.50716 0.33728H25.5072C26.2436 0.33728 26.8405 0.934227 26.8405 1.67061V20.3372C26.8405 21.0736 26.2436 21.6706 25.5072 21.6706H1.50716C0.770788 21.6706 0.173828 21.0736 0.173828 20.3372V1.67061C0.173828 0.934227 0.770788 0.33728 1.50716 0.33728ZM6.16781 3.00004H2.83448V6.33337C4.67543 6.33337 6.16781 4.84099 6.16781 3.00004ZM20.8345 3.00004C20.8345 4.84099 22.3269 6.33337 24.1679 6.33337V3.00004H20.8345ZM2.83448 15.6667V19H6.16781C6.16781 17.1591 4.67543 15.6667 2.83448 15.6667ZM20.8345 19H24.1679V15.6667C22.3269 15.6667 20.8345 17.1591 20.8345 19ZM13.5012 16.3334C16.4467 16.3334 18.8345 13.9455 18.8345 11C18.8345 8.05452 16.4467 5.66671 13.5012 5.66671C10.5556 5.66671 8.16781 8.05452 8.16781 11C8.16781 13.9455 10.5556 16.3334 13.5012 16.3334Z" fill="#131319"/>
</svg>
