<svg width="27" height="21" viewBox="0 0 27 21" fill="none" xmlns="http://www.w3.org/2000/svg">
<path d="M26.8549 0L24.527 3.92729H17.0223V6.54548H22.7526C22.7558 6.60902 22.7096 6.66074 22.6806 6.71438C22.1493 7.69046 21.4936 8.61066 20.9456 9.57875H17.0223V16.204L14.2227 20.6259V0H26.8549Z" fill="#131319"/>
<path d="M12.6326 0V20.6259L9.83258 16.1402V9.51489H5.90932L4.0675 6.59561L4.03722 6.48162H9.78374C9.78732 6.48162 9.83258 6.43724 9.83258 6.43373V3.92729H2.32791C1.59893 2.75836 0.929537 1.55463 0.221396 0.373571C0.171907 0.290875 0.0970235 0.111752 0 0.0957875V0H12.6326Z" fill="#131319"/>
</svg>
