<svg width="27" height="27" viewBox="0 0 27 27" fill="none" xmlns="http://www.w3.org/2000/svg">
<path d="M21.5273 23.667C24.5809 21.2345 26.538 17.4842 26.538 13.2768C26.538 5.94419 20.5938 0 13.2612 0C6.79983 0 1.41647 4.61572 0.228516 10.7298L9.97435 17.5685L11.3406 18.5162L19.2686 11.1344L20.0995 11.9748V8.02929H16.199L17.0873 8.92791L11.0153 14.462L4.22398 9.70724C5.7198 5.97297 8.99257 3.49578 13.2612 3.49578C18.8617 3.49578 23.2311 7.67635 23.2311 13.2768C23.2311 15.4667 22.7076 17.4944 21.5273 19.152V23.667Z" fill="#666666"/>
<path d="M0 13.9136L10.7264 21.6779L14.2943 18.413V26.4566C13.7152 26.5337 13.862 26.5536 13.2618 26.5536C6.14271 26.5536 0.332292 20.9504 0 13.9136Z" fill="#131319"/>
<path d="M16.0371 26.2631V16.5473L19.6676 13.1118V24.9089C18.5465 25.5276 17.3264 25.9889 16.0371 26.2631Z" fill="#131319"/>
</svg>
