<svg width="29" height="28" viewBox="0 0 29 28" fill="none" xmlns="http://www.w3.org/2000/svg">
<path fill-rule="evenodd" clip-rule="evenodd" d="M0.794922 12.8676C0.794922 5.76101 6.55592 0 13.6625 0C20.7691 0 26.5301 5.76101 26.5301 12.8676C26.5301 19.9742 20.7691 25.7352 13.6625 25.7352C6.55592 25.7352 0.794922 19.9742 0.794922 12.8676ZM22.6996 12.8676C22.6996 7.89225 18.4815 4.21519 13.6625 4.21519C8.84362 4.21519 4.69184 7.91678 4.69184 12.8676C4.69184 18.1402 8.38989 22.4145 13.6625 22.4145C18.9351 22.4145 22.6996 18.1402 22.6996 12.8676Z" fill="#666666"/>
<mask id="mask0_3158_7503" style="mask-type:luminance" maskUnits="userSpaceOnUse" x="0" y="3" width="29" height="25">
<path fill-rule="evenodd" clip-rule="evenodd" d="M0 17.6377L10.1559 10.2782L13.6855 13.9579L24.5355 3.32544L28.4099 12.867L25.3124 25.3123L10.9791 27.9763L1.64339 22.4084L0 17.6377Z" fill="white"/>
</mask>
<g mask="url(#mask0_3158_7503)">
<path fill-rule="evenodd" clip-rule="evenodd" d="M0.8125 12.867C0.8125 5.76441 6.57579 0.00671387 13.6851 0.00671387C20.7944 0.00671387 26.5577 5.76441 26.5577 12.867C26.5577 19.9695 20.7944 25.7272 13.6851 25.7272C6.57579 25.7272 0.8125 19.9695 0.8125 12.867ZM22.7579 12.867C22.7579 8.05322 18.5995 4.32412 13.6851 4.16315C8.86097 4.16315 4.72946 7.80044 4.72946 13.0701C4.72946 18.3397 8.4104 22.2452 13.6851 22.2452C18.9598 22.2452 22.7579 18.1366 22.7579 12.867Z" fill="#131319"/>
</g>
<path fill-rule="evenodd" clip-rule="evenodd" d="M1.73438 16.4757L10.1896 10.3064C10.2081 10.2929 10.2322 10.2899 10.2534 10.2984L14.7067 12.0932C14.73 12.1026 14.7565 12.098 14.7753 12.0814L22.9608 4.84338L25.0118 7.68049L14.7773 16.4478C14.7575 16.4648 14.7295 16.4685 14.7058 16.4574L10.2545 14.352C10.2327 14.3417 10.2071 14.344 10.1876 14.358L3.18301 19.3737L1.73438 16.4757Z" fill="#131319"/>
</svg>
