<svg width="32" height="32" viewBox="0 0 32 32" fill="none" xmlns="http://www.w3.org/2000/svg">
<path d="M14.6726 2.66675L24.4036 5.70769C24.9602 5.88164 25.3392 6.39716 25.3392 6.98033V9.33341H28.0059C28.7423 9.33341 29.3392 9.93037 29.3392 10.6667V13.3334H12.0059V10.6667C12.0059 9.93037 12.6028 9.33341 13.3392 9.33341H22.6726V7.96008L14.6726 5.45875L6.67253 7.96008V17.8326C6.67253 19.4925 7.44477 21.0513 8.75041 22.0571L9.00141 22.2391L14.6726 26.1054L19.7152 22.6667H13.3392C12.6028 22.6667 12.0059 22.0698 12.0059 21.3334V16.0001H29.3392V21.3334C29.3392 22.0698 28.7423 22.6667 28.0059 22.6667L23.7124 22.6682C23.197 23.3478 22.5695 23.9491 21.8459 24.4425L14.6726 29.3334L7.49917 24.4425C5.31353 22.9522 4.00586 20.4779 4.00586 17.8326V6.98033C4.00586 6.39716 4.38486 5.88164 4.9415 5.70769L14.6726 2.66675Z" fill="#182BFF"/>
</svg>
