<svg width="32" height="32" viewBox="0 0 32 32" fill="none" xmlns="http://www.w3.org/2000/svg">
<path d="M21.3327 1.33325C22.0691 1.33325 22.666 1.93021 22.666 2.66659V3.99992H29.3327V11.9999H26.6411L30.3022 22.0585C30.5371 22.6597 30.666 23.3141 30.666 23.9986C30.666 26.9442 28.2781 29.3319 25.3327 29.3319C22.848 29.3319 20.7603 27.6329 20.1677 25.3333H14.498C13.9059 27.6335 11.8178 29.3333 9.33268 29.3333C6.74003 29.3333 4.57946 27.4833 4.099 25.0314C3.2473 24.5861 2.66602 23.6942 2.66602 22.6666V9.33325C2.66602 8.59688 3.26298 7.99992 3.99935 7.99992H13.3327C14.0691 7.99992 14.666 8.59688 14.666 9.33325V15.9999C14.666 16.7363 15.2629 17.3333 15.9993 17.3333H18.666C19.4024 17.3333 19.9993 16.7363 19.9993 15.9999V3.99992H15.9993V1.33325H21.3327ZM9.33268 21.3333C7.85992 21.3333 6.66602 22.5271 6.66602 23.9999C6.66602 25.4727 7.85992 26.6666 9.33268 26.6666C10.8054 26.6666 11.9993 25.4727 11.9993 23.9999C11.9993 22.5271 10.8054 21.3333 9.33268 21.3333ZM25.3327 21.3319C23.8599 21.3319 22.666 22.5258 22.666 23.9986C22.666 25.4714 23.8599 26.6653 25.3327 26.6653C26.8055 26.6653 27.9993 25.4714 27.9993 23.9986C27.9993 23.6782 27.9428 23.3709 27.8392 23.0863L27.8174 23.0285C27.4294 22.0354 26.4632 21.3319 25.3327 21.3319ZM23.8034 11.9999H22.666V15.9999C22.666 18.2091 20.8752 19.9999 18.666 19.9999H15.9993C13.7901 19.9999 11.9993 18.2091 11.9993 15.9999H5.33268V20.4722C6.30994 19.365 7.73976 18.6666 9.33268 18.6666C11.8178 18.6666 13.9059 20.3663 14.498 22.6666H20.1671C20.7587 20.3657 22.8471 18.6653 25.3327 18.6653C25.6484 18.6653 25.9577 18.6927 26.2584 18.7454L23.8034 11.9999ZM11.9993 10.6666H5.33268V13.3333H11.9993V10.6666ZM26.666 6.66659H22.666V9.33325H26.666V6.66659Z" fill="#182BFF"/>
</svg>
