<svg width="32" height="32" viewBox="0 0 32 32" fill="none" xmlns="http://www.w3.org/2000/svg">
<path d="M9.33268 6.66634V2.66634C9.33268 1.92997 9.92964 1.33301 10.666 1.33301H21.3327C22.0691 1.33301 22.666 1.92997 22.666 2.66634V6.66634H27.9993C28.7357 6.66634 29.3327 7.2633 29.3327 7.99967V26.6663C29.3327 27.4027 28.7357 27.9997 27.9993 27.9997H3.99935C3.26298 27.9997 2.66602 27.4027 2.66602 26.6663V7.99967C2.66602 7.2633 3.26298 6.66634 3.99935 6.66634H9.33268ZM5.33268 21.333V25.333H26.666V21.333H5.33268ZM5.33268 18.6663H26.666V9.33301H5.33268V18.6663ZM11.9993 3.99967V6.66634H19.9993V3.99967H11.9993ZM14.666 14.6663H17.3327V17.333H14.666V14.6663Z" fill="#182BFF"/>
</svg>
