<svg width="32" height="32" viewBox="0 0 32 32" fill="none" xmlns="http://www.w3.org/2000/svg">
<g clip-path="url(#clip0_2121_16248)">
<path d="M8.71203 4H27.9984C28.7348 4 29.3317 4.59696 29.3317 5.33333V26.6667C29.3317 27.4031 28.7348 28 27.9984 28H8.71203C8.26622 28 7.84991 27.7772 7.60263 27.4063L0.491511 16.7396C0.192934 16.2917 0.192934 15.7083 0.491511 15.2604L7.60263 4.59373C7.84991 4.2228 8.26622 4 8.71203 4ZM9.4256 6.66667L3.20337 16L9.4256 25.3333H26.6651V6.66667H9.4256ZM17.3317 14.1144L21.1029 10.3431L22.9887 12.2288L19.2174 16L22.9887 19.7712L21.1029 21.6568L17.3317 17.8856L13.5605 21.6568L11.6749 19.7712L15.4461 16L11.6749 12.2288L13.5605 10.3431L17.3317 14.1144Z" fill="#182BFF"/>
</g>
<defs>
<clipPath id="clip0_2121_16248">
<rect width="32" height="32" fill="white"/>
</clipPath>
</defs>
</svg>
