<svg width="32" height="32" viewBox="0 0 32 32" fill="none" xmlns="http://www.w3.org/2000/svg">
<path d="M21.3327 1.33398C22.0691 1.33398 22.666 1.93094 22.666 2.66732V4.00065H29.3327V12.0007H26.6411L30.3022 22.0592C30.5371 22.6604 30.666 23.3148 30.666 23.9993C30.666 26.9449 28.2781 29.3327 25.3327 29.3327C22.848 29.3327 20.7603 27.6336 20.1677 25.334H14.498C13.9059 27.6343 11.8178 29.334 9.33268 29.334C6.74003 29.334 4.57946 27.484 4.099 25.0321C3.2473 24.5868 2.66602 23.6949 2.66602 22.6673V9.33398C2.66602 8.59761 3.26298 8.00065 3.99935 8.00065H13.3327C14.0691 8.00065 14.666 8.59761 14.666 9.33398V16.0007C14.666 16.7371 15.2629 17.334 15.9993 17.334H18.666C19.4024 17.334 19.9993 16.7371 19.9993 16.0007V4.00065H15.9993V1.33398H21.3327ZM9.33268 21.334C7.85992 21.334 6.66602 22.5279 6.66602 24.0007C6.66602 25.4735 7.85992 26.6673 9.33268 26.6673C10.8054 26.6673 11.9993 25.4735 11.9993 24.0007C11.9993 22.5279 10.8054 21.334 9.33268 21.334ZM25.3327 21.3327C23.8599 21.3327 22.666 22.5265 22.666 23.9993C22.666 25.4721 23.8599 26.666 25.3327 26.666C26.8055 26.666 27.9993 25.4721 27.9993 23.9993C27.9993 23.6789 27.9428 23.3716 27.8392 23.0871L27.8174 23.0292C27.4294 22.0361 26.4632 21.3327 25.3327 21.3327ZM23.8034 12.0007H22.666V16.0007C22.666 18.2099 20.8752 20.0007 18.666 20.0007H15.9993C13.7901 20.0007 11.9993 18.2099 11.9993 16.0007H5.33268V20.4729C6.30994 19.3657 7.73976 18.6673 9.33268 18.6673C11.8178 18.6673 13.9059 20.3671 14.498 22.6673H20.1671C20.7587 20.3664 22.8471 18.666 25.3327 18.666C25.6484 18.666 25.9577 18.6935 26.2584 18.7461L23.8034 12.0007ZM11.9993 10.6673H5.33268V13.334H11.9993V10.6673ZM26.666 6.66732H22.666V9.33398H26.666V6.66732Z" fill="#182BFF"/>
</svg>
