<svg width="32" height="32" viewBox="0 0 32 32" fill="none" xmlns="http://www.w3.org/2000/svg">
<path d="M7.17176 6.01836C9.52417 3.93541 12.618 2.6709 16.0072 2.6709C23.3709 2.6709 29.3405 8.64043 29.3405 16.0042C29.3405 18.8375 28.4568 21.4643 26.95 23.6242L23.3405 16.0042H26.6739C26.6739 10.1132 21.8983 5.33757 16.0072 5.33757C13.0148 5.33757 10.3102 6.56978 8.37308 8.5545L7.17176 6.01836ZM24.8425 25.9901C22.4901 28.073 19.3964 29.3375 16.0072 29.3375C8.64337 29.3375 2.67383 23.3681 2.67383 16.0042C2.67383 13.171 3.55755 10.5441 5.06436 8.38425L8.67383 16.0042H5.34049C5.34049 21.8953 10.1161 26.6709 16.0072 26.6709C18.9996 26.6709 21.7041 25.4387 23.6412 23.4539L24.8425 25.9901ZM11.3405 18.6709H18.6739C19.042 18.6709 19.3405 18.3725 19.3405 18.0042C19.3405 17.6361 19.042 17.3375 18.6739 17.3375H13.3405C11.4995 17.3375 10.0072 15.8451 10.0072 14.0042C10.0072 12.1633 11.4995 10.6709 13.3405 10.6709H14.6739V9.33757H17.3405V10.6709H20.6739V13.3375H13.3405C12.9723 13.3375 12.6738 13.6361 12.6738 14.0042C12.6738 14.3725 12.9723 14.6709 13.3405 14.6709H18.6739C20.5148 14.6709 22.0072 16.1633 22.0072 18.0042C22.0072 19.8451 20.5148 21.3375 18.6739 21.3375H17.3405V22.6709H14.6739V21.3375H11.3405V18.6709Z" fill="#182BFF"/>
</svg>
