<svg width="32" height="32" viewBox="0 0 32 32" fill="none" xmlns="http://www.w3.org/2000/svg">
<path d="M22.666 16.0003C22.666 11.582 19.6813 8.00033 15.9993 8.00033C12.3174 8.00033 9.33268 11.582 9.33268 16.0003C9.33268 20.4186 12.3174 24.0003 15.9993 24.0003C19.6813 24.0003 22.666 20.4186 22.666 16.0003ZM14.3499 20.8605L19.0998 12.6302C19.6621 13.5489 19.9993 14.7221 19.9993 16.0003C19.9993 18.9458 18.2085 21.3337 15.9993 21.3337C15.4113 21.3337 14.8528 21.1643 14.3499 20.8605ZM11.9993 16.0003C11.9993 13.0548 13.7901 10.667 15.9993 10.667C16.5873 10.667 17.1459 10.8363 17.6488 11.1401L12.8989 19.3705C12.3366 18.4518 11.9993 17.2786 11.9993 16.0003ZM15.9993 2.66699C12.3192 2.66699 8.98422 4.16211 6.57275 6.57373C4.16114 8.98519 2.66602 12.3202 2.66602 16.0003C2.66602 19.6805 4.16114 23.0155 6.57275 25.4269C8.98422 27.8386 12.3192 29.3337 15.9993 29.3337C19.6795 29.3337 23.0145 27.8386 25.4259 25.4269C27.8376 23.0155 29.3327 19.6805 29.3327 16.0003C29.3327 12.3202 27.8376 8.98519 25.4259 6.57373C23.0145 4.16211 19.6795 2.66699 15.9993 2.66699ZM8.45834 8.45931C10.3908 6.52686 13.0557 5.33366 15.9993 5.33366C18.9431 5.33366 21.6079 6.52686 23.5404 8.45931C25.4728 10.3918 26.666 13.0566 26.666 16.0003C26.666 18.9441 25.4728 21.6089 23.5404 23.5414C21.6079 25.4738 18.9431 26.667 15.9993 26.667C13.0557 26.667 10.3908 25.4738 8.45834 23.5414C6.52588 21.6089 5.33268 18.9441 5.33268 16.0003C5.33268 13.0566 6.52588 10.3918 8.45834 8.45931Z" fill="#182BFF"/>
</svg>
