<svg width="32" height="32" viewBox="0 0 32 32" fill="none" xmlns="http://www.w3.org/2000/svg">
<path d="M4.00586 9.3334L15.2663 1.82647C15.7142 1.5279 16.2976 1.5279 16.7455 1.82647L28.0059 9.3334V28.0001C28.0059 28.7365 27.409 29.3334 26.6726 29.3334H5.33919C4.60282 29.3334 4.00586 28.7365 4.00586 28.0001V9.3334ZM6.67253 10.7606V26.6667H25.3392V10.7606L16.0059 4.53834L6.67253 10.7606ZM10.6725 21.3334H21.3392V24.0001H10.6725V21.3334ZM10.6725 17.3334H21.3392V20.0001H10.6725V17.3334ZM16.0059 14.6667C14.5331 14.6667 13.3392 13.4729 13.3392 12.0001C13.3392 10.5273 14.5331 9.3334 16.0059 9.3334C17.4787 9.3334 18.6726 10.5273 18.6726 12.0001C18.6726 13.4729 17.4787 14.6667 16.0059 14.6667Z" fill="#182BFF"/>
</svg>
