<svg width="32" height="32" viewBox="0 0 32 32" fill="none" xmlns="http://www.w3.org/2000/svg">
<path d="M14.6726 2.66602L24.4036 5.70696C24.9602 5.88091 25.3392 6.39643 25.3392 6.9796V9.33268H28.0059C28.7423 9.33268 29.3392 9.92964 29.3392 10.666V13.3327H12.0059V10.666C12.0059 9.92964 12.6028 9.33268 13.3392 9.33268H22.6726V7.95935L14.6726 5.45802L6.67253 7.95935V17.8319C6.67253 19.4917 7.44477 21.0506 8.75041 22.0564L9.00141 22.2384L14.6726 26.1047L19.7152 22.666H13.3392C12.6028 22.666 12.0059 22.0691 12.0059 21.3327V15.9993H29.3392V21.3327C29.3392 22.0691 28.7423 22.666 28.0059 22.666L23.7124 22.6675C23.197 23.3471 22.5695 23.9484 21.8459 24.4417L14.6726 29.3327L7.49917 24.4417C5.31353 22.9515 4.00586 20.4772 4.00586 17.8319V6.9796C4.00586 6.39643 4.38486 5.88091 4.9415 5.70696L14.6726 2.66602Z" fill="#182BFF"/>
</svg>
