<svg width="32" height="32" viewBox="0 0 32 32" fill="none" xmlns="http://www.w3.org/2000/svg">
<path d="M15.9993 29.3327C8.63555 29.3327 2.66602 23.3631 2.66602 15.9993C2.66602 8.63555 8.63555 2.66602 15.9993 2.66602C23.3631 2.66602 29.3327 8.63555 29.3327 15.9993C29.3327 23.3631 23.3631 29.3327 15.9993 29.3327ZM15.9993 26.666C21.8904 26.666 26.666 21.8904 26.666 15.9993C26.666 10.1083 21.8904 5.33268 15.9993 5.33268C10.1083 5.33268 5.33268 10.1083 5.33268 15.9993C5.33268 21.8904 10.1083 26.666 15.9993 26.666ZM11.3635 9.4779L22.5208 20.6352C22.2656 20.9932 21.9775 21.3349 21.6561 21.6561C21.3349 21.9775 20.9932 22.2656 20.6352 22.5208L9.4779 11.3635C9.73307 11.0055 10.0213 10.6637 10.3425 10.3425C10.6637 10.0213 11.0055 9.73307 11.3635 9.4779Z" fill="#182BFF"/>
</svg>
