<svg width="32" height="32" viewBox="0 0 32 32" fill="none" xmlns="http://www.w3.org/2000/svg">
<path d="M4.00716 4.00391H28.0072C28.7436 4.00391 29.3405 4.60085 29.3405 5.33724V26.6705C29.3405 27.4069 28.7436 28.0039 28.0072 28.0039H4.00716C3.27079 28.0039 2.67383 27.4069 2.67383 26.6705V5.33724C2.67383 4.60085 3.27079 4.00391 4.00716 4.00391ZM5.34049 6.67057V25.3372H26.6739V6.67057H5.34049ZM11.3405 18.6705H18.6739C19.042 18.6705 19.3405 18.3721 19.3405 18.0039C19.3405 17.6357 19.042 17.3372 18.6739 17.3372H13.3405C11.4995 17.3372 10.0072 15.8448 10.0072 14.0039C10.0072 12.163 11.4995 10.6706 13.3405 10.6706H14.6739V8.00391H17.3405V10.6706H20.6739V13.3372H13.3405C12.9723 13.3372 12.6738 13.6357 12.6738 14.0039C12.6738 14.3721 12.9723 14.6705 13.3405 14.6705H18.6739C20.5148 14.6705 22.0072 16.1629 22.0072 18.0039C22.0072 19.8448 20.5148 21.3372 18.6739 21.3372H17.3405V24.0039H14.6739V21.3372H11.3405V18.6705Z" fill="#182BFF"/>
</svg>
