<svg width="32" height="32" viewBox="0 0 32 32" fill="none" xmlns="http://www.w3.org/2000/svg">
<path d="M5.34049 6.67057V25.3372H26.6739V6.67057H5.34049ZM4.00716 4.00391H28.0072C28.7436 4.00391 29.3405 4.60085 29.3405 5.33724V26.6705C29.3405 27.4069 28.7436 28.0039 28.0072 28.0039H4.00716C3.27079 28.0039 2.67383 27.4069 2.67383 26.6705V5.33724C2.67383 4.60085 3.27079 4.00391 4.00716 4.00391ZM19.7311 13.0611L17.3405 10.6706H24.0072V17.3372L21.6167 14.9467L16.4647 20.0987L13.6363 17.2703L9.86503 21.0415L7.97941 19.1559L13.6363 13.4991L16.4647 16.3275L19.7311 13.0611Z" fill="#182BFF"/>
</svg>
