<svg width="32" height="32" viewBox="0 0 32 32" fill="none" xmlns="http://www.w3.org/2000/svg">
<path d="M9.40109 18.8289L6.57265 21.6573L10.3439 25.4285L25.4288 10.3436L21.6576 6.57233L18.8292 9.40077L20.7148 11.2864L18.8292 13.172L16.9436 11.2864L15.058 13.172L16.9436 15.0577L15.058 16.9433L13.1723 15.0577L11.2867 16.9433L13.1723 18.8289L11.2867 20.7145L9.40109 18.8289ZM22.6004 3.7439L28.2573 9.40077C28.778 9.92146 28.778 10.7657 28.2573 11.2864L11.2867 28.257C10.766 28.7777 9.92178 28.7777 9.40109 28.257L3.74422 22.6001C3.22353 22.0794 3.22353 21.2351 3.74422 20.7145L20.7148 3.7439C21.2354 3.22321 22.0797 3.22321 22.6004 3.7439ZM18.8292 24.485L20.7148 22.5994L23.7048 25.5894H25.5904V23.7038L22.6004 20.7138L24.486 18.8282L28.0002 22.3425V28.0002H22.3444L18.8292 24.485ZM7.51528 13.1712L3.74404 9.39991C3.22334 8.87922 3.22334 8.03501 3.74404 7.5143L7.51528 3.74306C8.03597 3.22237 8.8802 3.22237 9.40089 3.74306L13.1721 7.5143L11.2865 9.39991L8.45809 6.57149L6.57246 8.45711L9.40089 11.2855L7.51528 13.1712Z" fill="#182BFF"/>
</svg>
