<svg width="32" height="32" viewBox="0 0 32 32" fill="none" xmlns="http://www.w3.org/2000/svg">
<path d="M7.56104 5.67639L17.8849 16.0003L15.9993 17.8859L7.57287 9.45947C6.16879 11.2657 5.33268 13.5354 5.33268 16.0003C5.33268 21.8914 10.1083 26.667 15.9993 26.667C21.8904 26.667 26.666 21.8914 26.666 16.0003C26.666 10.1093 21.8904 5.33366 15.9993 5.33366C14.7791 5.33366 13.6065 5.53858 12.5146 5.91589L10.465 3.86629C12.1507 3.09615 14.0249 2.66699 15.9993 2.66699C23.3631 2.66699 29.3327 8.63653 29.3327 16.0003C29.3327 23.3641 23.3631 29.3337 15.9993 29.3337C8.63555 29.3337 2.66602 23.3641 2.66602 16.0003C2.66602 11.8382 4.57307 8.12154 7.56104 5.67639Z" fill="#182BFF"/>
</svg>
