<svg width="32" height="32" viewBox="0 0 32 32" fill="none" xmlns="http://www.w3.org/2000/svg">
<path d="M16.0002 21.332C18.9457 21.332 21.3335 18.9442 21.3335 15.9987C21.3335 13.0532 18.9457 10.6654 16.0002 10.6654C13.0547 10.6654 10.6668 13.0532 10.6668 15.9987C10.6668 18.9442 13.0547 21.332 16.0002 21.332ZM28.0062 5.33594H4.00618C3.26981 5.33594 2.67285 5.93288 2.67285 6.66927V25.3359C2.67285 26.0723 3.26981 26.6692 4.00618 26.6692H28.0062C28.7426 26.6692 29.3395 26.0723 29.3395 25.3359V6.66927C29.3395 5.93288 28.7426 5.33594 28.0062 5.33594ZM5.33952 20.8604V11.137C6.84054 10.688 8.02416 9.50392 8.47241 8.0026H23.5279C23.9774 9.50794 25.1661 10.6944 26.6729 11.1406V20.8568C25.1635 21.3038 23.9733 22.4935 23.5255 24.0026H8.47474C8.02826 22.4976 6.84316 21.3102 5.33952 20.8604Z" fill="#182BFF"/>
</svg>
