<svg width="32" height="32" viewBox="0 0 32 32" fill="none" xmlns="http://www.w3.org/2000/svg">
<path d="M8.00065 28.6673C5.42332 28.6673 3.33398 26.578 3.33398 24.0007C3.33398 21.4233 5.42332 19.334 8.00065 19.334C10.1143 19.334 11.8997 20.7391 12.4737 22.6661L20.0007 22.6664V20.0007L22.6673 19.9997V12.3251L19.6766 9.33308H12.0007V12.0006H4.00065V4.0006H12.0007V6.66642H19.6766L24.0007 2.34375L29.6574 8.0006L25.334 12.3224V19.9997L28.0007 20.0007V28.0007H20.0007V25.3331L12.474 25.3343C11.9002 27.2617 10.1146 28.6673 8.00065 28.6673ZM8.00065 22.0007C6.89608 22.0007 6.00065 22.896 6.00065 24.0007C6.00065 25.1052 6.89608 26.0007 8.00065 26.0007C9.10522 26.0007 10.0007 25.1052 10.0007 24.0007C10.0007 22.896 9.10522 22.0007 8.00065 22.0007ZM25.334 22.6673H22.6673V25.334H25.334V22.6673ZM24.0007 6.11499L22.115 8.0006L24.0007 9.88623L25.8862 8.0006L24.0007 6.11499ZM9.33398 6.66727H6.66732V9.33394H9.33398V6.66727Z" fill="#182BFF"/>
</svg>
