<svg width="32" height="32" viewBox="0 0 32 32" fill="none" xmlns="http://www.w3.org/2000/svg">
<path d="M21.3337 1.33203C22.0701 1.33203 22.667 1.92899 22.667 2.66536V3.9987H29.3337V11.9987H26.6421L30.3031 22.0572C30.5381 22.6584 30.667 23.3128 30.667 23.9974C30.667 26.943 28.2791 29.3307 25.3337 29.3307C22.849 29.3307 20.7613 27.6316 20.1687 25.332H14.499C13.9069 27.6323 11.8188 29.332 9.33366 29.332C6.74101 29.332 4.58043 27.482 4.09998 25.0302C3.24827 24.5848 2.66699 23.693 2.66699 22.6654V9.33203C2.66699 8.59566 3.26395 7.9987 4.00033 7.9987H13.3337C14.0701 7.9987 14.667 8.59566 14.667 9.33203V15.9987C14.667 16.7351 15.2639 17.332 16.0003 17.332H18.667C19.4034 17.332 20.0003 16.7351 20.0003 15.9987V3.9987H16.0003V1.33203H21.3337ZM9.33366 21.332C7.8609 21.332 6.66699 22.5259 6.66699 23.9987C6.66699 25.4715 7.8609 26.6654 9.33366 26.6654C10.8064 26.6654 12.0003 25.4715 12.0003 23.9987C12.0003 22.5259 10.8064 21.332 9.33366 21.332ZM25.3337 21.3307C23.8609 21.3307 22.667 22.5246 22.667 23.9974C22.667 25.4702 23.8609 26.664 25.3337 26.664C26.8065 26.664 28.0003 25.4702 28.0003 23.9974C28.0003 23.677 27.9438 23.3696 27.8402 23.0851L27.8183 23.0272C27.4303 22.0342 26.4642 21.3307 25.3337 21.3307ZM23.8043 11.9987H22.667V15.9987C22.667 18.2079 20.8762 19.9987 18.667 19.9987H16.0003C13.7911 19.9987 12.0003 18.2079 12.0003 15.9987H5.33366V20.471C6.31091 19.3638 7.74074 18.6654 9.33366 18.6654C11.8188 18.6654 13.9069 20.3651 14.499 22.6654H20.1681C20.7597 20.3644 22.8481 18.664 25.3337 18.664C25.6494 18.664 25.9587 18.6915 26.2594 18.7442L23.8043 11.9987ZM12.0003 10.6654H5.33366V13.332H12.0003V10.6654ZM26.667 6.66536H22.667V9.33203H26.667V6.66536Z" fill="#F5FF0A"/>
</svg>
