<svg width="32" height="32" viewBox="0 0 32 32" fill="none" xmlns="http://www.w3.org/2000/svg">
<path d="M6.66667 6.13782V18.3839C6.66667 20.1671 7.55787 21.8323 9.0416 22.8215L16 27.4604L22.9584 22.8215C24.4421 21.8323 25.3333 20.1671 25.3333 18.3839V6.13782L16 4.06375L6.66667 6.13782ZM5.04409 3.76667L16 1.33203L26.9559 3.76667C27.566 3.90224 28 4.44332 28 5.06826V18.3839C28 21.0587 26.6632 23.5566 24.4376 25.0403L16 30.6654L7.5624 25.0403C5.33681 23.5566 4 21.0587 4 18.3839V5.06826C4 4.44332 4.43404 3.90224 5.04409 3.76667ZM16 17.9987L12.0814 20.0588L12.8298 15.6954L9.65963 12.6053L14.0407 11.9686L16 7.9987L17.9593 11.9686L22.3404 12.6053L19.1701 15.6954L19.9185 20.0588L16 17.9987Z" fill="#182BFF"/>
</svg>
