<svg width="32" height="32" viewBox="0 0 32 32" fill="none" xmlns="http://www.w3.org/2000/svg">
<path d="M9.33268 5.33464V26.668H22.666V5.33464H9.33268ZM7.99935 2.66797H23.9993C24.7358 2.66797 25.3327 3.26493 25.3327 4.0013V28.0013C25.3327 28.7377 24.7358 29.3346 23.9993 29.3346H7.99935C7.26298 29.3346 6.66602 28.7377 6.66602 28.0013V4.0013C6.66602 3.26493 7.26298 2.66797 7.99935 2.66797ZM15.9993 22.668C16.7357 22.668 17.3327 23.2649 17.3327 24.0013C17.3327 24.7377 16.7357 25.3346 15.9993 25.3346C15.2629 25.3346 14.666 24.7377 14.666 24.0013C14.666 23.2649 15.2629 22.668 15.9993 22.668Z" fill="#182BFF"/>
</svg>
