<svg width="32" height="32" viewBox="0 0 32 32" fill="none" xmlns="http://www.w3.org/2000/svg">
<path d="M24.0417 22.157L29.7519 27.8673L27.8663 29.7529L22.1561 24.0426C20.1029 25.6853 17.499 26.668 14.667 26.668C8.04299 26.668 2.66699 21.292 2.66699 14.668C2.66699 8.04397 8.04299 2.66797 14.667 2.66797C21.291 2.66797 26.667 8.04397 26.667 14.668C26.667 17.5 25.6843 20.1038 24.0417 22.157ZM21.3666 21.1677C22.997 19.4874 24.0003 17.1954 24.0003 14.668C24.0003 9.5113 19.8237 5.33464 14.667 5.33464C9.51033 5.33464 5.33366 9.5113 5.33366 14.668C5.33366 19.8246 9.51033 24.0013 14.667 24.0013C17.1945 24.0013 19.4865 22.998 21.1667 21.3676L21.3666 21.1677ZM16.2375 9.56962C15.3115 9.98773 14.667 10.9192 14.667 12.0013C14.667 13.4741 15.8609 14.668 17.3337 14.668C18.4157 14.668 19.3473 14.0234 19.7654 13.0975C19.9181 13.594 20.0003 14.1213 20.0003 14.668C20.0003 17.6134 17.6125 20.0013 14.667 20.0013C11.7215 20.0013 9.33366 17.6134 9.33366 14.668C9.33366 11.7224 11.7215 9.33464 14.667 9.33464C15.2137 9.33464 15.741 9.41686 16.2375 9.56962Z" fill="#182BFF"/>
</svg>
