<svg width="32" height="32" viewBox="0 0 32 32" fill="none" xmlns="http://www.w3.org/2000/svg">
<path d="M8.50975 7.95616C10.5627 6.31399 13.1667 5.33203 16 5.33203C18.8333 5.33203 21.4373 6.31399 23.4903 7.95616L25.4281 6.01832L27.3137 7.90394L25.3759 9.84178C27.018 11.8947 28 14.4987 28 17.332C28 23.9595 22.6275 29.332 16 29.332C9.37259 29.332 4 23.9595 4 17.332C4 14.4987 4.98196 11.8947 6.62413 9.84178L4.68629 7.90394L6.57191 6.01832L8.50975 7.95616ZM16 26.6654C21.1547 26.6654 25.3333 22.4867 25.3333 17.332C25.3333 12.1774 21.1547 7.9987 16 7.9987C10.8453 7.9987 6.66667 12.1774 6.66667 17.332C6.66667 22.4867 10.8453 26.6654 16 26.6654ZM17.3333 15.9987H21.3333L14.6667 24.6654V18.6654H10.6667L17.3333 9.9923V15.9987ZM10.6667 1.33203H21.3333V3.9987H10.6667V1.33203Z" fill="#182BFF"/>
</svg>
