<svg width="17" height="19" viewBox="0 0 17 19" fill="none" xmlns="http://www.w3.org/2000/svg">
<path d="M12.5016 13.8912L7.95415 4.15234H3.97711L8.53812 13.8912H12.5016Z" fill="#666666"/>
<path d="M0.00012207 18.3125L3.96817 4.15234H7.95421L3.95012 18.3125H0.00012207Z" fill="#F0F0FA"/>
<path d="M8.52478 13.8931L11.6511 2.83984H13.1995C13.2015 2.83984 13.2035 2.83996 13.2055 2.84019L14.4167 2.98017C14.4186 2.9804 14.4206 2.98052 14.4226 2.98052H15.6072L12.4926 13.8931H8.52478Z" fill="#F0F0FA"/>
<path d="M14.3926 0.0317609L16.6323 4.07897L10.4557 2.60747L14.3046 0.00956442C14.3275 -0.00654105 14.363 -0.00182815 14.384 0.0200993C14.3874 0.0236848 14.3903 0.027609 14.3926 0.0317609Z" fill="#F0F0FA"/>
</svg>
