<svg width="32" height="32" viewBox="0 0 32 32" fill="none" xmlns="http://www.w3.org/2000/svg">
<path d="M5.33317 6.66667V25.3333H26.6665V6.66667H5.33317ZM3.99984 4H27.9998C28.7362 4 29.3332 4.59696 29.3332 5.33333V26.6667C29.3332 27.4031 28.7362 28 27.9998 28H3.99984C3.26346 28 2.6665 27.4031 2.6665 26.6667V5.33333C2.6665 4.59696 3.26346 4 3.99984 4ZM7.99984 9.33333H10.6665V12H7.99984V9.33333ZM7.99984 14.6667H10.6665V17.3333H7.99984V14.6667ZM7.99984 20H23.9998V22.6667H7.99984V20ZM14.6665 14.6667H17.3332V17.3333H14.6665V14.6667ZM14.6665 9.33333H17.3332V12H14.6665V9.33333ZM21.3332 9.33333H23.9998V12H21.3332V9.33333ZM21.3332 14.6667H23.9998V17.3333H21.3332V14.6667Z" fill="#182BFF"/>
</svg>
