<svg width="32" height="32" viewBox="0 0 32 32" fill="none" xmlns="http://www.w3.org/2000/svg">
<path d="M22.6667 7.99935C21.9303 7.99935 21.3333 7.40239 21.3333 6.66602C21.3333 5.92964 21.9303 5.33268 22.6667 5.33268C23.4031 5.33268 24 5.92964 24 6.66602C24 7.40239 23.4031 7.99935 22.6667 7.99935ZM22.6667 10.666C24.8759 10.666 26.6667 8.87515 26.6667 6.66602C26.6667 4.45688 24.8759 2.66602 22.6667 2.66602C20.4575 2.66602 18.6667 4.45688 18.6667 6.66602C18.6667 8.87515 20.4575 10.666 22.6667 10.666ZM9.33333 3.99935C6.38781 3.99935 4 6.38716 4 9.33268V11.9993H6.66667V9.33268C6.66667 7.85992 7.86057 6.66602 9.33333 6.66602H13.3333V3.99935H9.33333ZM22.6667 27.9993C25.6121 27.9993 28 25.6115 28 22.666V19.9993H25.3333V22.666C25.3333 24.1388 24.1395 25.3327 22.6667 25.3327H18.6667V27.9993H22.6667ZM10.6667 17.3327C10.6667 16.5963 10.0697 15.9993 9.33333 15.9993C8.59696 15.9993 8 16.5963 8 17.3327C8 18.0691 8.59696 18.666 9.33333 18.666C10.0697 18.666 10.6667 18.0691 10.6667 17.3327ZM13.3333 17.3327C13.3333 19.5419 11.5425 21.3327 9.33333 21.3327C7.1242 21.3327 5.33333 19.5419 5.33333 17.3327C5.33333 15.1235 7.1242 13.3327 9.33333 13.3327C11.5425 13.3327 13.3333 15.1235 13.3333 17.3327ZM22.6667 14.666C21.1939 14.666 20 15.8599 20 17.3327H17.3333C17.3333 14.3872 19.7212 11.9993 22.6667 11.9993C25.6121 11.9993 28 14.3872 28 17.3327H25.3333C25.3333 15.8599 24.1395 14.666 22.6667 14.666ZM6.66667 27.9993C6.66667 26.5266 7.86057 25.3327 9.33333 25.3327C10.8061 25.3327 12 26.5266 12 27.9993H14.6667C14.6667 25.0539 12.2789 22.666 9.33333 22.666C6.38781 22.666 4 25.0539 4 27.9993H6.66667Z" fill="#182BFF"/>
</svg>
